{
.appVersion = "1348";
classes = (
{
code = "Ka.dogra Kha.dogra Ga.dogra Gha.dogra Nga.dogra Ca.dogra Cha.dogra Ja.dogra Jha.dogra Nya.dogra Tta.dogra Ttha.dogra Dda.dogra Ddha.dogra Nna.dogra Ta.dogra Tha.dogra Da.dogra Dha.dogra Na.dogra Pa.dogra Pha.dogra Ba.dogra Bha.dogra Ma.dogra Ya.dogra Ra.dogra La.dogra Va.dogra Sha.dogra Ssa.dogra Sa.dogra Ha.dogra Rra.dogra JaNya.dogra KaSsa.dogra TaRa.dogra ShaRa.dogra SaTta.dogra Dha.alt.dogra Ttha.alt.dogra Rra.alt.dogra Ga.old.dogra Jha.old.dogra Ra.old.dogra Dha.old.dogra Gha.old.dogra Tha.old1.dogra Nga.old1.dogra Nga.old2.dogra Tha.old2.dogra Nna.old.dogra Nya.old.dogra Sha.old.dogra\012\012";
name = "@allconsonants";
}
);
copyright = "Copyright 2019 Google LLC. All Rights Reserved.";
customParameters = (
{
name = glyphOrder;
value = (
.notdef,
NULL,
CR,
space,
vowelA.dogra,
vowelAa.dogra,
vowelI.dogra,
vowelIi.dogra,
vowelU.dogra,
vowelUu.dogra,
vowelE.dogra,
vowelAi.dogra,
vowelO.dogra,
vowelAu.dogra,
Ka.dogra,
Kha.dogra,
Ga.dogra,
Gha.dogra,
Nga.dogra,
Ca.dogra,
Cha.dogra,
Ja.dogra,
Jha.dogra,
Nya.dogra,
Tta.dogra,
Ttha.dogra,
Dda.dogra,
Ddha.dogra,
Nna.dogra,
Ta.dogra,
Tha.dogra,
Da.dogra,
Dha.dogra,
Na.dogra,
Pa.dogra,
Pha.dogra,
Ba.dogra,
Bha.dogra,
Ma.dogra,
Ya.dogra,
Ra.dogra,
La.dogra,
Va.dogra,
Sha.dogra,
Ssa.dogra,
Sa.dogra,
Ha.dogra,
Rra.dogra,
matraAa.dogra,
matraI.dogra,
matraIi.dogra,
matraU.dogra,
matraUu.dogra,
matraR.dogra,
matraRr.dogra,
matraE.dogra,
matraAi.dogra,
matraO.dogra,
matraAu.dogra,
Anusvara.dogra,
Visarga.dogra,
Virama.dogra,
Nukta.dogra,
AbbreviationSign.dogra,
JaNya.dogra,
KaSsa.dogra,
TaRa.dogra,
ShaRa.dogra,
SaTta.dogra,
vowelOAnusvara.dogra,
vowelAuAnusvara.dogra,
NnaMatraAa.dogra,
VaMatraR.dogra,
matraAa.alt.dogra,
matraR.alt.dogra,
matraRr.alt.dogra,
matraI.alt.dogra,
matraIi.alt.dogra,
Anusvara.alt.dogra,
matraIiAnusvara.dogra,
matraIiAnusvara.alt.dogra,
matraOAnusvara.dogra,
matraAuAnusvara.dogra,
matraEAnusvara.dogra,
matraAiAnusvara.dogra,
vowelUu.alt.dogra,

glyphs = (
{
glyphname = .notdef;
lastChange = "2019-09-10 09:05:57 +0000";
layers = (
{
layerId = "284FCB4C-24BB-4F0E-B388-CD6C9D45C343";
paths = (
{
closed = 1;
nodes = (
"505 0 LINE",
"505 714 LINE",
"94 714 LINE",
"94 0 LINE"
);
},
{
closed = 1;
nodes = (
"145 663 LINE",
"454 663 LINE",
"454 51 LINE",
"145 51 LINE"
);
}
);
width = 600;
}
);
},
{
glyphname = vowelA.dogra;
lastChange = "2019-09-07 12:07:09 +0000";
layers = (
{
anchors = (
{
name = top;
position = "{395, 660}";
}
);
background = {
anchors = (
{
name = top;
position = "{395, 660}";
}
);
paths = (
{
closed = 1;
nodes = (
"615 -10 LINE",
"606 7 OFFCURVE",
"600 29 OFFCURVE",
"600 50 CURVE SMOOTH",
"600 86 OFFCURVE",
"611 116 OFFCURVE",
"633 167 CURVE SMOOTH",
"659 228 LINE SMOOTH",
"674 263 OFFCURVE",
"691 304 OFFCURVE",
"691 335 CURVE SMOOTH",
"691 412 OFFCURVE",
"606 499 OFFCURVE",
"520 499 CURVE SMOOTH",
"435 499 OFFCURVE",
"368 441 OFFCURVE",
"338 268 CURVE",
"302 286 OFFCURVE",
"264 301 OFFCURVE",
"224 313 CURVE",
"229 354 OFFCURVE",
"232 400 OFFCURVE",
"232 494 CURVE SMOOTH",
"232 558 LINE",
"745 558 LINE",
"745 567 LINE",
"713 625 LINE",
"25 625 LINE",
"25 615 LINE",
"57 558 LINE",
"154 558 LINE",
"154 499 LINE SMOOTH",
"154 417 OFFCURVE",
"152 370 OFFCURVE",
"145 330 CURVE",
"127 331 LINE",
"84 331 OFFCURVE",
"60 308 OFFCURVE",
"60 267 CURVE SMOOTH",
"60 211 OFFCURVE",
"102 161 OFFCURVE",
"148 161 CURVE SMOOTH",
"183 161 OFFCURVE",
"203 182 OFFCURVE",
"216 251 CURVE",
"269 239 OFFCURVE",
"325 220 OFFCURVE",
"406 185 CURVE",
"438 373 OFFCURVE",
"485 434 OFFCURVE",
"553 434 CURVE SMOOTH",
"589 434 OFFCURVE",
"611 410 OFFCURVE",
"611 372 CURVE SMOOTH",
"611 338 OFFCURVE",
"599 305 OFFCURVE",
"581 262 CURVE SMOOTH",
"555 201 LINE SMOOTH",
"536 157 OFFCURVE",
"520 118 OFFCURVE",
"520 86 CURVE SMOOTH",
"520 41 OFFCURVE",
"558 9 OFFCURVE",
"602 -20 CURVE"
);
}
);
};
layerId = "284FCB4C-24BB-4F0E-B388-CD6C9D45C343";
paths = (
{
closed = 1;
nodes = (
"615 -10 LINE",
"606 7 OFFCURVE",
"600 29 OFFCURVE",
"600 50 CURVE SMOOTH",
"600 86 OFFCURVE",
"611 116 OFFCURVE",
"633 167 CURVE SMOOTH",
"659 228 LINE SMOOTH",
"674 263 OFFCURVE",
"691 304 OFFCURVE",
"691 335 CURVE SMOOTH",
"691 412 OFFCURVE",
"606 499 OFFCURVE",
"520 499 CURVE SMOOTH",
"435 499 OFFCURVE",
"368 441 OFFCURVE",
"338 268 CURVE",
"302 286 OFFCURVE",
"264 301 OFFCURVE",
"224 313 CURVE",
"229 354 OFFCURVE",
"232 400 OFFCURVE",
"232 494 CURVE SMOOTH",
"232 558 LINE",
"745 558 LINE",
"745 567 LINE",
"713 625 LINE",
"25 625 LINE",
"25 615 LINE",
"57 558 LINE",
"154 558 LINE",
"154 499 LINE SMOOTH",
"154 417 OFFCURVE",
"152 370 OFFCURVE",
"145 330 CURVE",
"127 331 LINE",
"84 331 OFFCURVE",
"60 308 OFFCURVE",
"60 267 CURVE SMOOTH",
"60 211 OFFCURVE",
"102 161 OFFCURVE",
"148 161 CURVE SMOOTH",
"183 161 OFFCURVE",
"203 182 OFFCURVE",
"216 251 CURVE",
"269 239 OFFCURVE",
"325 220 OFFCURVE",
"406 185 CURVE",
"438 373 OFFCURVE",
"485 434 OFFCURVE",
"553 434 CURVE SMOOTH",
"589 434 OFFCURVE",
"611 410 OFFCURVE",
"611 372 CURVE SMOOTH",
"611 338 OFFCURVE",
"599 305 OFFCURVE",
"581 262 CURVE SMOOTH",
"555 201 LINE SMOOTH",
"536 157 OFFCURVE",
"520 118 OFFCURVE",
"520 86 CURVE SMOOTH",
"520 41 OFFCURVE",
"558 9 OFFCURVE",
"602 -20 CURVE"
);
}
);
width = 770;
}
);
unicode = 11800;
category = Letter;
},
{
glyphname = vowelAa.dogra;
lastChange = "2019-09-07 12:07:09 +0000";
layers = (
{
anchors = (
{
name = top;
position = "{425, 660}";
}
);
background = {
anchors = (
{
name = top;
position = "{425, 660}";
}
);
paths = (
{
closed = 1;
nodes = (
"615 -10 LINE",
"606 7 OFFCURVE",
"600 29 OFFCURVE",
"600 50 CURVE SMOOTH",
"600 86 OFFCURVE",
"611 116 OFFCURVE",
"633 167 CURVE SMOOTH",
"659 228 LINE SMOOTH",
"674 263 OFFCURVE",
"691 304 OFFCURVE",
"691 335 CURVE SMOOTH",
"691 412 OFFCURVE",
"606 499 OFFCURVE",
"520 499 CURVE SMOOTH",
"435 499 OFFCURVE",
"368 441 OFFCURVE",
"338 268 CURVE",
"302 286 OFFCURVE",
"264 301 OFFCURVE",
"224 313 CURVE",
"229 354 OFFCURVE",
"232 400 OFFCURVE",
"232 494 CURVE SMOOTH",
"232 558 LINE",
"734 558 LINE",
"863 352 LINE",
"877 352 LINE",
"1012 666 LINE",
"939 700 LINE",
"846 477 LINE",
"753 625 LINE",
"25 625 LINE",
"25 615 LINE",
"57 558 LINE",
"154 558 LINE",
"154 499 LINE SMOOTH",
"154 417 OFFCURVE",
"152 370 OFFCURVE",
"145 330 CURVE",
"127 331 LINE",
"84 331 OFFCURVE",
"60 308 OFFCURVE",
"60 267 CURVE SMOOTH",
"60 211 OFFCURVE",
"102 161 OFFCURVE",
"148 161 CURVE SMOOTH",
"183 161 OFFCURVE",
"203 182 OFFCURVE",
"216 251 CURVE",
"269 239 OFFCURVE",
"325 220 OFFCURVE",
"406 185 CURVE",
"438 373 OFFCURVE",
"485 434 OFFCURVE",
"553 434 CURVE SMOOTH",
"589 434 OFFCURVE",
"611 410 OFFCURVE",
"611 372 CURVE SMOOTH",
"611 338 OFFCURVE",
"599 305 OFFCURVE",
"581 262 CURVE SMOOTH",
"555 201 LINE SMOOTH",
"536 157 OFFCURVE",
"520 118 OFFCURVE",
"520 86 CURVE SMOOTH",
"520 41 OFFCURVE",
"558 9 OFFCURVE",
"602 -20 CURVE"
);
}
);
};
layerId = "284FCB4C-24BB-4F0E-B388-CD6C9D45C343";
paths = (
{
closed = 1;
nodes = (
"615 -10 LINE",
"606 7 OFFCURVE",
"600 29 OFFCURVE",
"600 50 CURVE SMOOTH",
"600 86 OFFCURVE",
"611 116 OFFCURVE",
"633 167 CURVE SMOOTH",
"659 228 LINE SMOOTH",
"674 263 OFFCURVE",
"691 304 OFFCURVE",
"691 335 CURVE SMOOTH",
"691 412 OFFCURVE",
"606 499 OFFCURVE",
"520 499 CURVE SMOOTH",
"435 499 OFFCURVE",
"368 441 OFFCURVE",
"338 268 CURVE",
"302 286 OFFCURVE",
"264 301 OFFCURVE",
"224 313 CURVE",
"229 354 OFFCURVE",
"232 400 OFFCURVE",
"232 494 CURVE SMOOTH",
"232 558 LINE",
"734 558 LINE",
"863 352 LINE",
"877 352 LINE",
"1012 666 LINE",
"939 700 LINE",
"846 477 LINE",
"753 625 LINE",
"25 625 LINE",
"25 615 LINE",
"57 558 LINE",
"154 558 LINE",
"154 499 LINE SMOOTH",
"154 417 OFFCURVE",
"152 370 OFFCURVE",
"145 330 CURVE",
"127 331 LINE",
"84 331 OFFCURVE",
"60 308 OFFCURVE",
"60 267 CURVE SMOOTH",
"60 211 OFFCURVE",
"102 161 OFFCURVE",
"148 161 CURVE SMOOTH",
"183 161 OFFCURVE",
"203 182 OFFCURVE",
"216 251 CURVE",
"269 239 OFFCURVE",
"325 220 OFFCURVE",
"406 185 CURVE",
"438 373 OFFCURVE",
"485 434 OFFCURVE",
"553 434 CURVE SMOOTH",
"589 434 OFFCURVE",
"611 410 OFFCURVE",
"611 372 CURVE SMOOTH",
"611 338 OFFCURVE",
"599 305 OFFCURVE",
"581 262 CURVE SMOOTH",
"555 201 LINE SMOOTH",
"536 157 OFFCURVE",
"520 118 OFFCURVE",
"520 86 CURVE SMOOTH",
"520 41 OFFCURVE",
"558 9 OFFCURVE",
"602 -20 CURVE"
);
}
);
width = 987;
}
);
unicode = 11801;
category = Letter;
},
{
glyphname = vowelI.dogra;
lastChange = "2019-09-07 12:07:09 +0000";
layers = (
{
anchors = (
{
name = top;
position = "{254, 876}";
}
);
background = {
anchors = (
{
name = top;
position = "{254, 876}";
}
);
paths = (
{
closed = 1;
nodes = (
"378 175 OFFCURVE",
"431 234 OFFCURVE",
"431 313 CURVE SMOOTH",
"431 409 OFFCURVE",
"330 498 OFFCURVE",
"225 498 CURVE SMOOTH",
"190 498 OFFCURVE",
"161 491 OFFCURVE",
"137 479 CURVE",
"157 671 OFFCURVE",
"286 755 OFFCURVE",
"439 776 CURVE",
"439 785 LINE",
"401 841 LINE",
"218 822 OFFCURVE",
"59 691 OFFCURVE",
"59 446 CURVE SMOOTH",
"59 272 OFFCURVE",
"168 175 OFFCURVE",
"275 175 CURVE SMOOTH"
);
},
{
closed = 1;
nodes = (
"191 237 OFFCURVE",
"135 288 OFFCURVE",
"134 391 CURVE",
"166 415 OFFCURVE",
"206 434 OFFCURVE",
"253 434 CURVE SMOOTH",
"317 434 OFFCURVE",
"351 392 OFFCURVE",
"351 340 CURVE SMOOTH",
"351 281 OFFCURVE",
"322 237 OFFCURVE",
"256 237 CURVE SMOOTH"
);
}
);
};
layerId = "284FCB4C-24BB-4F0E-B388-CD6C9D45C343";
paths = (
{
closed = 1;
nodes = (
"378 175 OFFCURVE",
"431 234 OFFCURVE",
"431 313 CURVE SMOOTH",
"431 409 OFFCURVE",
"330 498 OFFCURVE",
"225 498 CURVE SMOOTH",
"190 498 OFFCURVE",
"161 491 OFFCURVE",
"137 479 CURVE",
"157 671 OFFCURVE",
"286 755 OFFCURVE",
"439 776 CURVE",
"439 785 LINE",
"401 841 LINE",
"218 822 OFFCURVE",
"59 691 OFFCURVE",
"59 446 CURVE SMOOTH",
"59 272 OFFCURVE",
"168 175 OFFCURVE",
"275 175 CURVE SMOOTH"
);
},
{
closed = 1;
nodes = (
"191 237 OFFCURVE",
"135 288 OFFCURVE",
"134 391 CURVE",
"166 415 OFFCURVE",
"206 434 OFFCURVE",
"253 434 CURVE SMOOTH",
"317 434 OFFCURVE",
"351 392 OFFCURVE",
"351 340 CURVE SMOOTH",
"351 281 OFFCURVE",
"322 237 OFFCURVE",
"256 237 CURVE SMOOTH"
);
}
);
width = 471;
}
);
unicode = 11802;
category = Letter;
},
{
glyphname = vowelIi.dogra;
lastChange = "2019-09-07 12:07:46 +0000";
layers = (
{
anchors = (
{
name = top;
position = "{254, 876}";
}
);
background = {
anchors = (
{
name = top;
position = "{254, 876}";
}
);
paths = (
{
closed = 1;
nodes = (
"378 175 OFFCURVE",
"431 234 OFFCURVE",
"431 313 CURVE SMOOTH",
"431 409 OFFCURVE",
"330 498 OFFCURVE",
"225 498 CURVE SMOOTH",
"190 498 OFFCURVE",
"161 491 OFFCURVE",
"137 479 CURVE",
"157 671 OFFCURVE",
"286 755 OFFCURVE",
"439 776 CURVE",
"439 785 LINE",
"401 841 LINE",
"218 822 OFFCURVE",
"59 691 OFFCURVE",
"59 446 CURVE SMOOTH",
"59 272 OFFCURVE",
"168 175 OFFCURVE",
"275 175 CURVE SMOOTH"
);
},
{
closed = 1;
nodes = (
"192 -3 OFFCURVE",
"214 22 OFFCURVE",
"214 56 CURVE SMOOTH",
"214 91 OFFCURVE",
"192 115 OFFCURVE",
"157 115 CURVE SMOOTH",
"122 115 OFFCURVE",
"99 91 OFFCURVE",
"99 56 CURVE SMOOTH",
"99 22 OFFCURVE",
"122 -3 OFFCURVE",
"157 -3 CURVE SMOOTH"
);
},
{
closed = 1;
nodes = (
"399 -3 OFFCURVE",
"421 22 OFFCURVE",
"421 56 CURVE SMOOTH",
"421 91 OFFCURVE",
"399 115 OFFCURVE",
"364 115 CURVE SMOOTH",
"329 115 OFFCURVE",
"306 91 OFFCURVE",
"306 56 CURVE SMOOTH",
"306 22 OFFCURVE",
"329 -3 OFFCURVE",
"364 -3 CURVE SMOOTH"
);
},
{
closed = 1;
nodes = (
"191 237 OFFCURVE",
"135 288 OFFCURVE",
"134 391 CURVE",
"166 415 OFFCURVE",
"206 434 OFFCURVE",
"253 434 CURVE SMOOTH",
"317 434 OFFCURVE",
"351 392 OFFCURVE",
"351 340 CURVE SMOOTH",
"351 281 OFFCURVE",
"322 237 OFFCURVE",
"256 237 CURVE SMOOTH"
);
}
);
};
layerId = "284FCB4C-24BB-4F0E-B388-CD6C9D45C343";
paths = (
{
closed = 1;
nodes = (
"378 175 OFFCURVE",
"431 234 OFFCURVE",
"431 313 CURVE SMOOTH",
"431 409 OFFCURVE",
"330 498 OFFCURVE",
"225 498 CURVE SMOOTH",
"190 498 OFFCURVE",
"161 491 OFFCURVE",
"137 479 CURVE",
"157 671 OFFCURVE",
"286 755 OFFCURVE",
"439 776 CURVE",
"439 785 LINE",
"401 841 LINE",
"218 822 OFFCURVE",
"59 691 OFFCURVE",
"59 446 CURVE SMOOTH",
"59 272 OFFCURVE",
"168 175 OFFCURVE",
"275 175 CURVE SMOOTH"
);
},
{
closed = 1;
nodes = (
"192 -3 OFFCURVE",
"214 22 OFFCURVE",
"214 56 CURVE SMOOTH",
"214 91 OFFCURVE",
"192 115 OFFCURVE",
"157 115 CURVE SMOOTH",
"122 115 OFFCURVE",
"99 91 OFFCURVE",
"99 56 CURVE SMOOTH",
"99 22 OFFCURVE",
"122 -3 OFFCURVE",
"157 -3 CURVE SMOOTH"
);
},
{
closed = 1;
nodes = (
"399 -3 OFFCURVE",
"421 22 OFFCURVE",
"421 56 CURVE SMOOTH",
"421 91 OFFCURVE",
"399 115 OFFCURVE",
"364 115 CURVE SMOOTH",
"329 115 OFFCURVE",
"306 91 OFFCURVE",
"306 56 CURVE SMOOTH",
"306 22 OFFCURVE",
"329 -3 OFFCURVE",
"364 -3 CURVE SMOOTH"
);
},
{
closed = 1;
nodes = (
"191 237 OFFCURVE",
"135 288 OFFCURVE",
"134 391 CURVE",
"166 415 OFFCURVE",
"206 434 OFFCURVE",
"253 434 CURVE SMOOTH",
"317 434 OFFCURVE",
"351 392 OFFCURVE",
"351 340 CURVE SMOOTH",
"351 281 OFFCURVE",
"322 237 OFFCURVE",
"256 237 CURVE SMOOTH"
);
}
);
width = 471;
}
);
unicode = 11803;
category = Letter;
},
{
glyphname = vowelU.dogra;
lastChange = "2019-09-07 12:07:48 +0000";
layers = (
{
anchors = (
{
name = top;
position = "{316, 660}";
}
);
background = {
anchors = (
{
name = top;
position = "{316, 660}";
}
);
paths = (
{
closed = 1;
nodes = (
"470 24 OFFCURVE",
"546 92 OFFCURVE",
"546 184 CURVE SMOOTH",
"546 258 OFFCURVE",
"499 321 OFFCURVE",
"432 352 CURVE",
"493 385 OFFCURVE",
"532 443 OFFCURVE",
"545 558 CURVE",
"607 558 LINE",
"607 567 LINE",
"575 625 LINE",
"25 625 LINE",
"25 616 LINE",
"57 558 LINE",
"463 558 LINE",
"452 452 OFFCURVE",
"398 385 OFFCURVE",
"273 385 CURVE SMOOTH",
"253 385 LINE",
"276 318 LINE",
"355 318 LINE SMOOTH",
"434 318 OFFCURVE",
"465 274 OFFCURVE",
"465 213 CURVE SMOOTH",
"465 138 OFFCURVE",
"412 94 OFFCURVE",
"331 94 CURVE SMOOTH",
"216 94 OFFCURVE",
"140 175 OFFCURVE",
"103 385 CURVE",
"53 377 LINE",
"94 117 OFFCURVE",
"204 24 OFFCURVE",
"352 24 CURVE SMOOTH"
);
}
);
};
layerId = "284FCB4C-24BB-4F0E-B388-CD6C9D45C343";
paths = (
{
closed = 1;
nodes = (
"470 24 OFFCURVE",
"546 92 OFFCURVE",
"546 184 CURVE SMOOTH",
"546 258 OFFCURVE",
"499 321 OFFCURVE",
"432 352 CURVE",
"493 385 OFFCURVE",
"532 443 OFFCURVE",
"545 558 CURVE",
"607 558 LINE",
"607 567 LINE",
"575 625 LINE",
"25 625 LINE",
"25 616 LINE",
"57 558 LINE",
"463 558 LINE",
"452 452 OFFCURVE",
"398 385 OFFCURVE",
"273 385 CURVE SMOOTH",
"253 385 LINE",
"276 318 LINE",
"355 318 LINE SMOOTH",
"434 318 OFFCURVE",
"465 274 OFFCURVE",
"465 213 CURVE SMOOTH",
"465 138 OFFCURVE",
"412 94 OFFCURVE",
"331 94 CURVE SMOOTH",
"216 94 OFFCURVE",
"140 175 OFFCURVE",
"103 385 CURVE",
"53 377 LINE",
"94 117 OFFCURVE",
"204 24 OFFCURVE",
"352 24 CURVE SMOOTH"
);
}
);
width = 632;
}
);
unicode = 11804;
category = Letter;
},
{
glyphname = vowelUu.dogra;
lastChange = "2019-09-07 12:07:09 +0000";
layers = (
{
anchors = (
{
name = top;
position = "{417, 660}";
}
);
background = {
anchors = (
{
name = top;
position = "{417, 660}";
}
);
paths = (
{
closed = 1;
nodes = (
"767 27 LINE",
"742 58 OFFCURVE",
"736 76 OFFCURVE",
"736 111 CURVE SMOOTH",
"736 129 OFFCURVE",
"741 159 OFFCURVE",
"745 191 CURVE SMOOTH",
"748 216 LINE SMOOTH",
"752 246 OFFCURVE",
"754 270 OFFCURVE",
"754 286 CURVE SMOOTH",
"754 364 OFFCURVE",
"651 460 OFFCURVE",
"553 460 CURVE SMOOTH",
"542 460 OFFCURVE",
"532 460 OFFCURVE",
"523 459 CURVE",
"533 486 OFFCURVE",
"541 519 OFFCURVE",
"545 558 CURVE",
"812 558 LINE",
"812 567 LINE",
"781 625 LINE",
"25 625 LINE",
"25 616 LINE",
"57 558 LINE",
"463 558 LINE",
"449 444 OFFCURVE",
"399 385 OFFCURVE",
"273 385 CURVE SMOOTH",
"253 385 LINE",
"276 318 LINE",
"355 318 LINE SMOOTH",
"434 318 OFFCURVE",
"465 274 OFFCURVE",
"465 213 CURVE SMOOTH",
"465 138 OFFCURVE",
"412 94 OFFCURVE",
"331 94 CURVE SMOOTH",
"216 94 OFFCURVE",
"140 175 OFFCURVE",
"103 385 CURVE",
"53 377 LINE",
"94 117 OFFCURVE",
"204 24 OFFCURVE",
"352 24 CURVE SMOOTH",
"470 24 OFFCURVE",
"546 92 OFFCURVE",
"546 184 CURVE SMOOTH",
"546 258 OFFCURVE",
"499 321 OFFCURVE",
"432 352 CURVE",
"445 359 OFFCURVE",
"457 367 OFFCURVE",
"467 376 CURVE",
"502 384 OFFCURVE",
"549 390 OFFCURVE",
"587 390 CURVE SMOOTH",
"651 390 OFFCURVE",
"674 363 OFFCURVE",
"674 303 CURVE SMOOTH",
"674 288 OFFCURVE",
"672 262 OFFCURVE",
"668 237 CURVE SMOOTH",
"665 213 LINE SMOOTH",
"660 175 OFFCURVE",
"656 143 OFFCURVE",
"656 115 CURVE SMOOTH",
"656 72 OFFCURVE",
"687 40 OFFCURVE",
"759 16 CURVE"
);
}
);
};
layerId = "284FCB4C-24BB-4F0E-B388-CD6C9D45C343";
paths = (
{
closed = 1;
nodes = (
"767 27 LINE",
"742 58 OFFCURVE",
"736 76 OFFCURVE",
"736 111 CURVE SMOOTH",
"736 129 OFFCURVE",
"741 159 OFFCURVE",
"745 191 CURVE SMOOTH",
"748 216 LINE SMOOTH",
"752 246 OFFCURVE",
"754 270 OFFCURVE",
"754 286 CURVE SMOOTH",
"754 364 OFFCURVE",
"651 460 OFFCURVE",
"553 460 CURVE SMOOTH",
"542 460 OFFCURVE",
"532 460 OFFCURVE",
"523 459 CURVE",
"533 486 OFFCURVE",
"541 519 OFFCURVE",
"545 558 CURVE",
"812 558 LINE",
"812 567 LINE",
"781 625 LINE",
"25 625 LINE",
"25 616 LINE",
"57 558 LINE",
"463 558 LINE",
"449 444 OFFCURVE",
"399 385 OFFCURVE",
"273 385 CURVE SMOOTH",
"253 385 LINE",
"276 318 LINE",
"355 318 LINE SMOOTH",
"434 318 OFFCURVE",
"465 274 OFFCURVE",
"465 213 CURVE SMOOTH",
"465 138 OFFCURVE",
"412 94 OFFCURVE",
"331 94 CURVE SMOOTH",
"216 94 OFFCURVE",
"140 175 OFFCURVE",
"103 385 CURVE",
"53 377 LINE",
"94 117 OFFCURVE",
"204 24 OFFCURVE",
"352 24 CURVE SMOOTH",
"470 24 OFFCURVE",
"546 92 OFFCURVE",
"546 184 CURVE SMOOTH",
"546 258 OFFCURVE",
"499 321 OFFCURVE",
"432 352 CURVE",
"445 359 OFFCURVE",
"457 367 OFFCURVE",
"467 376 CURVE",
"502 384 OFFCURVE",
"549 390 OFFCURVE",
"587 390 CURVE SMOOTH",
"651 390 OFFCURVE",
"674 363 OFFCURVE",
"674 303 CURVE SMOOTH",
"674 288 OFFCURVE",
"672 262 OFFCURVE",
"668 237 CURVE SMOOTH",
"665 213 LINE SMOOTH",
"660 175 OFFCURVE",
"656 143 OFFCURVE",
"656 115 CURVE SMOOTH",
"656 72 OFFCURVE",
"687 40 OFFCURVE",
"759 16 CURVE"
);
}
);
width = 837;
}
);
unicode = 11805;
category = Letter;
},
{
glyphname = vowelE.dogra;
lastChange = "2019-09-07 12:07:52 +0000";
layers = (
{
anchors = (
{
name = top;
position = "{268, 660}";
}
);
background = {
anchors = (
{
name = top;
position = "{268, 660}";
}
);
paths = (
{
closed = 1;
nodes = (
"424 115 OFFCURVE",
"498 171 OFFCURVE",
"498 335 CURVE SMOOTH",
"498 607 LINE SMOOTH",
"498 753 OFFCURVE",
"558 782 OFFCURVE",
"622 789 CURVE",
"622 797 LINE",
"581 850 LINE",
"498 841 OFFCURVE",
"419 785 OFFCURVE",
"419 639 CURVE SMOOTH",
"419 374 LINE SMOOTH",
"419 233 OFFCURVE",
"382 180 OFFCURVE",
"282 180 CURVE SMOOTH",
"233 180 OFFCURVE",
"187 206 OFFCURVE",
"187 268 CURVE SMOOTH",
"187 301 OFFCURVE",
"192 329 OFFCURVE",
"203 379 CURVE SMOOTH",
"210 410 LINE SMOOTH",
"219 451 OFFCURVE",
"224 473 OFFCURVE",
"224 502 CURVE SMOOTH",
"224 554 OFFCURVE",
"152 625 OFFCURVE",
"77 625 CURVE SMOOTH",
"25 625 LINE",
"25 616 LINE",
"57 558 LINE",
"112 558 LINE SMOOTH",
"141 558 OFFCURVE",
"149 545 OFFCURVE",
"149 523 CURVE SMOOTH",
"149 499 OFFCURVE",
"143 474 OFFCURVE",
"134 436 CURVE SMOOTH",
"126 402 LINE SMOOTH",
"114 353 OFFCURVE",
"108 324 OFFCURVE",
"108 296 CURVE SMOOTH",
"108 203 OFFCURVE",
"215 115 OFFCURVE",
"313 115 CURVE SMOOTH"
);
}
);
};
layerId = "284FCB4C-24BB-4F0E-B388-CD6C9D45C343";
paths = (
{
closed = 1;
nodes = (
"424 115 OFFCURVE",
"498 171 OFFCURVE",
"498 335 CURVE SMOOTH",
"498 607 LINE SMOOTH",
"498 753 OFFCURVE",
"558 782 OFFCURVE",
"622 789 CURVE",
"622 797 LINE",
"581 850 LINE",
"498 841 OFFCURVE",
"419 785 OFFCURVE",
"419 639 CURVE SMOOTH",
"419 374 LINE SMOOTH",
"419 233 OFFCURVE",
"382 180 OFFCURVE",
"282 180 CURVE SMOOTH",
"233 180 OFFCURVE",
"187 206 OFFCURVE",
"187 268 CURVE SMOOTH",
"187 301 OFFCURVE",
"192 329 OFFCURVE",
"203 379 CURVE SMOOTH",
"210 410 LINE SMOOTH",
"219 451 OFFCURVE",
"224 473 OFFCURVE",
"224 502 CURVE SMOOTH",
"224 554 OFFCURVE",
"152 625 OFFCURVE",
"77 625 CURVE SMOOTH",
"25 625 LINE",
"25 616 LINE",
"57 558 LINE",
"112 558 LINE SMOOTH",
"141 558 OFFCURVE",
"149 545 OFFCURVE",
"149 523 CURVE SMOOTH",
"149 499 OFFCURVE",
"143 474 OFFCURVE",
"134 436 CURVE SMOOTH",
"126 402 LINE SMOOTH",
"114 353 OFFCURVE",
"108 324 OFFCURVE",
"108 296 CURVE SMOOTH",
"108 203 OFFCURVE",
"215 115 OFFCURVE",
"313 115 CURVE SMOOTH"
);
}
);
width = 583;
}
);
unicode = 11806;
category = Letter;
},
{
glyphname = vowelAi.dogra;
lastChange = "2019-09-07 12:07:54 +0000";
layers = (
{
anchors = (
{
name = top;
position = "{161, 760}";
}
);
background = {
anchors = (
{
name = top;
position = "{161, 760}";
}
);
paths = (
{
closed = 1;
nodes = (
"424 115 OFFCURVE",
"498 171 OFFCURVE",
"498 335 CURVE SMOOTH",
"498 607 LINE SMOOTH",
"498 753 OFFCURVE",
"558 782 OFFCURVE",
"622 789 CURVE",
"622 797 LINE",
"581 850 LINE",
"498 841 OFFCURVE",
"419 785 OFFCURVE",
"419 639 CURVE SMOOTH",
"419 374 LINE SMOOTH",
"419 233 OFFCURVE",
"382 180 OFFCURVE",
"282 180 CURVE SMOOTH",
"233 180 OFFCURVE",
"187 206 OFFCURVE",
"187 268 CURVE SMOOTH",
"187 301 OFFCURVE",
"192 329 OFFCURVE",
"203 379 CURVE SMOOTH",
"210 410 LINE SMOOTH",
"219 451 OFFCURVE",
"224 473 OFFCURVE",
"224 502 CURVE SMOOTH",
"224 554 OFFCURVE",
"152 625 OFFCURVE",
"77 625 CURVE SMOOTH",
"25 625 LINE",
"25 616 LINE",
"57 558 LINE",
"112 558 LINE SMOOTH",
"141 558 OFFCURVE",
"149 545 OFFCURVE",
"149 523 CURVE SMOOTH",
"149 499 OFFCURVE",
"143 474 OFFCURVE",
"134 436 CURVE SMOOTH",
"126 402 LINE SMOOTH",
"114 353 OFFCURVE",
"108 324 OFFCURVE",
"108 296 CURVE SMOOTH",
"108 203 OFFCURVE",
"215 115 OFFCURVE",
"313 115 CURVE SMOOTH"
);
},
{
closed = 1;
nodes = (
"327 683 LINE",
"327 692 LINE",
"294 748 LINE",
"1 748 LINE",
"1 739 LINE",
"34 683 LINE"
);
}
);
};
layerId = "284FCB4C-24BB-4F0E-B388-CD6C9D45C343";
paths = (
{
closed = 1;
nodes = (
"424 115 OFFCURVE",
"498 171 OFFCURVE",
"498 335 CURVE SMOOTH",
"498 607 LINE SMOOTH",
"498 753 OFFCURVE",
"558 782 OFFCURVE",
"622 789 CURVE",
"622 797 LINE",
"581 850 LINE",
"498 841 OFFCURVE",
"419 785 OFFCURVE",
"419 639 CURVE SMOOTH",
"419 374 LINE SMOOTH",
"419 233 OFFCURVE",
"382 180 OFFCURVE",
"282 180 CURVE SMOOTH",
"233 180 OFFCURVE",
"187 206 OFFCURVE",
"187 268 CURVE SMOOTH",
"187 301 OFFCURVE",
"192 329 OFFCURVE",
"203 379 CURVE SMOOTH",
"210 410 LINE SMOOTH",
"219 451 OFFCURVE",
"224 473 OFFCURVE",
"224 502 CURVE SMOOTH",
"224 554 OFFCURVE",
"152 625 OFFCURVE",
"77 625 CURVE SMOOTH",
"25 625 LINE",
"25 616 LINE",
"57 558 LINE",
"112 558 LINE SMOOTH",
"141 558 OFFCURVE",
"149 545 OFFCURVE",
"149 523 CURVE SMOOTH",
"149 499 OFFCURVE",
"143 474 OFFCURVE",
"134 436 CURVE SMOOTH",
"126 402 LINE SMOOTH",
"114 353 OFFCURVE",
"108 324 OFFCURVE",
"108 296 CURVE SMOOTH",
"108 203 OFFCURVE",
"215 115 OFFCURVE",
"313 115 CURVE SMOOTH"
);
},
{
closed = 1;
nodes = (
"327 683 LINE",
"327 692 LINE",
"294 748 LINE",
"1 748 LINE",
"1 739 LINE",
"34 683 LINE"
);
}
);
width = 583;
}
);
unicode = 11807;
category = Letter;
},
{
glyphname = vowelO.dogra;
lastChange = "2019-09-07 12:07:55 +0000";
layers = (
{
background = {
paths = (
{
closed = 1;
nodes = (
"470 24 OFFCURVE",
"546 92 OFFCURVE",
"546 184 CURVE SMOOTH",
"546 258 OFFCURVE",
"499 321 OFFCURVE",
"432 352 CURVE",
"493 385 OFFCURVE",
"532 443 OFFCURVE",
"545 558 CURVE",
"607 558 LINE",
"607 567 LINE",
"575 625 LINE",
"25 625 LINE",
"25 616 LINE",
"57 558 LINE",
"463 558 LINE",
"449 444 OFFCURVE",
"399 385 OFFCURVE",
"273 385 CURVE SMOOTH",
"253 385 LINE",
"276 318 LINE",
"355 318 LINE SMOOTH",
"434 318 OFFCURVE",
"465 274 OFFCURVE",
"465 213 CURVE SMOOTH",
"465 138 OFFCURVE",
"412 94 OFFCURVE",
"331 94 CURVE SMOOTH",
"216 94 OFFCURVE",
"140 175 OFFCURVE",
"103 385 CURVE",
"53 377 LINE",
"94 117 OFFCURVE",
"204 24 OFFCURVE",
"352 24 CURVE SMOOTH"
);
},
{
closed = 1;
nodes = (
"328 846 LINE",
"427 705 LINE",
"466 736 LINE",
"334 917 LINE SMOOTH",
"328 925 OFFCURVE",
"321 929 OFFCURVE",
"312 929 CURVE SMOOTH",
"310 929 LINE SMOOTH",
"301 929 OFFCURVE",
"293 925 OFFCURVE",
"287 917 CURVE",
"153 756 LINE",
"212 703 LINE"
);
}
);
};
layerId = "284FCB4C-24BB-4F0E-B388-CD6C9D45C343";
paths = (
{
closed = 1;
nodes = (
"470 24 OFFCURVE",
"546 92 OFFCURVE",
"546 184 CURVE SMOOTH",
"546 258 OFFCURVE",
"499 321 OFFCURVE",
"432 352 CURVE",
"493 385 OFFCURVE",
"532 443 OFFCURVE",
"545 558 CURVE",
"607 558 LINE",
"607 567 LINE",
"575 625 LINE",
"25 625 LINE",
"25 616 LINE",
"57 558 LINE",
"463 558 LINE",
"449 444 OFFCURVE",
"399 385 OFFCURVE",
"273 385 CURVE SMOOTH",
"253 385 LINE",
"276 318 LINE",
"355 318 LINE SMOOTH",
"434 318 OFFCURVE",
"465 274 OFFCURVE",
"465 213 CURVE SMOOTH",
"465 138 OFFCURVE",
"412 94 OFFCURVE",
"331 94 CURVE SMOOTH",
"216 94 OFFCURVE",
"140 175 OFFCURVE",
"103 385 CURVE",
"53 377 LINE",
"94 117 OFFCURVE",
"204 24 OFFCURVE",
"352 24 CURVE SMOOTH"
);
},
{
closed = 1;
nodes = (
"328 846 LINE",
"427 705 LINE",
"466 736 LINE",
"334 917 LINE SMOOTH",
"328 925 OFFCURVE",
"321 929 OFFCURVE",
"312 929 CURVE SMOOTH",
"310 929 LINE SMOOTH",
"301 929 OFFCURVE",
"293 925 OFFCURVE",
"287 917 CURVE",
"153 756 LINE",
"212 703 LINE"
);
}
);
width = 632;
}
);
unicode = 11808;
category = Letter;
},
{
glyphname = vowelAu.dogra;
lastChange = "2019-09-07 12:08:00 +0000";
layers = (
{
background = {
paths = (
{
closed = 1;
nodes = (
"470 24 OFFCURVE",
"546 92 OFFCURVE",
"546 184 CURVE SMOOTH",
"546 258 OFFCURVE",
"499 321 OFFCURVE",
"432 352 CURVE",
"493 385 OFFCURVE",
"532 443 OFFCURVE",
"545 558 CURVE",
"607 558 LINE",
"607 567 LINE",
"575 625 LINE",
"25 625 LINE",
"25 616 LINE",
"57 558 LINE",
"463 558 LINE",
"449 444 OFFCURVE",
"399 385 OFFCURVE",
"273 385 CURVE SMOOTH",
"253 385 LINE",
"276 318 LINE",
"355 318 LINE SMOOTH",
"434 318 OFFCURVE",
"465 274 OFFCURVE",
"465 213 CURVE SMOOTH",
"465 138 OFFCURVE",
"412 94 OFFCURVE",
"331 94 CURVE SMOOTH",
"216 94 OFFCURVE",
"140 175 OFFCURVE",
"103 385 CURVE",
"53 377 LINE",
"94 117 OFFCURVE",
"204 24 OFFCURVE",
"352 24 CURVE SMOOTH"
);
},
{
closed = 1;
nodes = (
"238 835 LINE",
"315 714 LINE",
"331 714 LINE",
"410 836 LINE",
"480 704 LINE",
"522 726 LINE",
"421 914 LINE SMOOTH",
"416 923 OFFCURVE",
"410 927 OFFCURVE",
"401 927 CURVE SMOOTH",
"399 927 LINE SMOOTH",
"389 927 OFFCURVE",
"383 922 OFFCURVE",
"378 914 CURVE SMOOTH",
"308 806 LINE",
"242 912 LINE SMOOTH",
"236 922 OFFCURVE",
"230 927 OFFCURVE",
"220 927 CURVE SMOOTH",
"218 927 LINE SMOOTH",
"209 927 OFFCURVE",
"202 922 OFFCURVE",
"196 913 CURVE SMOOTH",
"89 750 LINE",
"151 703 LINE"
);
}
);
};
layerId = "284FCB4C-24BB-4F0E-B388-CD6C9D45C343";
paths = (
{
closed = 1;
nodes = (
"470 24 OFFCURVE",
"546 92 OFFCURVE",
"546 184 CURVE SMOOTH",
"546 258 OFFCURVE",
"499 321 OFFCURVE",
"432 352 CURVE",
"493 385 OFFCURVE",
"532 443 OFFCURVE",
"545 558 CURVE",
"607 558 LINE",
"607 567 LINE",
"575 625 LINE",
"25 625 LINE",
"25 616 LINE",
"57 558 LINE",
"463 558 LINE",
"449 444 OFFCURVE",
"399 385 OFFCURVE",
"273 385 CURVE SMOOTH",
"253 385 LINE",
"276 318 LINE",
"355 318 LINE SMOOTH",
"434 318 OFFCURVE",
"465 274 OFFCURVE",
"465 213 CURVE SMOOTH",
"465 138 OFFCURVE",
"412 94 OFFCURVE",
"331 94 CURVE SMOOTH",
"216 94 OFFCURVE",
"140 175 OFFCURVE",
"103 385 CURVE",
"53 377 LINE",
"94 117 OFFCURVE",
"204 24 OFFCURVE",
"352 24 CURVE SMOOTH"
);
},
{
closed = 1;
nodes = (
"238 835 LINE",
"315 714 LINE",
"331 714 LINE",
"410 836 LINE",
"480 704 LINE",
"522 726 LINE",
"421 914 LINE SMOOTH",
"416 923 OFFCURVE",
"410 927 OFFCURVE",
"401 927 CURVE SMOOTH",
"399 927 LINE SMOOTH",
"389 927 OFFCURVE",
"383 922 OFFCURVE",
"378 914 CURVE SMOOTH",
"308 806 LINE",
"242 912 LINE SMOOTH",
"236 922 OFFCURVE",
"230 927 OFFCURVE",
"220 927 CURVE SMOOTH",
"218 927 LINE SMOOTH",
"209 927 OFFCURVE",
"202 922 OFFCURVE",
"196 913 CURVE SMOOTH",
"89 750 LINE",
"151 703 LINE"
);
}
);
width = 632;
}
);
unicode = 11809;
category = Letter;
},
{
glyphname = Ka.dogra;
lastChange = "2019-09-07 12:08:02 +0000";
layers = (
{
anchors = (
{
name = bottom1;
position = "{324, -10}";
},
{
name = bottom2;
position = "{300, -30}";
},
{
name = bottom3;
position = "{249, 119}";
},
{
name = top;
position = "{332, 660}";
},
{
name = top2;
position = "{282, 660}";
}
);
background = {
anchors = (
{
name = bottom1;
position = "{324, -10}";
},
{
name = bottom2;
position = "{300, -30}";
},
{
name = bottom3;
position = "{249, 119}";
},
{
name = top;
position = "{332, 660}";
},
{
name = top2;
position = "{282, 660}";
}
);
paths = (
{
closed = 1;
nodes = (
"575 19 LINE",
"547 100 OFFCURVE",
"520 177 OFFCURVE",
"479 251 CURVE",
"517 325 OFFCURVE",
"536 430 OFFCURVE",
"546 558 CURVE",
"617 558 LINE",
"617 567 LINE",
"585 625 LINE",
"25 625 LINE",
"25 616 LINE",
"57 558 LINE",
"465 558 LINE",
"459 480 OFFCURVE",
"448 404 OFFCURVE",
"427 342 CURVE",
"380 404 OFFCURVE",
"315 458 OFFCURVE",
"219 458 CURVE SMOOTH",
"108 458 OFFCURVE",
"51 395 OFFCURVE",
"51 318 CURVE SMOOTH",
"51 206 OFFCURVE",
"179 121 OFFCURVE",
"276 121 CURVE SMOOTH",
"350 121 OFFCURVE",
"405 147 OFFCURVE",
"445 197 CURVE",
"468 141 OFFCURVE",
"492 68 OFFCURVE",
"515 -2 CURVE"
);
},
{
closed = 1;
nodes = (
"178 187 OFFCURVE",
"132 222 OFFCURVE",
"132 289 CURVE SMOOTH",
"132 353 OFFCURVE",
"174 392 OFFCURVE",
"243 392 CURVE SMOOTH",
"313 392 OFFCURVE",
"363 346 OFFCURVE",
"405 290 CURVE",
"371 227 OFFCURVE",
"319 187 OFFCURVE",
"238 187 CURVE SMOOTH"
);
}
);
};
layerId = "284FCB4C-24BB-4F0E-B388-CD6C9D45C343";
paths = (
{
closed = 1;
nodes = (
"575 19 LINE",
"547 100 OFFCURVE",
"520 177 OFFCURVE",
"479 251 CURVE",
"517 325 OFFCURVE",
"536 430 OFFCURVE",
"546 558 CURVE",
"617 558 LINE",
"617 567 LINE",
"585 625 LINE",
"25 625 LINE",
"25 616 LINE",
"57 558 LINE",
"465 558 LINE",
"459 480 OFFCURVE",
"448 404 OFFCURVE",
"427 342 CURVE",
"380 404 OFFCURVE",
"315 458 OFFCURVE",
"219 458 CURVE SMOOTH",
"108 458 OFFCURVE",
"51 395 OFFCURVE",
"51 318 CURVE SMOOTH",
"51 206 OFFCURVE",
"179 121 OFFCURVE",
"276 121 CURVE SMOOTH",
"350 121 OFFCURVE",
"405 147 OFFCURVE",
"445 197 CURVE",
"468 141 OFFCURVE",
"492 68 OFFCURVE",
"515 -2 CURVE"
);
},
{
closed = 1;
nodes = (
"178 187 OFFCURVE",
"132 222 OFFCURVE",
"132 289 CURVE SMOOTH",
"132 353 OFFCURVE",
"174 392 OFFCURVE",
"243 392 CURVE SMOOTH",
"313 392 OFFCURVE",
"363 346 OFFCURVE",
"405 290 CURVE",
"371 227 OFFCURVE",
"319 187 OFFCURVE",
"238 187 CURVE SMOOTH"
);
}
);
width = 642;
}
);
unicode = 1180A;
category = Letter;
},
{
glyphname = Kha.dogra;
lastChange = "2019-09-07 12:08:03 +0000";
layers = (
{
anchors = (
{
name = bottom1;
position = "{603, -50}";
},
{
name = bottom2;
position = "{389, -29}";
},
{
name = bottom3;
position = "{466, 45}";
},
{
name = top;
position = "{392, 660}";
},
{
name = top2;
position = "{271, 660}";
}
);
background = {
anchors = (
{
name = bottom1;
position = "{603, -50}";
},
{
name = bottom2;
position = "{389, -29}";
},
{
name = bottom3;
position = "{466, 45}";
},
{
name = top;
position = "{392, 660}";
},
{
name = top2;
position = "{271, 660}";
}
);
paths = (
{
closed = 1;
nodes = (
"669 -11 LINE",
"657 8 OFFCURVE",
"650 26 OFFCURVE",
"650 55 CURVE SMOOTH",
"650 91 OFFCURVE",
"653 117 OFFCURVE",
"664 191 CURVE SMOOTH",
"678 285 LINE SMOOTH",
"690 364 OFFCURVE",
"697 411 OFFCURVE",
"697 449 CURVE SMOOTH",
"697 531 OFFCURVE",
"606 628 OFFCURVE",
"511 628 CURVE SMOOTH",
"417 628 OFFCURVE",
"361 572 OFFCURVE",
"361 471 CURVE SMOOTH",
"361 425 LINE",
"166 581 LINE",
"161 586 OFFCURVE",
"155 591 OFFCURVE",
"149 595 CURVE",
"148 596 LINE",
"123 613 OFFCURVE",
"91 625 OFFCURVE",
"55 625 CURVE SMOOTH",
"15 625 LINE",
"15 616 LINE",
"47 558 LINE",
"100 558 LINE SMOOTH",
"128 558 OFFCURVE",
"138 545 OFFCURVE",
"138 520 CURVE SMOOTH",
"138 499 OFFCURVE",
"135 475 OFFCURVE",
"128 435 CURVE SMOOTH",
"121 394 LINE SMOOTH",
"114 355 OFFCURVE",
"111 334 OFFCURVE",
"111 305 CURVE SMOOTH",
"111 218 OFFCURVE",
"209 130 OFFCURVE",
"299 130 CURVE SMOOTH",
"397 130 OFFCURVE",
"440 192 OFFCURVE",
"440 296 CURVE",
"579 182 LINE",
"571 130 OFFCURVE",
"568 109 OFFCURVE",
"568 83 CURVE SMOOTH",
"568 39 OFFCURVE",
"603 7 OFFCURVE",
"657 -21 CURVE"
);
},
{
closed = 1;
nodes = (
"222 195 OFFCURVE",
"190 217 OFFCURVE",
"190 281 CURVE SMOOTH",
"190 312 OFFCURVE",
"192 332 OFFCURVE",
"199 376 CURVE SMOOTH",
"205 415 LINE SMOOTH",
"210 443 OFFCURVE",
"212 465 OFFCURVE",
"214 481 CURVE",
"361 363 LINE",
"361 346 LINE SMOOTH",
"361 240 OFFCURVE",
"335 195 OFFCURVE",
"264 195 CURVE SMOOTH"
);
},
{
closed = 1;
nodes = (
"440 360 LINE",
"440 442 LINE SMOOTH",
"440 521 OFFCURVE",
"478 563 OFFCURVE",
"544 563 CURVE SMOOTH",
"592 563 OFFCURVE",
"617 532 OFFCURVE",
"617 479 CURVE SMOOTH",
"617 432 OFFCURVE",
"609 380 OFFCURVE",
"600 321 CURVE SMOOTH",
"587 238 LINE"
);
}
);
};
layerId = "284FCB4C-24BB-4F0E-B388-CD6C9D45C343";
paths = (
{
closed = 1;
nodes = (
"669 -11 LINE",
"657 8 OFFCURVE",
"650 26 OFFCURVE",
"650 55 CURVE SMOOTH",
"650 91 OFFCURVE",
"653 117 OFFCURVE",
"664 191 CURVE SMOOTH",
"678 285 LINE SMOOTH",
"690 364 OFFCURVE",
"697 411 OFFCURVE",
"697 449 CURVE SMOOTH",
"697 531 OFFCURVE",
"606 628 OFFCURVE",
"511 628 CURVE SMOOTH",
"417 628 OFFCURVE",
"361 572 OFFCURVE",
"361 471 CURVE SMOOTH",
"361 425 LINE",
"166 581 LINE",
"161 586 OFFCURVE",
"155 591 OFFCURVE",
"149 595 CURVE",
"148 596 LINE",
"123 613 OFFCURVE",
"91 625 OFFCURVE",
"55 625 CURVE SMOOTH",
"15 625 LINE",
"15 616 LINE",
"47 558 LINE",
"100 558 LINE SMOOTH",
"128 558 OFFCURVE",
"138 545 OFFCURVE",
"138 520 CURVE SMOOTH",
"138 499 OFFCURVE",
"135 475 OFFCURVE",
"128 435 CURVE SMOOTH",
"121 394 LINE SMOOTH",
"114 355 OFFCURVE",
"111 334 OFFCURVE",
"111 305 CURVE SMOOTH",
"111 218 OFFCURVE",
"209 130 OFFCURVE",
"299 130 CURVE SMOOTH",
"397 130 OFFCURVE",
"440 192 OFFCURVE",
"440 296 CURVE",
"579 182 LINE",
"571 130 OFFCURVE",
"568 109 OFFCURVE",
"568 83 CURVE SMOOTH",
"568 39 OFFCURVE",
"603 7 OFFCURVE",
"657 -21 CURVE"
);
},
{
closed = 1;
nodes = (
"222 195 OFFCURVE",
"190 217 OFFCURVE",
"190 281 CURVE SMOOTH",
"190 312 OFFCURVE",
"192 332 OFFCURVE",
"199 376 CURVE SMOOTH",
"205 415 LINE SMOOTH",
"210 443 OFFCURVE",
"212 465 OFFCURVE",
"214 481 CURVE",
"361 363 LINE",
"361 346 LINE SMOOTH",
"361 240 OFFCURVE",
"335 195 OFFCURVE",
"264 195 CURVE SMOOTH"
);
},
{
closed = 1;
nodes = (
"440 360 LINE",
"440 442 LINE SMOOTH",
"440 521 OFFCURVE",
"478 563 OFFCURVE",
"544 563 CURVE SMOOTH",
"592 563 OFFCURVE",
"617 532 OFFCURVE",
"617 479 CURVE SMOOTH",
"617 432 OFFCURVE",
"609 380 OFFCURVE",
"600 321 CURVE SMOOTH",
"587 238 LINE"
);
}
);
width = 776;
}
);
unicode = 1180B;
category = Letter;
},
{
glyphname = Ga.dogra;
lastChange = "2019-09-07 12:08:04 +0000";
layers = (
{
anchors = (
{
name = bottom1;
position = "{464, -50}";
},
{
name = bottom2;
position = "{329, -50}";
},
{
name = bottom3;
position = "{300, 56}";
},
{
name = top;
position = "{323, 660}";
},
{
name = top2;
position = "{282, 660}";
}
);
background = {
anchors = (
{
name = bottom1;
position = "{464, -50}";
},
{
name = bottom2;
position = "{329, -50}";
},
{
name = bottom3;
position = "{300, 56}";
},
{
name = top;
position = "{323, 660}";
},
{
name = top2;
position = "{282, 660}";
}
);
paths = (
{
closed = 1;
nodes = (
"503 -4 LINE",
"503 558 LINE",
"581 558 LINE",
"581 567 LINE",
"549 625 LINE",
"25 625 LINE",
"25 616 LINE",
"57 558 LINE",
"142 558 LINE",
"142 236 LINE",
"127 231 LINE SMOOTH",
"84 215 OFFCURVE",
"65 191 OFFCURVE",
"65 155 CURVE SMOOTH",
"65 98 OFFCURVE",
"122 45 OFFCURVE",
"167 45 CURVE SMOOTH",
"200 45 OFFCURVE",
"220 61 OFFCURVE",
"220 98 CURVE SMOOTH",
"220 558 LINE",
"425 558 LINE",
"425 30 LINE",
"494 -4 LINE"
);
}
);
};
layerId = "284FCB4C-24BB-4F0E-B388-CD6C9D45C343";
paths = (
{
closed = 1;
nodes = (
"503 -4 LINE",
"503 558 LINE",
"581 558 LINE",
"581 567 LINE",
"549 625 LINE",
"25 625 LINE",
"25 616 LINE",
"57 558 LINE",
"142 558 LINE",
"142 236 LINE",
"127 231 LINE SMOOTH",
"84 215 OFFCURVE",
"65 191 OFFCURVE",
"65 155 CURVE SMOOTH",
"65 98 OFFCURVE",
"122 45 OFFCURVE",
"167 45 CURVE SMOOTH",
"200 45 OFFCURVE",
"220 61 OFFCURVE",
"220 98 CURVE SMOOTH",
"220 558 LINE",
"425 558 LINE",
"425 30 LINE",
"494 -4 LINE"
);
}
);
width = 606;
}
);
unicode = 1180C;
category = Letter;
},
{
glyphname = Gha.dogra;
lastChange = "2019-09-07 12:08:06 +0000";
layers = (
{
anchors = (
{
name = bottom1;
position = "{621, -50}";
},
{
name = bottom2;
position = "{390, -30}";
},
{
name = bottom3;
position = "{457, 56}";
},
{
name = top;
position = "{384, 660}";
},
{
name = top2;
position = "{282, 660}";
}
);
background = {
anchors = (
{
name = bottom1;
position = "{621, -50}";
},
{
name = bottom2;
position = "{390, -30}";
},
{
name = bottom3;
position = "{457, 56}";
},
{
name = top;
position = "{384, 660}";
},
{
name = top2;
position = "{282, 660}";
}
);
paths = (
{
closed = 1;
nodes = (
"660 -7 LINE",
"660 558 LINE",
"738 558 LINE",
"738 567 LINE",
"706 625 LINE",
"489 625 LINE",
"489 616 LINE",
"521 558 LINE",
"582 558 LINE",
"582 330 LINE",
"570 284 OFFCURVE",
"534 260 OFFCURVE",
"484 260 CURVE SMOOTH",
"444 260 OFFCURVE",
"413 282 OFFCURVE",
"413 324 CURVE SMOOTH",
"413 385 LINE",
"344 419 LINE",
"335 419 LINE",
"335 382 LINE SMOOTH",
"335 294 OFFCURVE",
"296 260 OFFCURVE",
"240 260 CURVE SMOOTH",
"197 260 OFFCURVE",
"166 283 OFFCURVE",
"166 327 CURVE SMOOTH",
"166 558 LINE",
"244 558 LINE",
"244 567 LINE",
"212 625 LINE",
"25 625 LINE",
"25 616 LINE",
"57 558 LINE",
"88 558 LINE",
"88 357 LINE SMOOTH",
"88 266 OFFCURVE",
"190 195 OFFCURVE",
"271 195 CURVE SMOOTH",
"326 195 OFFCURVE",
"365 221 OFFCURVE",
"386 260 CURVE",
"415 221 OFFCURVE",
"461 195 OFFCURVE",
"507 195 CURVE SMOOTH",
"540 195 OFFCURVE",
"564 201 OFFCURVE",
"582 215 CURVE",
"582 27 LINE",
"651 -7 LINE"
);
}
);
};
layerId = "284FCB4C-24BB-4F0E-B388-CD6C9D45C343";
paths = (
{
closed = 1;
nodes = (
"660 -7 LINE",
"660 558 LINE",
"738 558 LINE",
"738 567 LINE",
"706 625 LINE",
"489 625 LINE",
"489 616 LINE",
"521 558 LINE",
"582 558 LINE",
"582 330 LINE",
"570 284 OFFCURVE",
"534 260 OFFCURVE",
"484 260 CURVE SMOOTH",
"444 260 OFFCURVE",
"413 282 OFFCURVE",
"413 324 CURVE SMOOTH",
"413 385 LINE",
"344 419 LINE",
"335 419 LINE",
"335 382 LINE SMOOTH",
"335 294 OFFCURVE",
"296 260 OFFCURVE",
"240 260 CURVE SMOOTH",
"197 260 OFFCURVE",
"166 283 OFFCURVE",
"166 327 CURVE SMOOTH",
"166 558 LINE",
"244 558 LINE",
"244 567 LINE",
"212 625 LINE",
"25 625 LINE",
"25 616 LINE",
"57 558 LINE",
"88 558 LINE",
"88 357 LINE SMOOTH",
"88 266 OFFCURVE",
"190 195 OFFCURVE",
"271 195 CURVE SMOOTH",
"326 195 OFFCURVE",
"365 221 OFFCURVE",
"386 260 CURVE",
"415 221 OFFCURVE",
"461 195 OFFCURVE",
"507 195 CURVE SMOOTH",
"540 195 OFFCURVE",
"564 201 OFFCURVE",
"582 215 CURVE",
"582 27 LINE",
"651 -7 LINE"
);
}
);
width = 763;
}
);
unicode = 1180D;
category = Letter;
},
{
glyphname = Nga.dogra;
lastChange = "2019-09-07 12:08:08 +0000";
layers = (
{
anchors = (
{
name = bottom1;
position = "{379, -50}";
},
{
name = bottom2;
position = "{358, -30}";
},
{
name = bottom3;
position = "{354, 30}";
},
{
name = top;
position = "{361, 660}";
},
{
name = top2;
position = "{271, 660}";
}
);
background = {
anchors = (
{
name = bottom1;
position = "{379, -50}";
},
{
name = bottom2;
position = "{358, -30}";
},
{
name = bottom3;
position = "{354, 30}";
},
{
name = top;
position = "{361, 660}";
},
{
name = top2;
position = "{271, 660}";
}
);
paths = (
{
closed = 1;
nodes = (
"392 46 LINE",
"288 142 LINE SMOOTH",
"239 188 OFFCURVE",
"204 219 OFFCURVE",
"171 243 CURVE",
"189 258 OFFCURVE",
"205 273 OFFCURVE",
"219 289 CURVE",
"294 277 OFFCURVE",
"367 243 OFFCURVE",
"461 191 CURVE",
"470 196 LINE",
"477 300 LINE SMOOTH",
"487 464 OFFCURVE",
"546 530 OFFCURVE",
"635 564 CURVE",
"635 572 LINE",
"589 625 LINE",
"498 594 OFFCURVE",
"416 523 OFFCURVE",
"399 337 CURVE SMOOTH",
"393 277 LINE",
"352 300 OFFCURVE",
"300 323 OFFCURVE",
"255 336 CURVE",
"278 372 OFFCURVE",
"291 412 OFFCURVE",
"291 456 CURVE SMOOTH",
"291 531 OFFCURVE",
"202 625 OFFCURVE",
"107 625 CURVE SMOOTH",
"30 625 LINE",
"30 616 LINE",
"62 558 LINE",
"142 558 LINE SMOOTH",
"192 558 OFFCURVE",
"211 530 OFFCURVE",
"211 486 CURVE SMOOTH",
"211 377 OFFCURVE",
"145 318 OFFCURVE",
"46 256 CURVE",
"83 197 LINE",
"92 199 LINE SMOOTH",
"100 201 OFFCURVE",
"110 203 OFFCURVE",
"124 203 CURVE SMOOTH",
"152 203 OFFCURVE",
"174 181 OFFCURVE",
"237 116 CURVE SMOOTH",
"351 0 LINE"
);
},
{
closed = 1;
nodes = (
"679 260 OFFCURVE",
"701 285 OFFCURVE",
"701 319 CURVE SMOOTH",
"701 354 OFFCURVE",
"679 378 OFFCURVE",
"644 378 CURVE SMOOTH",
"609 378 OFFCURVE",
"586 354 OFFCURVE",
"586 319 CURVE SMOOTH",
"586 285 OFFCURVE",
"609 260 OFFCURVE",
"644 260 CURVE SMOOTH"
);
}
);
};
layerId = "284FCB4C-24BB-4F0E-B388-CD6C9D45C343";
paths = (
{
closed = 1;
nodes = (
"392 46 LINE",
"288 142 LINE SMOOTH",
"239 188 OFFCURVE",
"204 219 OFFCURVE",
"171 243 CURVE",
"189 258 OFFCURVE",
"205 273 OFFCURVE",
"219 289 CURVE",
"294 277 OFFCURVE",
"367 243 OFFCURVE",
"461 191 CURVE",
"470 196 LINE",
"477 300 LINE SMOOTH",
"487 464 OFFCURVE",
"546 530 OFFCURVE",
"635 564 CURVE",
"635 572 LINE",
"589 625 LINE",
"498 594 OFFCURVE",
"416 523 OFFCURVE",
"399 337 CURVE SMOOTH",
"393 277 LINE",
"352 300 OFFCURVE",
"300 323 OFFCURVE",
"255 336 CURVE",
"278 372 OFFCURVE",
"291 412 OFFCURVE",
"291 456 CURVE SMOOTH",
"291 531 OFFCURVE",
"202 625 OFFCURVE",
"107 625 CURVE SMOOTH",
"30 625 LINE",
"30 616 LINE",
"62 558 LINE",
"142 558 LINE SMOOTH",
"192 558 OFFCURVE",
"211 530 OFFCURVE",
"211 486 CURVE SMOOTH",
"211 377 OFFCURVE",
"145 318 OFFCURVE",
"46 256 CURVE",
"83 197 LINE",
"92 199 LINE SMOOTH",
"100 201 OFFCURVE",
"110 203 OFFCURVE",
"124 203 CURVE SMOOTH",
"152 203 OFFCURVE",
"174 181 OFFCURVE",
"237 116 CURVE SMOOTH",
"351 0 LINE"
);
},
{
closed = 1;
nodes = (
"679 260 OFFCURVE",
"701 285 OFFCURVE",
"701 319 CURVE SMOOTH",
"701 354 OFFCURVE",
"679 378 OFFCURVE",
"644 378 CURVE SMOOTH",
"609 378 OFFCURVE",
"586 354 OFFCURVE",
"586 319 CURVE SMOOTH",
"586 285 OFFCURVE",
"609 260 OFFCURVE",
"644 260 CURVE SMOOTH"
);
}
);
width = 716;
}
);
unicode = 1180E;
category = Letter;
},
{
glyphname = Ca.dogra;
lastChange = "2019-09-07 12:07:09 +0000";
layers = (
{
anchors = (
{
name = bottom1;
position = "{424, -50}";
},
{
name = bottom2;
position = "{352, -50}";
},
{
name = bottom3;
position = "{382, 56}";
},
{
name = top;
position = "{352, 660}";
},
{
name = top2;
position = "{282, 660}";
}
);
background = {
anchors = (
{
name = bottom1;
position = "{424, -50}";
},
{
name = bottom2;
position = "{352, -50}";
},
{
name = bottom3;
position = "{382, 56}";
},
{
name = top;
position = "{352, 660}";
},
{
name = top2;
position = "{282, 660}";
}
);
paths = (
{
closed = 1;
nodes = (
"508 24 OFFCURVE",
"558 77 OFFCURVE",
"558 177 CURVE SMOOTH",
"558 558 LINE",
"632 558 LINE",
"632 567 LINE",
"600 625 LINE",
"25 625 LINE",
"25 616 LINE",
"57 558 LINE",
"152 558 LINE",
"152 304 LINE SMOOTH",
"152 278 OFFCURVE",
"151 256 OFFCURVE",
"149 236 CURVE",
"141 239 OFFCURVE",
"132 240 OFFCURVE",
"122 240 CURVE SMOOTH",
"82 240 OFFCURVE",
"55 215 OFFCURVE",
"55 173 CURVE SMOOTH",
"55 111 OFFCURVE",
"102 63 OFFCURVE",
"150 63 CURVE SMOOTH",
"182 63 OFFCURVE",
"207 86 OFFCURVE",
"217 126 CURVE",
"290 59 OFFCURVE",
"346 24 OFFCURVE",
"414 24 CURVE SMOOTH"
);
},
{
closed = 1;
nodes = (
"333 90 OFFCURVE",
"284 124 OFFCURVE",
"225 184 CURVE",
"229 211 OFFCURVE",
"230 244 OFFCURVE",
"230 284 CURVE SMOOTH",
"230 558 LINE",
"480 558 LINE",
"480 198 LINE SMOOTH",
"480 125 OFFCURVE",
"448 90 OFFCURVE",
"393 90 CURVE SMOOTH"
);
}
);
};
layerId = "284FCB4C-24BB-4F0E-B388-CD6C9D45C343";
paths = (
{
closed = 1;
nodes = (
"508 24 OFFCURVE",
"558 77 OFFCURVE",
"558 177 CURVE SMOOTH",
"558 558 LINE",
"632 558 LINE",
"632 567 LINE",
"600 625 LINE",
"25 625 LINE",
"25 616 LINE",
"57 558 LINE",
"152 558 LINE",
"152 304 LINE SMOOTH",
"152 278 OFFCURVE",
"151 256 OFFCURVE",
"149 236 CURVE",
"141 239 OFFCURVE",
"132 240 OFFCURVE",
"122 240 CURVE SMOOTH",
"82 240 OFFCURVE",
"55 215 OFFCURVE",
"55 173 CURVE SMOOTH",
"55 111 OFFCURVE",
"102 63 OFFCURVE",
"150 63 CURVE SMOOTH",
"182 63 OFFCURVE",
"207 86 OFFCURVE",
"217 126 CURVE",
"290 59 OFFCURVE",
"346 24 OFFCURVE",
"414 24 CURVE SMOOTH"
);
},
{
closed = 1;
nodes = (
"333 90 OFFCURVE",
"284 124 OFFCURVE",
"225 184 CURVE",
"229 211 OFFCURVE",
"230 244 OFFCURVE",
"230 284 CURVE SMOOTH",
"230 558 LINE",
"480 558 LINE",
"480 198 LINE SMOOTH",
"480 125 OFFCURVE",
"448 90 OFFCURVE",
"393 90 CURVE SMOOTH"
);
}
);
width = 657;
}
);
unicode = 1180F;
category = Letter;
},
{
glyphname = Cha.dogra;
lastChange = "2019-09-07 12:08:12 +0000";
layers = (
{
anchors = (
{
name = bottom1;
position = "{504, -50}";
},
{
name = bottom2;
position = "{365, -30}";
},
{
name = bottom3;
position = "{353, 45}";
},
{
name = top;
position = "{374, 660}";
},
{
name = top2;
position = "{282, 660}";
}
);
background = {
anchors = (
{
name = bottom1;
position = "{504, -50}";
},
{
name = bottom2;
position = "{365, -30}";
},
{
name = bottom3;
position = "{353, 45}";
},
{
name = top;
position = "{374, 660}";
},
{
name = top2;
position = "{282, 660}";
}
);
paths = (
{
closed = 1;
nodes = (
"556 -11 LINE",
"547 6 OFFCURVE",
"542 22 OFFCURVE",
"542 41 CURVE SMOOTH",
"542 67 OFFCURVE",
"547 87 OFFCURVE",
"573 142 CURVE SMOOTH",
"588 173 LINE SMOOTH",
"604 206 OFFCURVE",
"619 242 OFFCURVE",
"619 281 CURVE SMOOTH",
"619 368 OFFCURVE",
"528 448 OFFCURVE",
"413 468 CURVE",
"413 558 LINE",
"674 558 LINE",
"674 567 LINE",
"642 625 LINE",
"25 625 LINE",
"25 616 LINE",
"57 558 LINE",
"335 558 LINE",
"335 474 LINE",
"308 474 LINE SMOOTH",
"136 474 OFFCURVE",
"56 413 OFFCURVE",
"56 319 CURVE SMOOTH",
"56 213 OFFCURVE",
"177 131 OFFCURVE",
"262 131 CURVE SMOOTH",
"360 131 OFFCURVE",
"413 187 OFFCURVE",
"413 298 CURVE SMOOTH",
"413 404 LINE",
"514 396 OFFCURVE",
"542 366 OFFCURVE",
"542 309 CURVE SMOOTH",
"542 279 OFFCURVE",
"535 256 OFFCURVE",
"512 208 CURVE SMOOTH",
"497 177 LINE SMOOTH",
"480 142 OFFCURVE",
"464 110 OFFCURVE",
"464 79 CURVE SMOOTH",
"464 39 OFFCURVE",
"500 5 OFFCURVE",
"543 -21 CURVE"
);
},
{
closed = 1;
nodes = (
"182 195 OFFCURVE",
"136 224 OFFCURVE",
"136 288 CURVE SMOOTH",
"136 360 OFFCURVE",
"196 407 OFFCURVE",
"311 407 CURVE SMOOTH",
"335 407 LINE",
"335 316 LINE SMOOTH",
"335 246 OFFCURVE",
"304 195 OFFCURVE",
"230 195 CURVE SMOOTH"
);
}
);
};
layerId = "284FCB4C-24BB-4F0E-B388-CD6C9D45C343";
paths = (
{
closed = 1;
nodes = (
"556 -11 LINE",
"547 6 OFFCURVE",
"542 22 OFFCURVE",
"542 41 CURVE SMOOTH",
"542 67 OFFCURVE",
"547 87 OFFCURVE",
"573 142 CURVE SMOOTH",
"588 173 LINE SMOOTH",
"604 206 OFFCURVE",
"619 242 OFFCURVE",
"619 281 CURVE SMOOTH",
"619 368 OFFCURVE",
"528 448 OFFCURVE",
"413 468 CURVE",
"413 558 LINE",
"674 558 LINE",
"674 567 LINE",
"642 625 LINE",
"25 625 LINE",
"25 616 LINE",
"57 558 LINE",
"335 558 LINE",
"335 474 LINE",
"308 474 LINE SMOOTH",
"136 474 OFFCURVE",
"56 413 OFFCURVE",
"56 319 CURVE SMOOTH",
"56 213 OFFCURVE",
"177 131 OFFCURVE",
"262 131 CURVE SMOOTH",
"360 131 OFFCURVE",
"413 187 OFFCURVE",
"413 298 CURVE SMOOTH",
"413 404 LINE",
"514 396 OFFCURVE",
"542 366 OFFCURVE",
"542 309 CURVE SMOOTH",
"542 279 OFFCURVE",
"535 256 OFFCURVE",
"512 208 CURVE SMOOTH",
"497 177 LINE SMOOTH",
"480 142 OFFCURVE",
"464 110 OFFCURVE",
"464 79 CURVE SMOOTH",
"464 39 OFFCURVE",
"500 5 OFFCURVE",
"543 -21 CURVE"
);
},
{
closed = 1;
nodes = (
"182 195 OFFCURVE",
"136 224 OFFCURVE",
"136 288 CURVE SMOOTH",
"136 360 OFFCURVE",
"196 407 OFFCURVE",
"311 407 CURVE SMOOTH",
"335 407 LINE",
"335 316 LINE SMOOTH",
"335 246 OFFCURVE",
"304 195 OFFCURVE",
"230 195 CURVE SMOOTH"
);
}
);
width = 699;
}
);
unicode = 11810;
category = Letter;
},
{
glyphname = Ja.dogra;
lastChange = "2019-09-07 12:07:09 +0000";
layers = (
{
anchors = (
{
name = _bottom3;
position = "{453, 272}";
},
{
name = bottom1;
position = "{280, -50}";
},
{
name = bottom2;
position = "{300, -70}";
},
{
name = bottom3;
position = "{319, 82}";
},
{
name = top;
position = "{299, 660}";
},
{
name = top2;
position = "{282, 660}";
}
);
background = {
anchors = (
{
name = _bottom3;
position = "{453, 272}";
},
{
name = bottom1;
position = "{280, -50}";
},
{
name = bottom2;
position = "{300, -70}";
},
{
name = bottom3;
position = "{319, 82}";
},
{
name = top;
position = "{299, 660}";
},
{
name = top2;
position = "{282, 660}";
}
);
paths = (
{
closed = 1;
nodes = (
"276 -11 LINE",
"266 9 OFFCURVE",
"261 28 OFFCURVE",
"261 49 CURVE SMOOTH",
"261 73 OFFCURVE",
"265 98 OFFCURVE",
"276 128 CURVE SMOOTH",
"290 166 LINE SMOOTH",
"303 200 OFFCURVE",
"312 232 OFFCURVE",
"312 259 CURVE SMOOTH",
"312 305 OFFCURVE",
"285 332 OFFCURVE",
"234 360 CURVE",
"241 365 OFFCURVE",
"247 371 OFFCURVE",
"253 377 CURVE",
"285 384 OFFCURVE",
"325 390 OFFCURVE",
"359 390 CURVE SMOOTH",
"424 390 OFFCURVE",
"448 363 OFFCURVE",
"448 303 CURVE SMOOTH",
"448 288 OFFCURVE",
"445 261 OFFCURVE",
"442 237 CURVE SMOOTH",
"436 193 LINE SMOOTH",
"432 165 OFFCURVE",
"427 140 OFFCURVE",
"427 122 CURVE SMOOTH",
"427 79 OFFCURVE",
"452 52 OFFCURVE",
"510 16 CURVE",
"522 26 LINE",
"513 40 OFFCURVE",
"507 57 OFFCURVE",
"507 85 CURVE SMOOTH",
"507 111 OFFCURVE",
"509 128 OFFCURVE",
"513 158 CURVE SMOOTH",
"521 216 LINE SMOOTH",
"525 246 OFFCURVE",
"527 270 OFFCURVE",
"527 286 CURVE SMOOTH",
"527 364 OFFCURVE",
"423 460 OFFCURVE",
"325 460 CURVE SMOOTH",
"308 460 LINE",
"318 486 OFFCURVE",
"327 519 OFFCURVE",
"333 558 CURVE",
"568 558 LINE",
"568 567 LINE",
"536 625 LINE",
"25 625 LINE",
"25 616 LINE",
"57 558 LINE",
"248 558 LINE",
"234 443 OFFCURVE",
"152 385 OFFCURVE",
"54 337 CURVE",
"92 271 LINE",
"146 301 LINE SMOOTH",
"169 314 OFFCURVE",
"187 318 OFFCURVE",
"200 318 CURVE SMOOTH",
"220 318 OFFCURVE",
"236 302 OFFCURVE",
"236 275 CURVE SMOOTH",
"236 256 OFFCURVE",
"224 224 OFFCURVE",
"209 186 CURVE SMOOTH",
"198 158 LINE SMOOTH",
"190 138 OFFCURVE",
"183 114 OFFCURVE",
"183 94 CURVE SMOOTH",
"183 48 OFFCURVE",
"209 17 OFFCURVE",
"263 -21 CURVE"
);
}
);
};
layerId = "284FCB4C-24BB-4F0E-B388-CD6C9D45C343";
paths = (
{
closed = 1;
nodes = (
"276 -11 LINE",
"266 9 OFFCURVE",
"261 28 OFFCURVE",
"261 49 CURVE SMOOTH",
"261 73 OFFCURVE",
"265 98 OFFCURVE",
"276 128 CURVE SMOOTH",
"290 166 LINE SMOOTH",
"303 200 OFFCURVE",
"312 232 OFFCURVE",
"312 259 CURVE SMOOTH",
"312 305 OFFCURVE",
"285 332 OFFCURVE",
"234 360 CURVE",
"241 365 OFFCURVE",
"247 371 OFFCURVE",
"253 377 CURVE",
"285 384 OFFCURVE",
"325 390 OFFCURVE",
"359 390 CURVE SMOOTH",
"424 390 OFFCURVE",
"448 363 OFFCURVE",
"448 303 CURVE SMOOTH",
"448 288 OFFCURVE",
"445 261 OFFCURVE",
"442 237 CURVE SMOOTH",
"436 193 LINE SMOOTH",
"432 165 OFFCURVE",
"427 140 OFFCURVE",
"427 122 CURVE SMOOTH",
"427 79 OFFCURVE",
"452 52 OFFCURVE",
"510 16 CURVE",
"522 26 LINE",
"513 40 OFFCURVE",
"507 57 OFFCURVE",
"507 85 CURVE SMOOTH",
"507 111 OFFCURVE",
"509 128 OFFCURVE",
"513 158 CURVE SMOOTH",
"521 216 LINE SMOOTH",
"525 246 OFFCURVE",
"527 270 OFFCURVE",
"527 286 CURVE SMOOTH",
"527 364 OFFCURVE",
"423 460 OFFCURVE",
"325 460 CURVE SMOOTH",
"308 460 LINE",
"318 486 OFFCURVE",
"327 519 OFFCURVE",
"333 558 CURVE",
"568 558 LINE",
"568 567 LINE",
"536 625 LINE",
"25 625 LINE",
"25 616 LINE",
"57 558 LINE",
"248 558 LINE",
"234 443 OFFCURVE",
"152 385 OFFCURVE",
"54 337 CURVE",
"92 271 LINE",
"146 301 LINE SMOOTH",
"169 314 OFFCURVE",
"187 318 OFFCURVE",
"200 318 CURVE SMOOTH",
"220 318 OFFCURVE",
"236 302 OFFCURVE",
"236 275 CURVE SMOOTH",
"236 256 OFFCURVE",
"224 224 OFFCURVE",
"209 186 CURVE SMOOTH",
"198 158 LINE SMOOTH",
"190 138 OFFCURVE",
"183 114 OFFCURVE",
"183 94 CURVE SMOOTH",
"183 48 OFFCURVE",
"209 17 OFFCURVE",
"263 -21 CURVE"
);
}
);
width = 591;
}
);
unicode = 11811;
category = Letter;
},
{
glyphname = Jha.dogra;
lastChange = "2019-09-07 12:08:16 +0000";
layers = (
{
anchors = (
{
name = bottom1;
position = "{564, -50}";
},
{
name = bottom2;
position = "{438, -50}";
},
{
name = bottom3;
position = "{557, 56}";
},
{
name = top;
position = "{434, 660}";
},
{
name = top2;
position = "{282, 660}";
}
);
background = {
anchors = (
{
name = bottom1;
position = "{564, -50}";
},
{
name = bottom2;
position = "{438, -50}";
},
{
name = bottom3;
position = "{557, 56}";
},
{
name = top;
position = "{434, 660}";
},
{
name = top2;
position = "{282, 660}";
}
);
paths = (
{
closed = 1;
nodes = (
"673 24 OFFCURVE",
"731 79 OFFCURVE",
"731 178 CURVE SMOOTH",
"731 558 LINE",
"805 558 LINE",
"805 567 LINE",
"773 625 LINE",
"25 625 LINE",
"25 616 LINE",
"57 558 LINE",
"142 558 LINE",
"142 236 LINE",
"127 231 LINE SMOOTH",
"84 215 OFFCURVE",
"65 191 OFFCURVE",
"65 155 CURVE SMOOTH",
"65 98 OFFCURVE",
"122 45 OFFCURVE",
"167 45 CURVE SMOOTH",
"200 45 OFFCURVE",
"220 61 OFFCURVE",
"220 98 CURVE SMOOTH",
"220 558 LINE",
"393 558 LINE",
"393 190 LINE SMOOTH",
"393 96 OFFCURVE",
"489 24 OFFCURVE",
"579 24 CURVE SMOOTH"
);
},
{
closed = 1;
nodes = (
"505 88 OFFCURVE",
"471 112 OFFCURVE",
"471 166 CURVE SMOOTH",
"471 558 LINE",
"653 558 LINE",
"653 208 LINE SMOOTH",
"653 127 OFFCURVE",
"619 88 OFFCURVE",
"551 88 CURVE SMOOTH"
);
}
);
};
layerId = "284FCB4C-24BB-4F0E-B388-CD6C9D45C343";
paths = (
{
closed = 1;
nodes = (
"673 24 OFFCURVE",
"731 79 OFFCURVE",
"731 178 CURVE SMOOTH",
"731 558 LINE",
"805 558 LINE",
"805 567 LINE",
"773 625 LINE",
"25 625 LINE",
"25 616 LINE",
"57 558 LINE",
"142 558 LINE",
"142 236 LINE",
"127 231 LINE SMOOTH",
"84 215 OFFCURVE",
"65 191 OFFCURVE",
"65 155 CURVE SMOOTH",
"65 98 OFFCURVE",
"122 45 OFFCURVE",
"167 45 CURVE SMOOTH",
"200 45 OFFCURVE",
"220 61 OFFCURVE",
"220 98 CURVE SMOOTH",
"220 558 LINE",
"393 558 LINE",
"393 190 LINE SMOOTH",
"393 96 OFFCURVE",
"489 24 OFFCURVE",
"579 24 CURVE SMOOTH"
);
},
{
closed = 1;
nodes = (
"505 88 OFFCURVE",
"471 112 OFFCURVE",
"471 166 CURVE SMOOTH",
"471 558 LINE",
"653 558 LINE",
"653 208 LINE SMOOTH",
"653 127 OFFCURVE",
"619 88 OFFCURVE",
"551 88 CURVE SMOOTH"
);
}
);
width = 830;
}
);
unicode = 11812;
category = Letter;
},
{
glyphname = Nya.dogra;
lastChange = "2019-09-07 12:07:09 +0000";
layers = (
{
anchors = (
{
name = bottom1;
position = "{651, -50}";
},
{
name = bottom2;
position = "{421, -30}";
},
{
name = bottom3;
position = "{506, 45}";
},
{
name = top;
position = "{406, 660}";
},
{
name = top2;
position = "{282, 660}";
}
);
background = {
anchors = (
{
name = bottom1;
position = "{651, -50}";
},
{
name = bottom2;
position = "{421, -30}";
},
{
name = bottom3;
position = "{506, 45}";
},
{
name = top;
position = "{406, 660}";
},
{
name = top2;
position = "{282, 660}";
}
);
paths = (
{
closed = 1;
nodes = (
"709 -11 LINE",
"701 7 OFFCURVE",
"697 21 OFFCURVE",
"697 51 CURVE SMOOTH",
"697 74 OFFCURVE",
"698 97 OFFCURVE",
"700 119 CURVE SMOOTH",
"704 169 LINE SMOOTH",
"706 192 OFFCURVE",
"708 219 OFFCURVE",
"708 232 CURVE SMOOTH",
"708 323 OFFCURVE",
"602 410 OFFCURVE",
"516 410 CURVE SMOOTH",
"484 410 OFFCURVE",
"459 401 OFFCURVE",
"439 388 CURVE",
"439 558 LINE",
"777 558 LINE",
"777 567 LINE",
"745 625 LINE",
"25 625 LINE",
"25 616 LINE",
"57 558 LINE",
"103 558 LINE",
"103 30 LINE",
"172 -4 LINE",
"181 -4 LINE",
"181 558 LINE",
"361 558 LINE",
"361 134 LINE",
"429 100 LINE",
"439 100 LINE",
"439 283 LINE",
"465 321 OFFCURVE",
"500 347 OFFCURVE",
"547 347 CURVE SMOOTH",
"598 347 OFFCURVE",
"628 317 OFFCURVE",
"628 262 CURVE SMOOTH",
"628 246 OFFCURVE",
"626 220 OFFCURVE",
"624 194 CURVE SMOOTH",
"621 156 LINE SMOOTH",
"618 122 OFFCURVE",
"616 94 OFFCURVE",
"616 81 CURVE SMOOTH",
"616 33 OFFCURVE",
"659 4 OFFCURVE",
"700 -20 CURVE"
);
}
);
};
layerId = "284FCB4C-24BB-4F0E-B388-CD6C9D45C343";
paths = (
{
closed = 1;
nodes = (
"709 -11 LINE",
"701 7 OFFCURVE",
"697 21 OFFCURVE",
"697 51 CURVE SMOOTH",
"697 74 OFFCURVE",
"698 97 OFFCURVE",
"700 119 CURVE SMOOTH",
"704 169 LINE SMOOTH",
"706 192 OFFCURVE",
"708 219 OFFCURVE",
"708 232 CURVE SMOOTH",
"708 323 OFFCURVE",
"602 410 OFFCURVE",
"516 410 CURVE SMOOTH",
"484 410 OFFCURVE",
"459 401 OFFCURVE",
"439 388 CURVE",
"439 558 LINE",
"777 558 LINE",
"777 567 LINE",
"745 625 LINE",
"25 625 LINE",
"25 616 LINE",
"57 558 LINE",
"103 558 LINE",
"103 30 LINE",
"172 -4 LINE",
"181 -4 LINE",
"181 558 LINE",
"361 558 LINE",
"361 134 LINE",
"429 100 LINE",
"439 100 LINE",
"439 283 LINE",
"465 321 OFFCURVE",
"500 347 OFFCURVE",
"547 347 CURVE SMOOTH",
"598 347 OFFCURVE",
"628 317 OFFCURVE",
"628 262 CURVE SMOOTH",
"628 246 OFFCURVE",
"626 220 OFFCURVE",
"624 194 CURVE SMOOTH",
"621 156 LINE SMOOTH",
"618 122 OFFCURVE",
"616 94 OFFCURVE",
"616 81 CURVE SMOOTH",
"616 33 OFFCURVE",
"659 4 OFFCURVE",
"700 -20 CURVE"
);
}
);
width = 802;
}
);
unicode = 11813;
category = Letter;
},
{
glyphname = Tta.dogra;
lastChange = "2019-11-22 11:28:28 +0000";
layers = (
{
anchors = (
{
name = bottom1;
position = "{314, -40}";
},
{
name = bottom2;
position = "{296, -30}";
},
{
name = bottom3;
position = "{280, 66}";
},
{
name = top;
position = "{284, 660}";
},
{
name = top2;
position = "{282, 660}";
}
);
background = {
anchors = (
{
name = bottom1;
position = "{314, -40}";
},
{
name = bottom2;
position = "{296, -30}";
},
{
name = bottom3;
position = "{280, 66}";
},
{
name = top;
position = "{284, 660}";
},
{
name = top2;
position = "{282, 660}";
}
);
paths = (
{
closed = 1;
nodes = (
"398 36 OFFCURVE",
"456 64 OFFCURVE",
"497 106 CURVE",
"449 173 LINE",
"398 130 OFFCURVE",
"349 100 OFFCURVE",
"277 100 CURVE SMOOTH",
"199 100 OFFCURVE",
"143 134 OFFCURVE",
"143 204 CURVE SMOOTH",
"143 258 OFFCURVE",
"169 296 OFFCURVE",
"248 330 CURVE SMOOTH",
"323 362 LINE SMOOTH",
"403 396 OFFCURVE",
"418 421 OFFCURVE",
"418 496 CURVE SMOOTH",
"418 558 LINE",
"511 558 LINE",
"511 567 LINE",
"479 625 LINE",
"25 625 LINE",
"25 616 LINE",
"57 558 LINE",
"340 558 LINE",
"340 517 LINE SMOOTH",
"340 459 OFFCURVE",
"320 445 OFFCURVE",
"267 423 CURVE SMOOTH",
"178 386 LINE SMOOTH",
"98 353 OFFCURVE",
"62 305 OFFCURVE",
"62 238 CURVE SMOOTH",
"62 124 OFFCURVE",
"192 36 OFFCURVE",
"310 36 CURVE SMOOTH"
);
}
);
};
layerId = "284FCB4C-24BB-4F0E-B388-CD6C9D45C343";
paths = (
{
closed = 1;
nodes = (
"398 36 OFFCURVE",
"456 64 OFFCURVE",
"497 106 CURVE",
"449 173 LINE",
"398 130 OFFCURVE",
"349 100 OFFCURVE",
"277 100 CURVE SMOOTH",
"199 100 OFFCURVE",
"143 134 OFFCURVE",
"143 204 CURVE SMOOTH",
"143 258 OFFCURVE",
"169 296 OFFCURVE",
"248 330 CURVE SMOOTH",
"323 362 LINE SMOOTH",
"403 396 OFFCURVE",
"418 421 OFFCURVE",
"418 496 CURVE SMOOTH",
"418 558 LINE",
"511 558 LINE",
"511 567 LINE",
"479 625 LINE",
"25 625 LINE",
"25 616 LINE",
"57 558 LINE",
"340 558 LINE",
"340 517 LINE SMOOTH",
"340 459 OFFCURVE",
"320 445 OFFCURVE",
"267 423 CURVE SMOOTH",
"178 386 LINE SMOOTH",
"98 353 OFFCURVE",
"62 305 OFFCURVE",
"62 238 CURVE SMOOTH",
"62 124 OFFCURVE",
"192 36 OFFCURVE",
"310 36 CURVE SMOOTH"
);
}
);
width = 536;
}
);
unicode = 11814;
category = Letter;
},
{
glyphname = Ttha.dogra;
lastChange = "2019-09-07 12:07:09 +0000";
layers = (
{
anchors = (
{
name = bottom1;
position = "{292, -40}";
},
{
name = bottom2;
position = "{289, -30}";
},
{
name = bottom3;
position = "{264, 67}";
},
{
name = top;
position = "{283, 660}";
},
{
name = top2;
position = "{282, 660}";
}
);
background = {
anchors = (
{
name = bottom1;
position = "{292, -40}";
},
{
name = bottom2;
position = "{289, -30}";
},
{
name = bottom3;
position = "{264, 67}";
},
{
name = top;
position = "{283, 660}";
},
{
name = top2;
position = "{282, 660}";
}
);
paths = (
{
closed = 1;
nodes = (
"426 37 OFFCURVE",
"507 119 OFFCURVE",
"507 247 CURVE SMOOTH",
"507 355 OFFCURVE",
"402 468 OFFCURVE",
"266 468 CURVE SMOOTH",
"134 468 OFFCURVE",
"57 382 OFFCURVE",
"57 268 CURVE SMOOTH",
"57 133 OFFCURVE",
"177 37 OFFCURVE",
"301 37 CURVE SMOOTH"
);
},
{
closed = 1;
nodes = (
"196 95 OFFCURVE",
"137 141 OFFCURVE",
"137 246 CURVE SMOOTH",
"137 339 OFFCURVE",
"195 410 OFFCURVE",
"294 410 CURVE SMOOTH",
"373 410 OFFCURVE",
"427 358 OFFCURVE",
"427 270 CURVE SMOOTH",
"427 164 OFFCURVE",
"361 95 OFFCURVE",
"274 95 CURVE SMOOTH"
);
},
{
closed = 1;
nodes = (
"535 558 LINE",
"535 567 LINE",
"504 625 LINE",
"25 625 LINE",
"25 616 LINE",
"56 558 LINE"
);
}
);
};
layerId = "284FCB4C-24BB-4F0E-B388-CD6C9D45C343";
paths = (
{
closed = 1;
nodes = (
"426 37 OFFCURVE",
"507 119 OFFCURVE",
"507 247 CURVE SMOOTH",
"507 355 OFFCURVE",
"402 468 OFFCURVE",
"266 468 CURVE SMOOTH",
"134 468 OFFCURVE",
"57 382 OFFCURVE",
"57 268 CURVE SMOOTH",
"57 133 OFFCURVE",
"177 37 OFFCURVE",
"301 37 CURVE SMOOTH"
);
},
{
closed = 1;
nodes = (
"196 95 OFFCURVE",
"137 141 OFFCURVE",
"137 246 CURVE SMOOTH",
"137 339 OFFCURVE",
"195 410 OFFCURVE",
"294 410 CURVE SMOOTH",
"373 410 OFFCURVE",
"427 358 OFFCURVE",
"427 270 CURVE SMOOTH",
"427 164 OFFCURVE",
"361 95 OFFCURVE",
"274 95 CURVE SMOOTH"
);
},
{
closed = 1;
nodes = (
"535 558 LINE",
"535 567 LINE",
"504 625 LINE",
"25 625 LINE",
"25 616 LINE",
"56 558 LINE"
);
}
);
width = 560;
}
);
unicode = 11815;
category = Letter;
},
{
glyphname = Dda.dogra;
lastChange = "2019-09-07 12:07:09 +0000";
layers = (
{
anchors = (
{
name = bottom1;
position = "{571, -50}";
},
{
name = bottom2;
position = "{381, -30}";
},
{
name = bottom3;
position = "{548, 42}";
},
{
name = top;
position = "{398, 660}";
},
{
name = top2;
position = "{282, 660}";
}
);
background = {
anchors = (
{
name = bottom1;
position = "{571, -50}";
},
{
name = bottom2;
position = "{381, -30}";
},
{
name = bottom3;
position = "{548, 42}";
},
{
name = top;
position = "{398, 660}";
},
{
name = top2;
position = "{282, 660}";
}
);
paths = (
{
closed = 1;
nodes = (
"681 -3 OFFCURVE",
"732 57 OFFCURVE",
"732 155 CURVE SMOOTH",
"732 305 OFFCURVE",
"596 449 OFFCURVE",
"376 460 CURVE",
"376 558 LINE",
"757 558 LINE",
"757 567 LINE",
"725 625 LINE",
"25 625 LINE",
"25 616 LINE",
"57 558 LINE",
"298 558 LINE",
"298 462 LINE",
"288 462 LINE SMOOTH",
"129 462 OFFCURVE",
"51 404 OFFCURVE",
"51 312 CURVE SMOOTH",
"51 213 OFFCURVE",
"159 133 OFFCURVE",
"243 133 CURVE SMOOTH",
"328 133 OFFCURVE",
"376 176 OFFCURVE",
"376 261 CURVE SMOOTH",
"376 393 LINE",
"419 391 LINE SMOOTH",
"563 383 OFFCURVE",
"625 327 OFFCURVE",
"648 242 CURVE",
"618 265 OFFCURVE",
"582 280 OFFCURVE",
"540 280 CURVE SMOOTH",
"460 280 OFFCURVE",
"409 229 OFFCURVE",
"409 156 CURVE SMOOTH",
"409 72 OFFCURVE",
"505 -3 OFFCURVE",
"585 -3 CURVE SMOOTH"
);
},
{
closed = 1;
nodes = (
"172 197 OFFCURVE",
"131 222 OFFCURVE",
"131 281 CURVE SMOOTH",
"131 344 OFFCURVE",
"179 394 OFFCURVE",
"298 395 CURVE",
"298 284 LINE SMOOTH",
"298 224 OFFCURVE",
"263 197 OFFCURVE",
"213 197 CURVE SMOOTH"
);
},
{
closed = 1;
nodes = (
"519 58 OFFCURVE",
"488 81 OFFCURVE",
"488 128 CURVE SMOOTH",
"488 181 OFFCURVE",
"522 216 OFFCURVE",
"579 216 CURVE SMOOTH",
"610 216 OFFCURVE",
"636 205 OFFCURVE",
"655 189 CURVE",
"654 92 OFFCURVE",
"613 58 OFFCURVE",
"557 58 CURVE SMOOTH"
);
}
);
};
layerId = "284FCB4C-24BB-4F0E-B388-CD6C9D45C343";
paths = (
{
closed = 1;
nodes = (
"681 -3 OFFCURVE",
"732 57 OFFCURVE",
"732 155 CURVE SMOOTH",
"732 305 OFFCURVE",
"596 449 OFFCURVE",
"376 460 CURVE",
"376 558 LINE",
"757 558 LINE",
"757 567 LINE",
"725 625 LINE",
"25 625 LINE",
"25 616 LINE",
"57 558 LINE",
"298 558 LINE",
"298 462 LINE",
"288 462 LINE SMOOTH",
"129 462 OFFCURVE",
"51 404 OFFCURVE",
"51 312 CURVE SMOOTH",
"51 213 OFFCURVE",
"159 133 OFFCURVE",
"243 133 CURVE SMOOTH",
"328 133 OFFCURVE",
"376 176 OFFCURVE",
"376 261 CURVE SMOOTH",
"376 393 LINE",
"419 391 LINE SMOOTH",
"563 383 OFFCURVE",
"625 327 OFFCURVE",
"648 242 CURVE",
"618 265 OFFCURVE",
"582 280 OFFCURVE",
"540 280 CURVE SMOOTH",
"460 280 OFFCURVE",
"409 229 OFFCURVE",
"409 156 CURVE SMOOTH",
"409 72 OFFCURVE",
"505 -3 OFFCURVE",
"585 -3 CURVE SMOOTH"
);
},
{
closed = 1;
nodes = (
"172 197 OFFCURVE",
"131 222 OFFCURVE",
"131 281 CURVE SMOOTH",
"131 344 OFFCURVE",
"179 394 OFFCURVE",
"298 395 CURVE",
"298 284 LINE SMOOTH",
"298 224 OFFCURVE",
"263 197 OFFCURVE",
"213 197 CURVE SMOOTH"
);
},
{
closed = 1;
nodes = (
"519 58 OFFCURVE",
"488 81 OFFCURVE",
"488 128 CURVE SMOOTH",
"488 181 OFFCURVE",
"522 216 OFFCURVE",
"579 216 CURVE SMOOTH",
"610 216 OFFCURVE",
"636 205 OFFCURVE",
"655 189 CURVE",
"654 92 OFFCURVE",
"613 58 OFFCURVE",
"557 58 CURVE SMOOTH"
);
}
);
width = 782;
}
);
unicode = 11816;
category = Letter;
},
{
glyphname = Ddha.dogra;
lastChange = "2019-09-07 12:08:21 +0000";
layers = (
{
anchors = (
{
name = bottom1;
position = "{618, -50}";
},
{
name = bottom2;
position = "{444, -30}";
},
{
name = bottom3;
position = "{593, 42}";
},
{
name = top;
position = "{424, 660}";
},
{
name = top2;
position = "{282, 660}";
}
);
background = {
anchors = (
{
name = bottom1;
position = "{618, -50}";
},
{
name = bottom2;
position = "{444, -30}";
},
{
name = bottom3;
position = "{593, 42}";
},
{
name = top;
position = "{424, 660}";
},
{
name = top2;
position = "{282, 660}";
}
);
paths = (
{
closed = 1;
nodes = (
"343 24 OFFCURVE",
"394 70 OFFCURVE",
"394 161 CURVE SMOOTH",
"394 194 LINE",
"489 68 OFFCURVE",
"554 24 OFFCURVE",
"627 24 CURVE SMOOTH",
"733 24 OFFCURVE",
"781 95 OFFCURVE",
"781 170 CURVE SMOOTH",
"781 258 OFFCURVE",
"684 346 OFFCURVE",
"594 346 CURVE SMOOTH",
"509 346 OFFCURVE",
"451 295 OFFCURVE",
"451 204 CURVE SMOOTH",
"451 198 OFFCURVE",
"452 192 OFFCURVE",
"454 185 CURVE",
"435 207 OFFCURVE",
"415 233 OFFCURVE",
"394 263 CURVE",
"394 558 LINE",
"802 558 LINE",
"802 567 LINE",
"770 625 LINE",
"25 625 LINE",
"25 616 LINE",
"56 558 LINE",
"316 558 LINE",
"316 325 LINE",
"290 341 OFFCURVE",
"257 353 OFFCURVE",
"217 353 CURVE SMOOTH",
"119 353 OFFCURVE",
"58 298 OFFCURVE",
"58 213 CURVE SMOOTH",
"58 108 OFFCURVE",
"167 24 OFFCURVE",
"256 24 CURVE SMOOTH"
);
},
{
closed = 1;
nodes = (
"182 88 OFFCURVE",
"139 117 OFFCURVE",
"139 182 CURVE SMOOTH",
"139 247 OFFCURVE",
"181 288 OFFCURVE",
"250 288 CURVE SMOOTH",
"275 288 OFFCURVE",
"297 282 OFFCURVE",
"316 272 CURVE",
"316 181 LINE SMOOTH",
"316 122 OFFCURVE",
"289 88 OFFCURVE",
"230 88 CURVE SMOOTH"
);
},
{
closed = 1;
nodes = (
"581 88 OFFCURVE",
"558 95 OFFCURVE",
"535 110 CURVE",
"529 127 OFFCURVE",
"527 146 OFFCURVE",
"527 164 CURVE SMOOTH",
"527 240 OFFCURVE",
"569 282 OFFCURVE",
"626 282 CURVE SMOOTH",
"675 282 OFFCURVE",
"702 248 OFFCURVE",
"702 202 CURVE SMOOTH",
"702 144 OFFCURVE",
"671 88 OFFCURVE",
"604 88 CURVE SMOOTH"
);
}
);
};
layerId = "284FCB4C-24BB-4F0E-B388-CD6C9D45C343";
paths = (
{
closed = 1;
nodes = (
"343 24 OFFCURVE",
"394 70 OFFCURVE",
"394 161 CURVE SMOOTH",
"394 194 LINE",
"489 68 OFFCURVE",
"554 24 OFFCURVE",
"627 24 CURVE SMOOTH",
"733 24 OFFCURVE",
"781 95 OFFCURVE",
"781 170 CURVE SMOOTH",
"781 258 OFFCURVE",
"684 346 OFFCURVE",
"594 346 CURVE SMOOTH",
"509 346 OFFCURVE",
"451 295 OFFCURVE",
"451 204 CURVE SMOOTH",
"451 198 OFFCURVE",
"452 192 OFFCURVE",
"454 185 CURVE",
"435 207 OFFCURVE",
"415 233 OFFCURVE",
"394 263 CURVE",
"394 558 LINE",
"802 558 LINE",
"802 567 LINE",
"770 625 LINE",
"25 625 LINE",
"25 616 LINE",
"56 558 LINE",
"316 558 LINE",
"316 325 LINE",
"290 341 OFFCURVE",
"257 353 OFFCURVE",
"217 353 CURVE SMOOTH",
"119 353 OFFCURVE",
"58 298 OFFCURVE",
"58 213 CURVE SMOOTH",
"58 108 OFFCURVE",
"167 24 OFFCURVE",
"256 24 CURVE SMOOTH"
);
},
{
closed = 1;
nodes = (
"182 88 OFFCURVE",
"139 117 OFFCURVE",
"139 182 CURVE SMOOTH",
"139 247 OFFCURVE",
"181 288 OFFCURVE",
"250 288 CURVE SMOOTH",
"275 288 OFFCURVE",
"297 282 OFFCURVE",
"316 272 CURVE",
"316 181 LINE SMOOTH",
"316 122 OFFCURVE",
"289 88 OFFCURVE",
"230 88 CURVE SMOOTH"
);
},
{
closed = 1;
nodes = (
"581 88 OFFCURVE",
"558 95 OFFCURVE",
"535 110 CURVE",
"529 127 OFFCURVE",
"527 146 OFFCURVE",
"527 164 CURVE SMOOTH",
"527 240 OFFCURVE",
"569 282 OFFCURVE",
"626 282 CURVE SMOOTH",
"675 282 OFFCURVE",
"702 248 OFFCURVE",
"702 202 CURVE SMOOTH",
"702 144 OFFCURVE",
"671 88 OFFCURVE",
"604 88 CURVE SMOOTH"
);
}
);
width = 827;
}
);
unicode = 11817;
category = Letter;
},
{
glyphname = Nna.dogra;
lastChange = "2019-09-07 12:08:23 +0000";
layers = (
{
anchors = (
{
name = bottom1;
position = "{466, 30}";
},
{
name = bottom2;
position = "{455, 50}";
},
{
name = bottom3;
position = "{433, 160}";
},
{
name = top;
position = "{452, 660}";
},
{
name = top2;
position = "{271, 660}";
}
);
background = {
anchors = (
{
name = bottom1;
position = "{466, 30}";
},
{
name = bottom2;
position = "{455, 50}";
},
{
name = bottom3;
position = "{433, 160}";
},
{
name = top;
position = "{452, 660}";
},
{
name = top2;
position = "{271, 660}";
}
);
paths = (
{
closed = 1;
nodes = (
"175 418 OFFCURVE",
"214 494 OFFCURVE",
"263 494 CURVE SMOOTH",
"302 494 OFFCURVE",
"326 455 OFFCURVE",
"366 358 CURVE SMOOTH",
"389 302 LINE",
"408 302 LINE",
"436 361 LINE SMOOTH",
"476 443 OFFCURVE",
"513 494 OFFCURVE",
"552 494 CURVE SMOOTH",
"591 494 OFFCURVE",
"614 462 OFFCURVE",
"660 357 CURVE SMOOTH",
"684 302 LINE",
"703 302 LINE",
"741 396 OFFCURVE",
"793 467 OFFCURVE",
"853 520 CURVE",
"797 577 LINE",
"755 543 OFFCURVE",
"709 491 OFFCURVE",
"680 431 CURVE",
"637 523 OFFCURVE",
"593 576 OFFCURVE",
"532 576 CURVE SMOOTH",
"481 576 OFFCURVE",
"429 540 OFFCURVE",
"383 439 CURVE",
"342 530 OFFCURVE",
"300 576 OFFCURVE",
"239 576 CURVE SMOOTH",
"165 576 OFFCURVE",
"111 502 OFFCURVE",
"54 345 CURVE",
"127 299 LINE"
);
},
{
closed = 1;
nodes = (
"845 150 LINE",
"845 159 LINE",
"813 217 LINE",
"50 217 LINE",
"50 208 LINE",
"82 150 LINE"
);
}
);
};
layerId = "284FCB4C-24BB-4F0E-B388-CD6C9D45C343";
paths = (
{
closed = 1;
nodes = (
"175 418 OFFCURVE",
"214 494 OFFCURVE",
"263 494 CURVE SMOOTH",
"302 494 OFFCURVE",
"326 455 OFFCURVE",
"366 358 CURVE SMOOTH",
"389 302 LINE",
"408 302 LINE",
"436 361 LINE SMOOTH",
"476 443 OFFCURVE",
"513 494 OFFCURVE",
"552 494 CURVE SMOOTH",
"591 494 OFFCURVE",
"614 462 OFFCURVE",
"660 357 CURVE SMOOTH",
"684 302 LINE",
"703 302 LINE",
"741 396 OFFCURVE",
"793 467 OFFCURVE",
"853 520 CURVE",
"797 577 LINE",
"755 543 OFFCURVE",
"709 491 OFFCURVE",
"680 431 CURVE",
"637 523 OFFCURVE",
"593 576 OFFCURVE",
"532 576 CURVE SMOOTH",
"481 576 OFFCURVE",
"429 540 OFFCURVE",
"383 439 CURVE",
"342 530 OFFCURVE",
"300 576 OFFCURVE",
"239 576 CURVE SMOOTH",
"165 576 OFFCURVE",
"111 502 OFFCURVE",
"54 345 CURVE",
"127 299 LINE"
);
},
{
closed = 1;
nodes = (
"845 150 LINE",
"845 159 LINE",
"813 217 LINE",
"50 217 LINE",
"50 208 LINE",
"82 150 LINE"
);
}
);
width = 906;
}
);
unicode = 11818;
category = Letter;
},
{
glyphname = Ta.dogra;
lastChange = "2019-09-07 12:08:25 +0000";
layers = (
{
anchors = (
{
name = bottom1;
position = "{265, -50}";
},
{
name = bottom2;
position = "{251, -50}";
},
{
name = bottom3;
position = "{220, 56}";
},
{
name = top;
position = "{264, 660}";
},
{
name = top2;
position = "{282, 660}";
}
);
background = {
anchors = (
{
name = bottom1;
position = "{265, -50}";
},
{
name = bottom2;
position = "{251, -50}";
},
{
name = bottom3;
position = "{220, 56}";
},
{
name = top;
position = "{264, 660}";
},
{
name = top2;
position = "{282, 660}";
}
);
paths = (
{
closed = 1;
nodes = (
"375 24 OFFCURVE",
"456 90 OFFCURVE",
"456 189 CURVE SMOOTH",
"456 263 OFFCURVE",
"399 318 OFFCURVE",
"333 346 CURVE",
"406 385 OFFCURVE",
"444 452 OFFCURVE",
"454 558 CURVE",
"501 558 LINE",
"501 567 LINE",
"469 625 LINE",
"25 625 LINE",
"25 616 LINE",
"57 558 LINE",
"371 558 LINE",
"358 442 OFFCURVE",
"292 380 OFFCURVE",
"140 380 CURVE SMOOTH",
"97 380 LINE",
"120 313 LINE",
"242 313 LINE SMOOTH",
"335 313 OFFCURVE",
"375 276 OFFCURVE",
"375 218 CURVE SMOOTH",
"375 130 OFFCURVE",
"303 93 OFFCURVE",
"190 93 CURVE SMOOTH",
"137 93 OFFCURVE",
"81 104 OFFCURVE",
"37 120 CURVE",
"32 114 LINE",
"56 51 LINE",
"105 34 OFFCURVE",
"156 24 OFFCURVE",
"222 24 CURVE SMOOTH"
);
}
);
};
layerId = "284FCB4C-24BB-4F0E-B388-CD6C9D45C343";
paths = (
{
closed = 1;
nodes = (
"375 24 OFFCURVE",
"456 90 OFFCURVE",
"456 189 CURVE SMOOTH",
"456 263 OFFCURVE",
"399 318 OFFCURVE",
"333 346 CURVE",
"406 385 OFFCURVE",
"444 452 OFFCURVE",
"454 558 CURVE",
"501 558 LINE",
"501 567 LINE",
"469 625 LINE",
"25 625 LINE",
"25 616 LINE",
"57 558 LINE",
"371 558 LINE",
"358 442 OFFCURVE",
"292 380 OFFCURVE",
"140 380 CURVE SMOOTH",
"97 380 LINE",
"120 313 LINE",
"242 313 LINE SMOOTH",
"335 313 OFFCURVE",
"375 276 OFFCURVE",
"375 218 CURVE SMOOTH",
"375 130 OFFCURVE",
"303 93 OFFCURVE",
"190 93 CURVE SMOOTH",
"137 93 OFFCURVE",
"81 104 OFFCURVE",
"37 120 CURVE",
"32 114 LINE",
"56 51 LINE",
"105 34 OFFCURVE",
"156 24 OFFCURVE",
"222 24 CURVE SMOOTH"
);
}
);
width = 526;
}
);
unicode = 11819;
category = Letter;
},
{
glyphname = Tha.dogra;
lastChange = "2019-09-07 12:08:27 +0000";
layers = (
{
anchors = (
{
name = bottom1;
position = "{523, -50}";
},
{
name = bottom2;
position = "{345, -30}";
},
{
name = bottom3;
position = "{359, 56}";
},
{
name = top;
position = "{351, 660}";
},
{
name = top2;
position = "{282, 660}";
}
);
background = {
anchors = (
{
name = bottom1;
position = "{523, -50}";
},
{
name = bottom2;
position = "{345, -30}";
},
{
name = bottom3;
position = "{359, 56}";
},
{
name = top;
position = "{351, 660}";
},
{
name = top2;
position = "{282, 660}";
}
);
paths = (
{
closed = 1;
nodes = (
"562 -4 LINE",
"562 558 LINE",
"640 558 LINE",
"640 567 LINE",
"609 625 LINE",
"25 625 LINE",
"25 616 LINE",
"57 558 LINE",
"88 558 LINE",
"84 542 OFFCURVE",
"83 526 OFFCURVE",
"83 504 CURVE SMOOTH",
"83 476 LINE SMOOTH",
"83 425 OFFCURVE",
"113 393 OFFCURVE",
"168 365 CURVE",
"114 346 LINE SMOOTH",
"87 337 OFFCURVE",
"77 325 OFFCURVE",
"77 305 CURVE SMOOTH",
"77 289 OFFCURVE",
"85 270 OFFCURVE",
"97 249 CURVE SMOOTH",
"134 184 OFFCURVE",
"219 123 OFFCURVE",
"332 123 CURVE SMOOTH",
"394 123 OFFCURVE",
"447 136 OFFCURVE",
"484 153 CURVE",
"484 30 LINE",
"553 -4 LINE"
);
},
{
closed = 1;
nodes = (
"222 189 OFFCURVE",
"171 228 OFFCURVE",
"144 270 CURVE",
"282 320 LINE SMOOTH",
"338 340 OFFCURVE",
"359 365 OFFCURVE",
"359 424 CURVE SMOOTH",
"359 558 LINE",
"484 558 LINE",
"484 250 LINE",
"436 211 OFFCURVE",
"383 189 OFFCURVE",
"299 189 CURVE SMOOTH"
);
},
{
closed = 1;
nodes = (
"175 404 OFFCURVE",
"161 428 OFFCURVE",
"161 478 CURVE SMOOTH",
"161 496 LINE SMOOTH",
"161 525 OFFCURVE",
"164 544 OFFCURVE",
"169 558 CURVE",
"281 558 LINE",
"281 447 LINE SMOOTH",
"281 414 OFFCURVE",
"266 398 OFFCURVE",
"232 387 CURVE SMOOTH",
"217 382 LINE"
);
}
);
};
layerId = "284FCB4C-24BB-4F0E-B388-CD6C9D45C343";
paths = (
{
closed = 1;
nodes = (
"562 -4 LINE",
"562 558 LINE",
"640 558 LINE",
"640 567 LINE",
"609 625 LINE",
"25 625 LINE",
"25 616 LINE",
"57 558 LINE",
"88 558 LINE",
"84 542 OFFCURVE",
"83 526 OFFCURVE",
"83 504 CURVE SMOOTH",
"83 476 LINE SMOOTH",
"83 425 OFFCURVE",
"113 393 OFFCURVE",
"168 365 CURVE",
"114 346 LINE SMOOTH",
"87 337 OFFCURVE",
"77 325 OFFCURVE",
"77 305 CURVE SMOOTH",
"77 289 OFFCURVE",
"85 270 OFFCURVE",
"97 249 CURVE SMOOTH",
"134 184 OFFCURVE",
"219 123 OFFCURVE",
"332 123 CURVE SMOOTH",
"394 123 OFFCURVE",
"447 136 OFFCURVE",
"484 153 CURVE",
"484 30 LINE",
"553 -4 LINE"
);
},
{
closed = 1;
nodes = (
"222 189 OFFCURVE",
"171 228 OFFCURVE",
"144 270 CURVE",
"282 320 LINE SMOOTH",
"338 340 OFFCURVE",
"359 365 OFFCURVE",
"359 424 CURVE SMOOTH",
"359 558 LINE",
"484 558 LINE",
"484 250 LINE",
"436 211 OFFCURVE",
"383 189 OFFCURVE",
"299 189 CURVE SMOOTH"
);
},
{
closed = 1;
nodes = (
"175 404 OFFCURVE",
"161 428 OFFCURVE",
"161 478 CURVE SMOOTH",
"161 496 LINE SMOOTH",
"161 525 OFFCURVE",
"164 544 OFFCURVE",
"169 558 CURVE",
"281 558 LINE",
"281 447 LINE SMOOTH",
"281 414 OFFCURVE",
"266 398 OFFCURVE",
"232 387 CURVE SMOOTH",
"217 382 LINE"
);
}
);
width = 665;
}
);
unicode = 1181A;
category = Letter;
},
{
glyphname = Da.dogra;
lastChange = "2019-09-07 12:08:28 +0000";
layers = (
{
anchors = (
{
name = bottom1;
position = "{559, -50}";
},
{
name = bottom2;
position = "{407, -30}";
},
{
name = bottom3;
position = "{570, 83}";
},
{
name = top;
position = "{368, 660}";
},
{
name = top2;
position = "{282, 660}";
}
);
background = {
anchors = (
{
name = bottom1;
position = "{559, -50}";
},
{
name = bottom2;
position = "{407, -30}";
},
{
name = bottom3;
position = "{570, 83}";
},
{
name = top;
position = "{368, 660}";
},
{
name = top2;
position = "{282, 660}";
}
);
paths = (
{
closed = 1;
nodes = (
"351 24 OFFCURVE",
"400 72 OFFCURVE",
"400 165 CURVE SMOOTH",
"400 244 LINE",
"455 198 OFFCURVE",
"511 128 OFFCURVE",
"573 35 CURVE",
"587 35 LINE",
"619 140 OFFCURVE",
"658 220 OFFCURVE",
"721 278 CURVE",
"663 336 LINE",
"611 293 OFFCURVE",
"569 229 OFFCURVE",
"546 161 CURVE",
"502 217 OFFCURVE",
"454 267 OFFCURVE",
"400 307 CURVE",
"400 558 LINE",
"732 558 LINE",
"732 567 LINE",
"700 625 LINE",
"25 625 LINE",
"25 616 LINE",
"57 558 LINE",
"322 558 LINE",
"322 346 LINE",
"291 360 OFFCURVE",
"259 366 OFFCURVE",
"223 366 CURVE SMOOTH",
"125 366 OFFCURVE",
"55 309 OFFCURVE",
"55 217 CURVE SMOOTH",
"55 111 OFFCURVE",
"163 24 OFFCURVE",
"256 24 CURVE SMOOTH"
);
},
{
closed = 1;
nodes = (
"185 88 OFFCURVE",
"136 120 OFFCURVE",
"136 188 CURVE SMOOTH",
"136 264 OFFCURVE",
"186 301 OFFCURVE",
"253 301 CURVE SMOOTH",
"280 301 OFFCURVE",
"301 296 OFFCURVE",
"322 288 CURVE",
"322 189 LINE SMOOTH",
"322 121 OFFCURVE",
"281 88 OFFCURVE",
"226 88 CURVE SMOOTH"
);
}
);
};
layerId = "284FCB4C-24BB-4F0E-B388-CD6C9D45C343";
paths = (
{
closed = 1;
nodes = (
"351 24 OFFCURVE",
"400 72 OFFCURVE",
"400 165 CURVE SMOOTH",
"400 244 LINE",
"455 198 OFFCURVE",
"511 128 OFFCURVE",
"573 35 CURVE",
"587 35 LINE",
"619 140 OFFCURVE",
"658 220 OFFCURVE",
"721 278 CURVE",
"663 336 LINE",
"611 293 OFFCURVE",
"569 229 OFFCURVE",
"546 161 CURVE",
"502 217 OFFCURVE",
"454 267 OFFCURVE",
"400 307 CURVE",
"400 558 LINE",
"732 558 LINE",
"732 567 LINE",
"700 625 LINE",
"25 625 LINE",
"25 616 LINE",
"57 558 LINE",
"322 558 LINE",
"322 346 LINE",
"291 360 OFFCURVE",
"259 366 OFFCURVE",
"223 366 CURVE SMOOTH",
"125 366 OFFCURVE",
"55 309 OFFCURVE",
"55 217 CURVE SMOOTH",
"55 111 OFFCURVE",
"163 24 OFFCURVE",
"256 24 CURVE SMOOTH"
);
},
{
closed = 1;
nodes = (
"185 88 OFFCURVE",
"136 120 OFFCURVE",
"136 188 CURVE SMOOTH",
"136 264 OFFCURVE",
"186 301 OFFCURVE",
"253 301 CURVE SMOOTH",
"280 301 OFFCURVE",
"301 296 OFFCURVE",
"322 288 CURVE",
"322 189 LINE SMOOTH",
"322 121 OFFCURVE",
"281 88 OFFCURVE",
"226 88 CURVE SMOOTH"
);
}
);
width = 757;
}
);
unicode = 1181B;
category = Letter;
},
{
glyphname = Dha.dogra;
lastChange = "2019-09-07 12:08:30 +0000";
layers = (
{
anchors = (
{
name = bottom1;
position = "{503, -50}";
},
{
name = bottom2;
position = "{294, -30}";
},
{
name = bottom3;
position = "{339, 56}";
},
{
name = top;
position = "{327, 660}";
},
{
name = top2;
position = "{282, 660}";
}
);
background = {
anchors = (
{
name = bottom1;
position = "{503, -50}";
},
{
name = bottom2;
position = "{294, -30}";
},
{
name = bottom3;
position = "{339, 56}";
},
{
name = top;
position = "{327, 660}";
},
{
name = top2;
position = "{282, 660}";
}
);
paths = (
{
closed = 1;
nodes = (
"542 -4 LINE",
"542 558 LINE",
"620 558 LINE",
"620 567 LINE",
"588 625 LINE",
"364 625 LINE",
"364 616 LINE",
"396 558 LINE",
"464 558 LINE",
"464 244 LINE",
"424 213 OFFCURVE",
"359 186 OFFCURVE",
"289 186 CURVE SMOOTH",
"228 186 OFFCURVE",
"161 211 OFFCURVE",
"123 271 CURVE",
"240 329 LINE",
"273 347 OFFCURVE",
"287 358 OFFCURVE",
"287 380 CURVE SMOOTH",
"287 398 OFFCURVE",
"281 406 OFFCURVE",
"261 423 CURVE SMOOTH",
"198 478 LINE",
"228 499 OFFCURVE",
"253 524 OFFCURVE",
"253 562 CURVE SMOOTH",
"253 608 OFFCURVE",
"216 649 OFFCURVE",
"159 649 CURVE SMOOTH",
"107 649 OFFCURVE",
"67 611 OFFCURVE",
"67 562 CURVE SMOOTH",
"67 525 OFFCURVE",
"94 493 OFFCURVE",
"127 467 CURVE SMOOTH",
"206 404 LINE",
"75 337 LINE SMOOTH",
"63 331 OFFCURVE",
"56 321 OFFCURVE",
"56 307 CURVE SMOOTH",
"56 294 OFFCURVE",
"60 281 OFFCURVE",
"69 261 CURVE SMOOTH",
"103 186 OFFCURVE",
"202 119 OFFCURVE",
"319 119 CURVE SMOOTH",
"381 119 OFFCURVE",
"427 131 OFFCURVE",
"464 149 CURVE",
"464 30 LINE",
"533 -4 LINE"
);
}
);
};
layerId = "284FCB4C-24BB-4F0E-B388-CD6C9D45C343";
paths = (
{
closed = 1;
nodes = (
"542 -4 LINE",
"542 558 LINE",
"620 558 LINE",
"620 567 LINE",
"588 625 LINE",
"364 625 LINE",
"364 616 LINE",
"396 558 LINE",
"464 558 LINE",
"464 244 LINE",
"424 213 OFFCURVE",
"359 186 OFFCURVE",
"289 186 CURVE SMOOTH",
"228 186 OFFCURVE",
"161 211 OFFCURVE",
"123 271 CURVE",
"240 329 LINE",
"273 347 OFFCURVE",
"287 358 OFFCURVE",
"287 380 CURVE SMOOTH",
"287 398 OFFCURVE",
"281 406 OFFCURVE",
"261 423 CURVE SMOOTH",
"198 478 LINE",
"228 499 OFFCURVE",
"253 524 OFFCURVE",
"253 562 CURVE SMOOTH",
"253 608 OFFCURVE",
"216 649 OFFCURVE",
"159 649 CURVE SMOOTH",
"107 649 OFFCURVE",
"67 611 OFFCURVE",
"67 562 CURVE SMOOTH",
"67 525 OFFCURVE",
"94 493 OFFCURVE",
"127 467 CURVE SMOOTH",
"206 404 LINE",
"75 337 LINE SMOOTH",
"63 331 OFFCURVE",
"56 321 OFFCURVE",
"56 307 CURVE SMOOTH",
"56 294 OFFCURVE",
"60 281 OFFCURVE",
"69 261 CURVE SMOOTH",
"103 186 OFFCURVE",
"202 119 OFFCURVE",
"319 119 CURVE SMOOTH",
"381 119 OFFCURVE",
"427 131 OFFCURVE",
"464 149 CURVE",
"464 30 LINE",
"533 -4 LINE"
);
}
);
width = 645;
}
);
unicode = 1181C;
category = Letter;
},
{
glyphname = Na.dogra;
lastChange = "2019-09-07 12:08:32 +0000";
layers = (
{
anchors = (
{
name = bottom1;
position = "{245, -50}";
},
{
name = bottom2;
position = "{211, -70}";
},
{
name = bottom3;
position = "{62, 45}";
},
{
name = top;
position = "{198, 660}";
},
{
name = top2;
position = "{282, 660}";
}
);
background = {
anchors = (
{
name = bottom1;
position = "{245, -50}";
},
{
name = bottom2;
position = "{211, -70}";
},
{
name = bottom3;
position = "{62, 45}";
},
{
name = top;
position = "{198, 660}";
},
{
name = top2;
position = "{282, 660}";
}
);
paths = (
{
closed = 1;
nodes = (
"265 -11 LINE",
"255 9 OFFCURVE",
"250 28 OFFCURVE",
"250 49 CURVE SMOOTH",
"250 73 OFFCURVE",
"253 100 OFFCURVE",
"265 128 CURVE SMOOTH",
"284 173 LINE",
"298 203 OFFCURVE",
"306 228 OFFCURVE",
"306 248 CURVE SMOOTH",
"306 294 OFFCURVE",
"274 331 OFFCURVE",
"226 365 CURVE",
"258 405 OFFCURVE",
"291 471 OFFCURVE",
"297 558 CURVE",
"366 558 LINE",
"366 567 LINE",
"334 625 LINE",
"25 625 LINE",
"25 616 LINE",
"57 558 LINE",
"216 558 LINE",
"205 455 OFFCURVE",
"154 390 OFFCURVE",
"50 336 CURVE",
"96 270 LINE",
"150 301 LINE SMOOTH",
"170 313 OFFCURVE",
"181 318 OFFCURVE",
"194 318 CURVE SMOOTH",
"214 318 OFFCURVE",
"230 303 OFFCURVE",
"230 274 CURVE SMOOTH",
"230 258 OFFCURVE",
"221 231 OFFCURVE",
"203 193 CURVE SMOOTH",
"187 158 LINE SMOOTH",
"178 137 OFFCURVE",
"172 114 OFFCURVE",
"172 94 CURVE SMOOTH",
"172 48 OFFCURVE",
"198 17 OFFCURVE",
"252 -21 CURVE"
);
}
);
};
layerId = "284FCB4C-24BB-4F0E-B388-CD6C9D45C343";
paths = (
{
closed = 1;
nodes = (
"265 -11 LINE",
"255 9 OFFCURVE",
"250 28 OFFCURVE",
"250 49 CURVE SMOOTH",
"250 73 OFFCURVE",
"253 100 OFFCURVE",
"265 128 CURVE SMOOTH",
"284 173 LINE",
"298 203 OFFCURVE",
"306 228 OFFCURVE",
"306 248 CURVE SMOOTH",
"306 294 OFFCURVE",
"274 331 OFFCURVE",
"226 365 CURVE",
"258 405 OFFCURVE",
"291 471 OFFCURVE",
"297 558 CURVE",
"366 558 LINE",
"366 567 LINE",
"334 625 LINE",
"25 625 LINE",
"25 616 LINE",
"57 558 LINE",
"216 558 LINE",
"205 455 OFFCURVE",
"154 390 OFFCURVE",
"50 336 CURVE",
"96 270 LINE",
"150 301 LINE SMOOTH",
"170 313 OFFCURVE",
"181 318 OFFCURVE",
"194 318 CURVE SMOOTH",
"214 318 OFFCURVE",
"230 303 OFFCURVE",
"230 274 CURVE SMOOTH",
"230 258 OFFCURVE",
"221 231 OFFCURVE",
"203 193 CURVE SMOOTH",
"187 158 LINE SMOOTH",
"178 137 OFFCURVE",
"172 114 OFFCURVE",
"172 94 CURVE SMOOTH",
"172 48 OFFCURVE",
"198 17 OFFCURVE",
"252 -21 CURVE"
);
}
);
width = 391;
}
);
unicode = 1181D;
category = Letter;
},
{
glyphname = Pa.dogra;
lastChange = "2019-09-07 12:08:33 +0000";
layers = (
{
anchors = (
{
name = bottom1;
position = "{603, -50}";
},
{
name = bottom2;
position = "{389, -30}";
},
{
name = bottom3;
position = "{466, 45}";
},
{
name = top;
position = "{392, 660}";
},
{
name = top2;
position = "{271, 660}";
}
);
background = {
anchors = (
{
name = bottom1;
position = "{603, -50}";
},
{
name = bottom2;
position = "{389, -30}";
},
{
name = bottom3;
position = "{466, 45}";
},
{
name = top;
position = "{392, 660}";
},
{
name = top2;
position = "{271, 660}";
}
);
paths = (
{
closed = 1;
nodes = (
"669 -11 LINE",
"657 8 OFFCURVE",
"650 26 OFFCURVE",
"650 55 CURVE SMOOTH",
"650 91 OFFCURVE",
"653 117 OFFCURVE",
"664 191 CURVE SMOOTH",
"678 285 LINE SMOOTH",
"690 364 OFFCURVE",
"697 411 OFFCURVE",
"697 449 CURVE SMOOTH",
"697 531 OFFCURVE",
"606 628 OFFCURVE",
"511 628 CURVE SMOOTH",
"417 628 OFFCURVE",
"361 572 OFFCURVE",
"361 471 CURVE SMOOTH",
"361 346 LINE SMOOTH",
"361 240 OFFCURVE",
"335 195 OFFCURVE",
"264 195 CURVE SMOOTH",
"222 195 OFFCURVE",
"190 217 OFFCURVE",
"190 281 CURVE SMOOTH",
"190 312 OFFCURVE",
"192 332 OFFCURVE",
"199 376 CURVE SMOOTH",
"205 415 LINE SMOOTH",
"211 451 OFFCURVE",
"214 478 OFFCURVE",
"214 493 CURVE SMOOTH",
"214 541 OFFCURVE",
"152 625 OFFCURVE",
"55 625 CURVE SMOOTH",
"15 625 LINE",
"15 616 LINE",
"47 558 LINE",
"100 558 LINE SMOOTH",
"128 558 OFFCURVE",
"138 545 OFFCURVE",
"138 520 CURVE SMOOTH",
"138 499 OFFCURVE",
"135 475 OFFCURVE",
"128 435 CURVE SMOOTH",
"121 394 LINE SMOOTH",
"114 355 OFFCURVE",
"111 334 OFFCURVE",
"111 305 CURVE SMOOTH",
"111 218 OFFCURVE",
"209 130 OFFCURVE",
"299 130 CURVE SMOOTH",
"397 130 OFFCURVE",
"440 192 OFFCURVE",
"440 297 CURVE SMOOTH",
"440 442 LINE SMOOTH",
"440 521 OFFCURVE",
"478 563 OFFCURVE",
"544 563 CURVE SMOOTH",
"592 563 OFFCURVE",
"617 532 OFFCURVE",
"617 479 CURVE SMOOTH",
"617 432 OFFCURVE",
"609 380 OFFCURVE",
"600 321 CURVE SMOOTH",
"587 236 LINE SMOOTH",
"573 142 OFFCURVE",
"568 117 OFFCURVE",
"568 83 CURVE SMOOTH",
"568 39 OFFCURVE",
"603 7 OFFCURVE",
"657 -21 CURVE"
);
}
);
};
layerId = "284FCB4C-24BB-4F0E-B388-CD6C9D45C343";
paths = (
{
closed = 1;
nodes = (
"669 -11 LINE",
"657 8 OFFCURVE",
"650 26 OFFCURVE",
"650 55 CURVE SMOOTH",
"650 91 OFFCURVE",
"653 117 OFFCURVE",
"664 191 CURVE SMOOTH",
"678 285 LINE SMOOTH",
"690 364 OFFCURVE",
"697 411 OFFCURVE",
"697 449 CURVE SMOOTH",
"697 531 OFFCURVE",
"606 628 OFFCURVE",
"511 628 CURVE SMOOTH",
"417 628 OFFCURVE",
"361 572 OFFCURVE",
"361 471 CURVE SMOOTH",
"361 346 LINE SMOOTH",
"361 240 OFFCURVE",
"335 195 OFFCURVE",
"264 195 CURVE SMOOTH",
"222 195 OFFCURVE",
"190 217 OFFCURVE",
"190 281 CURVE SMOOTH",
"190 312 OFFCURVE",
"192 332 OFFCURVE",
"199 376 CURVE SMOOTH",
"205 415 LINE SMOOTH",
"211 451 OFFCURVE",
"214 478 OFFCURVE",
"214 493 CURVE SMOOTH",
"214 541 OFFCURVE",
"152 625 OFFCURVE",
"55 625 CURVE SMOOTH",
"15 625 LINE",
"15 616 LINE",
"47 558 LINE",
"100 558 LINE SMOOTH",
"128 558 OFFCURVE",
"138 545 OFFCURVE",
"138 520 CURVE SMOOTH",
"138 499 OFFCURVE",
"135 475 OFFCURVE",
"128 435 CURVE SMOOTH",
"121 394 LINE SMOOTH",
"114 355 OFFCURVE",
"111 334 OFFCURVE",
"111 305 CURVE SMOOTH",
"111 218 OFFCURVE",
"209 130 OFFCURVE",
"299 130 CURVE SMOOTH",
"397 130 OFFCURVE",
"440 192 OFFCURVE",
"440 297 CURVE SMOOTH",
"440 442 LINE SMOOTH",
"440 521 OFFCURVE",
"478 563 OFFCURVE",
"544 563 CURVE SMOOTH",
"592 563 OFFCURVE",
"617 532 OFFCURVE",
"617 479 CURVE SMOOTH",
"617 432 OFFCURVE",
"609 380 OFFCURVE",
"600 321 CURVE SMOOTH",
"587 236 LINE SMOOTH",
"573 142 OFFCURVE",
"568 117 OFFCURVE",
"568 83 CURVE SMOOTH",
"568 39 OFFCURVE",
"603 7 OFFCURVE",
"657 -21 CURVE"
);
}
);
width = 776;
}
);
unicode = 1181E;
category = Letter;
},
{
glyphname = Pha.dogra;
lastChange = "2019-09-07 12:07:09 +0000";
layers = (
{
anchors = (
{
name = bottom1;
position = "{327, -50}";
},
{
name = bottom2;
position = "{309, -50}";
},
{
name = bottom3;
position = "{291, 56}";
},
{
name = top;
position = "{304, 660}";
},
{
name = top2;
position = "{282, 660}";
}
);
background = {
anchors = (
{
name = bottom1;
position = "{327, -50}";
},
{
name = bottom2;
position = "{309, -50}";
},
{
name = bottom3;
position = "{291, 56}";
},
{
name = top;
position = "{304, 660}";
},
{
name = top2;
position = "{282, 660}";
}
);
paths = (
{
closed = 1;
nodes = (
"448 27 OFFCURVE",
"516 85 OFFCURVE",
"516 163 CURVE SMOOTH",
"516 228 OFFCURVE",
"439 299 OFFCURVE",
"364 299 CURVE SMOOTH",
"291 299 OFFCURVE",
"244 254 OFFCURVE",
"244 191 CURVE SMOOTH",
"244 153 OFFCURVE",
"259 120 OFFCURVE",
"289 91 CURVE",
"201 97 OFFCURVE",
"143 141 OFFCURVE",
"143 218 CURVE SMOOTH",
"143 282 OFFCURVE",
"178 321 OFFCURVE",
"263 352 CURVE SMOOTH",
"350 384 LINE SMOOTH",
"419 409 OFFCURVE",
"440 434 OFFCURVE",
"440 503 CURVE SMOOTH",
"440 558 LINE",
"542 558 LINE",
"542 567 LINE",
"510 625 LINE",
"25 625 LINE",
"25 616 LINE",
"57 558 LINE",
"362 558 LINE",
"362 521 LINE SMOOTH",
"362 477 OFFCURVE",
"336 461 OFFCURVE",
"293 446 CURVE SMOOTH",
"204 414 LINE SMOOTH",
"111 381 OFFCURVE",
"63 333 OFFCURVE",
"63 250 CURVE SMOOTH",
"63 125 OFFCURVE",
"206 27 OFFCURVE",
"336 27 CURVE SMOOTH"
);
},
{
closed = 1;
nodes = (
"329 110 OFFCURVE",
"323 130 OFFCURVE",
"323 157 CURVE SMOOTH",
"323 205 OFFCURVE",
"351 236 OFFCURVE",
"390 236 CURVE SMOOTH",
"418 236 OFFCURVE",
"436 217 OFFCURVE",
"436 189 CURVE SMOOTH",
"436 145 OFFCURVE",
"409 103 OFFCURVE",
"339 93 CURVE"
);
}
);
};
layerId = "284FCB4C-24BB-4F0E-B388-CD6C9D45C343";
paths = (
{
closed = 1;
nodes = (
"448 27 OFFCURVE",
"516 85 OFFCURVE",
"516 163 CURVE SMOOTH",
"516 228 OFFCURVE",
"439 299 OFFCURVE",
"364 299 CURVE SMOOTH",
"291 299 OFFCURVE",
"244 254 OFFCURVE",
"244 191 CURVE SMOOTH",
"244 153 OFFCURVE",
"259 120 OFFCURVE",
"289 91 CURVE",
"201 97 OFFCURVE",
"143 141 OFFCURVE",
"143 218 CURVE SMOOTH",
"143 282 OFFCURVE",
"178 321 OFFCURVE",
"263 352 CURVE SMOOTH",
"350 384 LINE SMOOTH",
"419 409 OFFCURVE",
"440 434 OFFCURVE",
"440 503 CURVE SMOOTH",
"440 558 LINE",
"542 558 LINE",
"542 567 LINE",
"510 625 LINE",
"25 625 LINE",
"25 616 LINE",
"57 558 LINE",
"362 558 LINE",
"362 521 LINE SMOOTH",
"362 477 OFFCURVE",
"336 461 OFFCURVE",
"293 446 CURVE SMOOTH",
"204 414 LINE SMOOTH",
"111 381 OFFCURVE",
"63 333 OFFCURVE",
"63 250 CURVE SMOOTH",
"63 125 OFFCURVE",
"206 27 OFFCURVE",
"336 27 CURVE SMOOTH"
);
},
{
closed = 1;
nodes = (
"329 110 OFFCURVE",
"323 130 OFFCURVE",
"323 157 CURVE SMOOTH",
"323 205 OFFCURVE",
"351 236 OFFCURVE",
"390 236 CURVE SMOOTH",
"418 236 OFFCURVE",
"436 217 OFFCURVE",
"436 189 CURVE SMOOTH",
"436 145 OFFCURVE",
"409 103 OFFCURVE",
"339 93 CURVE"
);
}
);
width = 567;
}
);
unicode = 1181F;
category = Letter;
},
{
glyphname = Ba.dogra;
lastChange = "2019-09-07 12:07:09 +0000";
layers = (
{
anchors = (
{
name = bottom1;
position = "{294, -50}";
},
{
name = bottom2;
position = "{296, -70}";
},
{
name = bottom3;
position = "{297, 9}";
},
{
name = top;
position = "{284, 660}";
},
{
name = top2;
position = "{282, 660}";
}
);
background = {
anchors = (
{
name = bottom1;
position = "{294, -50}";
},
{
name = bottom2;
position = "{296, -70}";
},
{
name = bottom3;
position = "{297, 9}";
},
{
name = top;
position = "{284, 660}";
},
{
name = top2;
position = "{282, 660}";
}
);
paths = (
{
closed = 1;
nodes = (
"500 -47 LINE",
"410 95 LINE",
"452 115 OFFCURVE",
"483 144 OFFCURVE",
"483 182 CURVE SMOOTH",
"483 216 OFFCURVE",
"454 250 OFFCURVE",
"411 250 CURVE SMOOTH",
"376 250 OFFCURVE",
"346 232 OFFCURVE",
"330 209 CURVE",
"239 352 LINE",
"242 353 LINE",
"326 385 LINE SMOOTH",
"393 410 OFFCURVE",
"419 430 OFFCURVE",
"419 497 CURVE SMOOTH",
"419 558 LINE",
"521 558 LINE",
"521 567 LINE",
"489 625 LINE",
"25 625 LINE",
"25 616 LINE",
"57 558 LINE",
"341 558 LINE",
"341 518 LINE SMOOTH",
"341 479 OFFCURVE",
"329 469 OFFCURVE",
"279 450 CURVE SMOOTH",
"184 414 LINE SMOOTH",
"88 378 OFFCURVE",
"55 326 OFFCURVE",
"55 262 CURVE SMOOTH",
"55 150 OFFCURVE",
"182 66 OFFCURVE",
"296 66 CURVE SMOOTH",
"325 66 OFFCURVE",
"344 69 OFFCURVE",
"362 75 CURVE",
"444 -79 LINE"
);
},
{
closed = 1;
nodes = (
"191 131 OFFCURVE",
"135 160 OFFCURVE",
"135 234 CURVE SMOOTH",
"135 272 OFFCURVE",
"150 303 OFFCURVE",
"194 330 CURVE",
"314 139 LINE",
"298 134 OFFCURVE",
"282 131 OFFCURVE",
"262 131 CURVE SMOOTH"
);
}
);
};
layerId = "284FCB4C-24BB-4F0E-B388-CD6C9D45C343";
paths = (
{
closed = 1;
nodes = (
"500 -47 LINE",
"410 95 LINE",
"452 115 OFFCURVE",
"483 144 OFFCURVE",
"483 182 CURVE SMOOTH",
"483 216 OFFCURVE",
"454 250 OFFCURVE",
"411 250 CURVE SMOOTH",
"376 250 OFFCURVE",
"346 232 OFFCURVE",
"330 209 CURVE",
"239 352 LINE",
"242 353 LINE",
"326 385 LINE SMOOTH",
"393 410 OFFCURVE",
"419 430 OFFCURVE",
"419 497 CURVE SMOOTH",
"419 558 LINE",
"521 558 LINE",
"521 567 LINE",
"489 625 LINE",
"25 625 LINE",
"25 616 LINE",
"57 558 LINE",
"341 558 LINE",
"341 518 LINE SMOOTH",
"341 479 OFFCURVE",
"329 469 OFFCURVE",
"279 450 CURVE SMOOTH",
"184 414 LINE SMOOTH",
"88 378 OFFCURVE",
"55 326 OFFCURVE",
"55 262 CURVE SMOOTH",
"55 150 OFFCURVE",
"182 66 OFFCURVE",
"296 66 CURVE SMOOTH",
"325 66 OFFCURVE",
"344 69 OFFCURVE",
"362 75 CURVE",
"444 -79 LINE"
);
},
{
closed = 1;
nodes = (
"191 131 OFFCURVE",
"135 160 OFFCURVE",
"135 234 CURVE SMOOTH",
"135 272 OFFCURVE",
"150 303 OFFCURVE",
"194 330 CURVE",
"314 139 LINE",
"298 134 OFFCURVE",
"282 131 OFFCURVE",
"262 131 CURVE SMOOTH"
);
}
);
width = 546;
}
);
unicode = 11820;
category = Letter;
},
{
glyphname = Bha.dogra;
lastChange = "2019-09-07 12:07:09 +0000";
layers = (
{
anchors = (
{
name = bottom1;
position = "{324, -50}";
},
{
name = bottom2;
position = "{304, -50}";
},
{
name = bottom3;
position = "{282, 56}";
},
{
name = top;
position = "{319, 660}";
},
{
name = top2;
position = "{282, 660}";
}
);
background = {
anchors = (
{
name = bottom1;
position = "{324, -50}";
},
{
name = bottom2;
position = "{304, -50}";
},
{
name = bottom3;
position = "{282, 56}";
},
{
name = top;
position = "{319, 660}";
},
{
name = top2;
position = "{282, 660}";
}
);
paths = (
{
closed = 1;
nodes = (
"462 20 OFFCURVE",
"544 98 OFFCURVE",
"544 210 CURVE SMOOTH",
"544 268 OFFCURVE",
"520 315 OFFCURVE",
"483 356 CURVE",
"506 411 OFFCURVE",
"520 479 OFFCURVE",
"525 558 CURVE",
"587 558 LINE",
"587 567 LINE",
"555 625 LINE",
"25 625 LINE",
"25 616 LINE",
"57 558 LINE",
"443 558 LINE",
"438 509 OFFCURVE",
"430 460 OFFCURVE",
"417 417 CURVE",
"371 453 OFFCURVE",
"314 483 OFFCURVE",
"241 483 CURVE SMOOTH",
"138 483 OFFCURVE",
"82 434 OFFCURVE",
"82 361 CURVE SMOOTH",
"82 280 OFFCURVE",
"187 209 OFFCURVE",
"287 209 CURVE SMOOTH",
"361 209 OFFCURVE",
"417 243 OFFCURVE",
"457 305 CURVE",
"464 286 OFFCURVE",
"467 265 OFFCURVE",
"467 242 CURVE SMOOTH",
"467 158 OFFCURVE",
"405 86 OFFCURVE",
"270 86 CURVE SMOOTH",
"191 86 OFFCURVE",
"124 110 OFFCURVE",
"68 143 CURVE",
"62 138 LINE",
"83 74 LINE",
"131 47 OFFCURVE",
"203 20 OFFCURVE",
"296 20 CURVE SMOOTH"
);
},
{
closed = 1;
nodes = (
"191 272 OFFCURVE",
"160 298 OFFCURVE",
"160 338 CURVE SMOOTH",
"160 384 OFFCURVE",
"201 417 OFFCURVE",
"270 417 CURVE SMOOTH",
"327 417 OFFCURVE",
"368 396 OFFCURVE",
"400 372 CURVE",
"371 312 OFFCURVE",
"325 272 OFFCURVE",
"248 272 CURVE SMOOTH"
);
}
);
};
layerId = "284FCB4C-24BB-4F0E-B388-CD6C9D45C343";
paths = (
{
closed = 1;
nodes = (
"462 20 OFFCURVE",
"544 98 OFFCURVE",
"544 210 CURVE SMOOTH",
"544 268 OFFCURVE",
"520 315 OFFCURVE",
"483 356 CURVE",
"506 411 OFFCURVE",
"520 479 OFFCURVE",
"525 558 CURVE",
"587 558 LINE",
"587 567 LINE",
"555 625 LINE",
"25 625 LINE",
"25 616 LINE",
"57 558 LINE",
"443 558 LINE",
"438 509 OFFCURVE",
"430 460 OFFCURVE",
"417 417 CURVE",
"371 453 OFFCURVE",
"314 483 OFFCURVE",
"241 483 CURVE SMOOTH",
"138 483 OFFCURVE",
"82 434 OFFCURVE",
"82 361 CURVE SMOOTH",
"82 280 OFFCURVE",
"187 209 OFFCURVE",
"287 209 CURVE SMOOTH",
"361 209 OFFCURVE",
"417 243 OFFCURVE",
"457 305 CURVE",
"464 286 OFFCURVE",
"467 265 OFFCURVE",
"467 242 CURVE SMOOTH",
"467 158 OFFCURVE",
"405 86 OFFCURVE",
"270 86 CURVE SMOOTH",
"191 86 OFFCURVE",
"124 110 OFFCURVE",
"68 143 CURVE",
"62 138 LINE",
"83 74 LINE",
"131 47 OFFCURVE",
"203 20 OFFCURVE",
"296 20 CURVE SMOOTH"
);
},
{
closed = 1;
nodes = (
"191 272 OFFCURVE",
"160 298 OFFCURVE",
"160 338 CURVE SMOOTH",
"160 384 OFFCURVE",
"201 417 OFFCURVE",
"270 417 CURVE SMOOTH",
"327 417 OFFCURVE",
"368 396 OFFCURVE",
"400 372 CURVE",
"371 312 OFFCURVE",
"325 272 OFFCURVE",
"248 272 CURVE SMOOTH"
);
}
);
width = 612;
}
);
unicode = 11821;
category = Letter;
},
{
glyphname = Ma.dogra;
lastChange = "2019-09-07 12:07:09 +0000";
layers = (
{
anchors = (
{
name = bottom1;
position = "{359, -50}";
},
{
name = bottom2;
position = "{320, -70}";
},
{
name = bottom3;
position = "{220, 46}";
},
{
name = top;
position = "{320, 660}";
},
{
name = top2;
position = "{271, 660}";
}
);
background = {
anchors = (
{
name = bottom1;
position = "{359, -50}";
},
{
name = bottom2;
position = "{320, -70}";
},
{
name = bottom3;
position = "{220, 46}";
},
{
name = top;
position = "{320, 660}";
},
{
name = top2;
position = "{271, 660}";
}
);
paths = (
{
closed = 1;
nodes = (
"423 -10 LINE",
"415 7 OFFCURVE",
"409 23 OFFCURVE",
"409 49 CURVE SMOOTH",
"409 89 OFFCURVE",
"421 119 OFFCURVE",
"467 202 CURVE SMOOTH",
"510 278 LINE SMOOTH",
"557 360 OFFCURVE",
"577 401 OFFCURVE",
"577 452 CURVE SMOOTH",
"577 529 OFFCURVE",
"490 629 OFFCURVE",
"402 629 CURVE SMOOTH",
"328 629 OFFCURVE",
"284 596 OFFCURVE",
"208 473 CURVE",
"190 559 OFFCURVE",
"142 625 OFFCURVE",
"52 625 CURVE SMOOTH",
"9 625 LINE",
"9 616 LINE",
"41 554 LINE",
"86 554 LINE SMOOTH",
"140 554 OFFCURVE",
"168 520 OFFCURVE",
"168 410 CURVE SMOOTH",
"168 405 LINE",
"102 291 LINE SMOOTH",
"92 273 OFFCURVE",
"88 264 OFFCURVE",
"88 251 CURVE SMOOTH",
"88 223 OFFCURVE",
"118 198 OFFCURVE",
"150 198 CURVE SMOOTH",
"195 198 OFFCURVE",
"225 247 OFFCURVE",
"229 336 CURVE",
"242 362 LINE SMOOTH",
"318 509 OFFCURVE",
"368 562 OFFCURVE",
"432 562 CURVE SMOOTH",
"475 562 OFFCURVE",
"496 531 OFFCURVE",
"496 487 CURVE SMOOTH",
"496 431 OFFCURVE",
"475 391 OFFCURVE",
"438 326 CURVE SMOOTH",
"396 253 LINE SMOOTH",
"342 159 OFFCURVE",
"328 131 OFFCURVE",
"328 88 CURVE SMOOTH",
"328 45 OFFCURVE",
"363 9 OFFCURVE",
"411 -21 CURVE"
);
}
);
};
layerId = "284FCB4C-24BB-4F0E-B388-CD6C9D45C343";
paths = (
{
closed = 1;
nodes = (
"423 -10 LINE",
"415 7 OFFCURVE",
"409 23 OFFCURVE",
"409 49 CURVE SMOOTH",
"409 89 OFFCURVE",
"421 119 OFFCURVE",
"467 202 CURVE SMOOTH",
"510 278 LINE SMOOTH",
"557 360 OFFCURVE",
"577 401 OFFCURVE",
"577 452 CURVE SMOOTH",
"577 529 OFFCURVE",
"490 629 OFFCURVE",
"402 629 CURVE SMOOTH",
"328 629 OFFCURVE",
"284 596 OFFCURVE",
"208 473 CURVE",
"190 559 OFFCURVE",
"142 625 OFFCURVE",
"52 625 CURVE SMOOTH",
"9 625 LINE",
"9 616 LINE",
"41 554 LINE",
"86 554 LINE SMOOTH",
"140 554 OFFCURVE",
"168 520 OFFCURVE",
"168 410 CURVE SMOOTH",
"168 405 LINE",
"102 291 LINE SMOOTH",
"92 273 OFFCURVE",
"88 264 OFFCURVE",
"88 251 CURVE SMOOTH",
"88 223 OFFCURVE",
"118 198 OFFCURVE",
"150 198 CURVE SMOOTH",
"195 198 OFFCURVE",
"225 247 OFFCURVE",
"229 336 CURVE",
"242 362 LINE SMOOTH",
"318 509 OFFCURVE",
"368 562 OFFCURVE",
"432 562 CURVE SMOOTH",
"475 562 OFFCURVE",
"496 531 OFFCURVE",
"496 487 CURVE SMOOTH",
"496 431 OFFCURVE",
"475 391 OFFCURVE",
"438 326 CURVE SMOOTH",
"396 253 LINE SMOOTH",
"342 159 OFFCURVE",
"328 131 OFFCURVE",
"328 88 CURVE SMOOTH",
"328 45 OFFCURVE",
"363 9 OFFCURVE",
"411 -21 CURVE"
);
}
);
width = 625;
}
);
unicode = 11822;
category = Letter;
},
{
glyphname = Ya.dogra;
lastChange = "2019-09-07 12:07:09 +0000";
layers = (
{
anchors = (
{
name = bottom1;
position = "{489, -50}";
},
{
name = bottom2;
position = "{293, -30}";
},
{
name = bottom3;
position = "{325, 56}";
},
{
name = top;
position = "{337, 660}";
},
{
name = top2;
position = "{282, 660}";
}
);
background = {
anchors = (
{
name = bottom1;
position = "{489, -50}";
},
{
name = bottom2;
position = "{293, -30}";
},
{
name = bottom3;
position = "{325, 56}";
},
{
name = top;
position = "{337, 660}";
},
{
name = top2;
position = "{282, 660}";
}
);
paths = (
{
closed = 1;
nodes = (
"528 -4 LINE",
"528 558 LINE",
"606 558 LINE",
"606 567 LINE",
"574 625 LINE",
"25 625 LINE",
"25 616 LINE",
"57 558 LINE",
"150 558 LINE",
"170 516 OFFCURVE",
"182 479 OFFCURVE",
"182 450 CURVE SMOOTH",
"182 425 OFFCURVE",
"165 410 OFFCURVE",
"127 385 CURVE SMOOTH",
"71 349 LINE SMOOTH",
"58 340 OFFCURVE",
"54 328 OFFCURVE",
"54 317 CURVE SMOOTH",
"54 305 OFFCURVE",
"58 293 OFFCURVE",
"67 275 CURVE SMOOTH",
"106 200 OFFCURVE",
"194 135 OFFCURVE",
"309 135 CURVE SMOOTH",
"366 135 OFFCURVE",
"412 145 OFFCURVE",
"450 162 CURVE",
"450 30 LINE",
"519 -4 LINE"
);
},
{
closed = 1;
nodes = (
"200 201 OFFCURVE",
"151 235 OFFCURVE",
"122 285 CURVE",
"171 318 LINE SMOOTH",
"240 365 OFFCURVE",
"257 386 OFFCURVE",
"257 427 CURVE SMOOTH",
"257 463 OFFCURVE",
"237 512 OFFCURVE",
"214 558 CURVE",
"450 558 LINE",
"450 260 LINE",
"415 229 OFFCURVE",
"358 201 OFFCURVE",
"289 201 CURVE SMOOTH"
);
}
);
};
layerId = "284FCB4C-24BB-4F0E-B388-CD6C9D45C343";
paths = (
{
closed = 1;
nodes = (
"528 -4 LINE",
"528 558 LINE",
"606 558 LINE",
"606 567 LINE",
"574 625 LINE",
"25 625 LINE",
"25 616 LINE",
"57 558 LINE",
"150 558 LINE",
"170 516 OFFCURVE",
"182 479 OFFCURVE",
"182 450 CURVE SMOOTH",
"182 425 OFFCURVE",
"165 410 OFFCURVE",
"127 385 CURVE SMOOTH",
"71 349 LINE SMOOTH",
"58 340 OFFCURVE",
"54 328 OFFCURVE",
"54 317 CURVE SMOOTH",
"54 305 OFFCURVE",
"58 293 OFFCURVE",
"67 275 CURVE SMOOTH",
"106 200 OFFCURVE",
"194 135 OFFCURVE",
"309 135 CURVE SMOOTH",
"366 135 OFFCURVE",
"412 145 OFFCURVE",
"450 162 CURVE",
"450 30 LINE",
"519 -4 LINE"
);
},
{
closed = 1;
nodes = (
"200 201 OFFCURVE",
"151 235 OFFCURVE",
"122 285 CURVE",
"171 318 LINE SMOOTH",
"240 365 OFFCURVE",
"257 386 OFFCURVE",
"257 427 CURVE SMOOTH",
"257 463 OFFCURVE",
"237 512 OFFCURVE",
"214 558 CURVE",
"450 558 LINE",
"450 260 LINE",
"415 229 OFFCURVE",
"358 201 OFFCURVE",
"289 201 CURVE SMOOTH"
);
}
);
width = 631;
}
);
unicode = 11823;
category = Letter;
userData = {
com.typemytype.robofont.guides = (
{
isGlobal = 0;
magnetic = 5;
x = 0;
y = 105;
}
);
};
},
{
glyphname = Ra.dogra;
lastChange = "2019-09-07 12:07:09 +0000";
layers = (
{
anchors = (
{
name = bottom1;
position = "{215, -50}";
},
{
name = bottom2;
position = "{206, -30}";
},
{
name = bottom3;
position = "{145, 56}";
},
{
name = top;
position = "{189, 660}";
},
{
name = top2;
position = "{284, 660}";
}
);
background = {
anchors = (
{
name = bottom1;
position = "{215, -50}";
},
{
name = bottom2;
position = "{206, -30}";
},
{
name = bottom3;
position = "{145, 56}";
},
{
name = top;
position = "{189, 660}";
},
{
name = top2;
position = "{284, 660}";
}
);
paths = (
{
closed = 1;
nodes = (
"305 33 LINE",
"153 223 LINE",
"235 277 OFFCURVE",
"274 316 OFFCURVE",
"274 436 CURVE SMOOTH",
"274 558 LINE",
"338 558 LINE",
"338 567 LINE",
"306 625 LINE",
"25 625 LINE",
"25 616 LINE",
"57 558 LINE",
"196 558 LINE",
"196 448 LINE SMOOTH",
"196 426 OFFCURVE",
"194 408 OFFCURVE",
"192 393 CURVE",
"107 351 LINE SMOOTH",
"74 335 OFFCURVE",
"57 322 OFFCURVE",
"57 297 CURVE SMOOTH",
"57 272 OFFCURVE",
"70 250 OFFCURVE",
"96 215 CURVE SMOOTH",
"257 -5 LINE"
);
}
);
};
layerId = "284FCB4C-24BB-4F0E-B388-CD6C9D45C343";
paths = (
{
closed = 1;
nodes = (
"305 33 LINE",
"153 223 LINE",
"235 277 OFFCURVE",
"274 316 OFFCURVE",
"274 436 CURVE SMOOTH",
"274 558 LINE",
"338 558 LINE",
"338 567 LINE",
"306 625 LINE",
"25 625 LINE",
"25 616 LINE",
"57 558 LINE",
"196 558 LINE",
"196 448 LINE SMOOTH",
"196 426 OFFCURVE",
"194 408 OFFCURVE",
"192 393 CURVE",
"107 351 LINE SMOOTH",
"74 335 OFFCURVE",
"57 322 OFFCURVE",
"57 297 CURVE SMOOTH",
"57 272 OFFCURVE",
"70 250 OFFCURVE",
"96 215 CURVE SMOOTH",
"257 -5 LINE"
);
}
);
width = 363;
}
);
unicode = 11824;
category = Letter;
},
{
glyphname = La.dogra;
lastChange = "2019-09-07 12:07:09 +0000";
layers = (
{
anchors = (
{
name = bottom1;
position = "{504, -50}";
},
{
name = bottom2;
position = "{370, -30}";
},
{
name = bottom3;
position = "{362, 46}";
},
{
name = top;
position = "{375, 660}";
},
{
name = top2;
position = "{282, 660}";
}
);
background = {
anchors = (
{
name = bottom1;
position = "{504, -50}";
},
{
name = bottom2;
position = "{370, -30}";
},
{
name = bottom3;
position = "{362, 46}";
},
{
name = top;
position = "{375, 660}";
},
{
name = top2;
position = "{282, 660}";
}
);
paths = (
{
closed = 1;
nodes = (
"565 -10 LINE",
"558 8 OFFCURVE",
"555 20 OFFCURVE",
"555 39 CURVE SMOOTH",
"555 65 OFFCURVE",
"562 85 OFFCURVE",
"585 128 CURVE SMOOTH",
"611 176 LINE SMOOTH",
"648 244 OFFCURVE",
"666 279 OFFCURVE",
"666 326 CURVE SMOOTH",
"666 404 OFFCURVE",
"580 495 OFFCURVE",
"487 495 CURVE SMOOTH",
"431 495 OFFCURVE",
"387 470 OFFCURVE",
"355 419 CURVE",
"323 464 OFFCURVE",
"277 495 OFFCURVE",
"212 495 CURVE SMOOTH",
"126 495 OFFCURVE",
"64 439 OFFCURVE",
"64 346 CURVE SMOOTH",
"64 292 OFFCURVE",
"89 247 OFFCURVE",
"109 226 CURVE",
"171 205 LINE",
"175 210 LINE",
"159 240 OFFCURVE",
"145 279 OFFCURVE",
"145 320 CURVE SMOOTH",
"145 392 OFFCURVE",
"187 431 OFFCURVE",
"247 431 CURVE SMOOTH",
"284 431 OFFCURVE",
"313 410 OFFCURVE",
"333 377 CURVE",
"319 342 OFFCURVE",
"308 299 OFFCURVE",
"301 248 CURVE",
"382 215 LINE",
"408 376 OFFCURVE",
"461 431 OFFCURVE",
"522 431 CURVE SMOOTH",
"566 431 OFFCURVE",
"587 399 OFFCURVE",
"587 357 CURVE SMOOTH",
"587 306 OFFCURVE",
"568 272 OFFCURVE",
"546 231 CURVE SMOOTH",
"520 183 LINE SMOOTH",
"490 128 OFFCURVE",
"479 107 OFFCURVE",
"479 75 CURVE SMOOTH",
"479 38 OFFCURVE",
"511 8 OFFCURVE",
"552 -20 CURVE"
);
},
{
closed = 1;
nodes = (
"703 558 LINE",
"703 567 LINE",
"671 625 LINE",
"25 625 LINE",
"25 616 LINE",
"57 558 LINE"
);
}
);
};
layerId = "284FCB4C-24BB-4F0E-B388-CD6C9D45C343";
paths = (
{
closed = 1;
nodes = (
"565 -10 LINE",
"558 8 OFFCURVE",
"555 20 OFFCURVE",
"555 39 CURVE SMOOTH",
"555 65 OFFCURVE",
"562 85 OFFCURVE",
"585 128 CURVE SMOOTH",
"611 176 LINE SMOOTH",
"648 244 OFFCURVE",
"666 279 OFFCURVE",
"666 326 CURVE SMOOTH",
"666 404 OFFCURVE",
"580 495 OFFCURVE",
"487 495 CURVE SMOOTH",
"431 495 OFFCURVE",
"387 470 OFFCURVE",
"355 419 CURVE",
"323 464 OFFCURVE",
"277 495 OFFCURVE",
"212 495 CURVE SMOOTH",
"126 495 OFFCURVE",
"64 439 OFFCURVE",
"64 346 CURVE SMOOTH",
"64 292 OFFCURVE",
"89 247 OFFCURVE",
"109 226 CURVE",
"171 205 LINE",
"175 210 LINE",
"159 240 OFFCURVE",
"145 279 OFFCURVE",
"145 320 CURVE SMOOTH",
"145 392 OFFCURVE",
"187 431 OFFCURVE",
"247 431 CURVE SMOOTH",
"284 431 OFFCURVE",
"313 410 OFFCURVE",
"333 377 CURVE",
"319 342 OFFCURVE",
"308 299 OFFCURVE",
"301 248 CURVE",
"382 215 LINE",
"408 376 OFFCURVE",
"461 431 OFFCURVE",
"522 431 CURVE SMOOTH",
"566 431 OFFCURVE",
"587 399 OFFCURVE",
"587 357 CURVE SMOOTH",
"587 306 OFFCURVE",
"568 272 OFFCURVE",
"546 231 CURVE SMOOTH",
"520 183 LINE SMOOTH",
"490 128 OFFCURVE",
"479 107 OFFCURVE",
"479 75 CURVE SMOOTH",
"479 38 OFFCURVE",
"511 8 OFFCURVE",
"552 -20 CURVE"
);
},
{
closed = 1;
nodes = (
"703 558 LINE",
"703 567 LINE",
"671 625 LINE",
"25 625 LINE",
"25 616 LINE",
"57 558 LINE"
);
}
);
width = 728;
}
);
unicode = 11825;
category = Letter;
},
{
glyphname = Va.dogra;
lastChange = "2019-09-07 12:07:09 +0000";
layers = (
{
anchors = (
{
name = bottom1;
position = "{294, -50}";
},
{
name = bottom2;
position = "{296, -70}";
},
{
name = bottom3;
position = "{297, 9}";
},
{
name = top;
position = "{284, 660}";
},
{
name = top2;
position = "{282, 660}";
}
);
background = {
anchors = (
{
name = bottom1;
position = "{294, -50}";
},
{
name = bottom2;
position = "{296, -70}";
},
{
name = bottom3;
position = "{297, 9}";
},
{
name = top;
position = "{284, 660}";
},
{
name = top2;
position = "{282, 660}";
}
);
paths = (
{
closed = 1;
nodes = (
"500 -47 LINE",
"410 95 LINE",
"452 114 OFFCURVE",
"483 144 OFFCURVE",
"483 182 CURVE SMOOTH",
"483 216 OFFCURVE",
"454 250 OFFCURVE",
"411 250 CURVE SMOOTH",
"361 250 OFFCURVE",
"319 213 OFFCURVE",
"319 174 CURVE SMOOTH",
"319 163 OFFCURVE",
"321 154 OFFCURVE",
"325 147 CURVE",
"305 140 OFFCURVE",
"283 136 OFFCURVE",
"262 136 CURVE SMOOTH",
"197 136 OFFCURVE",
"141 160 OFFCURVE",
"141 234 CURVE SMOOTH",
"141 283 OFFCURVE",
"164 318 OFFCURVE",
"242 348 CURVE SMOOTH",
"326 380 LINE SMOOTH",
"393 405 OFFCURVE",
"419 425 OFFCURVE",
"419 492 CURVE SMOOTH",
"419 558 LINE",
"521 558 LINE",
"521 567 LINE",
"489 625 LINE",
"25 625 LINE",
"25 616 LINE",
"57 558 LINE",
"341 558 LINE",
"341 513 LINE SMOOTH",
"341 474 OFFCURVE",
"329 464 OFFCURVE",
"279 445 CURVE SMOOTH",
"184 409 LINE SMOOTH",
"92 374 OFFCURVE",
"61 326 OFFCURVE",
"61 262 CURVE SMOOTH",
"61 150 OFFCURVE",
"188 71 OFFCURVE",
"296 71 CURVE SMOOTH",
"324 71 OFFCURVE",
"342 74 OFFCURVE",
"360 78 CURVE",
"444 -79 LINE"
);
}
);
};
layerId = "284FCB4C-24BB-4F0E-B388-CD6C9D45C343";
paths = (
{
closed = 1;
nodes = (
"500 -47 LINE",
"410 95 LINE",
"452 114 OFFCURVE",
"483 144 OFFCURVE",
"483 182 CURVE SMOOTH",
"483 216 OFFCURVE",
"454 250 OFFCURVE",
"411 250 CURVE SMOOTH",
"361 250 OFFCURVE",
"319 213 OFFCURVE",
"319 174 CURVE SMOOTH",
"319 163 OFFCURVE",
"321 154 OFFCURVE",
"325 147 CURVE",
"305 140 OFFCURVE",
"283 136 OFFCURVE",
"262 136 CURVE SMOOTH",
"197 136 OFFCURVE",
"141 160 OFFCURVE",
"141 234 CURVE SMOOTH",
"141 283 OFFCURVE",
"164 318 OFFCURVE",
"242 348 CURVE SMOOTH",
"326 380 LINE SMOOTH",
"393 405 OFFCURVE",
"419 425 OFFCURVE",
"419 492 CURVE SMOOTH",
"419 558 LINE",
"521 558 LINE",
"521 567 LINE",
"489 625 LINE",
"25 625 LINE",
"25 616 LINE",
"57 558 LINE",
"341 558 LINE",
"341 513 LINE SMOOTH",
"341 474 OFFCURVE",
"329 464 OFFCURVE",
"279 445 CURVE SMOOTH",
"184 409 LINE SMOOTH",
"92 374 OFFCURVE",
"61 326 OFFCURVE",
"61 262 CURVE SMOOTH",
"61 150 OFFCURVE",
"188 71 OFFCURVE",
"296 71 CURVE SMOOTH",
"324 71 OFFCURVE",
"342 74 OFFCURVE",
"360 78 CURVE",
"444 -79 LINE"
);
}
);
width = 546;
}
);
unicode = 11826;
category = Letter;
},
{
glyphname = Sha.dogra;
lastChange = "2019-09-07 12:07:09 +0000";
layers = (
{
anchors = (
{
name = bottom1;
position = "{611, -50}";
},
{
name = bottom2;
position = "{404, -50}";
},
{
name = bottom3;
position = "{447, 56}";
},
{
name = top;
position = "{395, 660}";
},
{
name = top2;
position = "{282, 660}";
}
);
background = {
anchors = (
{
name = bottom1;
position = "{611, -50}";
},
{
name = bottom2;
position = "{404, -50}";
},
{
name = bottom3;
position = "{447, 56}";
},
{
name = top;
position = "{395, 660}";
},
{
name = top2;
position = "{282, 660}";
}
);
paths = (
{
closed = 1;
nodes = (
"405 27 LINE",
"252 187 LINE",
"374 247 OFFCURVE",
"414 331 OFFCURVE",
"414 458 CURVE SMOOTH",
"414 469 LINE SMOOTH",
"414 501 OFFCURVE",
"411 532 OFFCURVE",
"406 558 CURVE",
"572 558 LINE",
"572 30 LINE",
"641 -4 LINE",
"650 -4 LINE",
"650 558 LINE",
"728 558 LINE",
"728 567 LINE",
"696 625 LINE",
"25 625 LINE",
"25 616 LINE",
"58 558 LINE",
"103 558 LINE",
"96 542 OFFCURVE",
"93 524 OFFCURVE",
"93 504 CURVE SMOOTH",
"93 405 OFFCURVE",
"178 355 OFFCURVE",
"300 332 CURVE",
"278 298 OFFCURVE",
"245 271 OFFCURVE",
"197 252 CURVE",
"164 283 OFFCURVE",
"142 295 OFFCURVE",
"117 295 CURVE SMOOTH",
"85 295 OFFCURVE",
"63 275 OFFCURVE",
"63 242 CURVE SMOOTH",
"63 200 OFFCURVE",
"108 160 OFFCURVE",
"160 160 CURVE SMOOTH",
"175 160 OFFCURVE",
"189 162 OFFCURVE",
"202 166 CURVE",
"359 -16 LINE"
);
},
{
closed = 1;
nodes = (
"218 393 OFFCURVE",
"173 431 OFFCURVE",
"173 489 CURVE SMOOTH",
"173 499 LINE SMOOTH",
"173 522 OFFCURVE",
"180 543 OFFCURVE",
"190 558 CURVE",
"327 558 LINE",
"332 532 OFFCURVE",
"334 504 OFFCURVE",
"334 475 CURVE SMOOTH",
"334 464 LINE SMOOTH",
"334 431 OFFCURVE",
"330 401 OFFCURVE",
"321 375 CURVE"
);
}
);
};
layerId = "284FCB4C-24BB-4F0E-B388-CD6C9D45C343";
paths = (
{
closed = 1;
nodes = (
"405 27 LINE",
"252 187 LINE",
"374 247 OFFCURVE",
"414 331 OFFCURVE",
"414 458 CURVE SMOOTH",
"414 469 LINE SMOOTH",
"414 501 OFFCURVE",
"411 532 OFFCURVE",
"406 558 CURVE",
"572 558 LINE",
"572 30 LINE",
"641 -4 LINE",
"650 -4 LINE",
"650 558 LINE",
"728 558 LINE",
"728 567 LINE",
"696 625 LINE",
"25 625 LINE",
"25 616 LINE",
"58 558 LINE",
"103 558 LINE",
"96 542 OFFCURVE",
"93 524 OFFCURVE",
"93 504 CURVE SMOOTH",
"93 405 OFFCURVE",
"178 355 OFFCURVE",
"300 332 CURVE",
"278 298 OFFCURVE",
"245 271 OFFCURVE",
"197 252 CURVE",
"164 283 OFFCURVE",
"142 295 OFFCURVE",
"117 295 CURVE SMOOTH",
"85 295 OFFCURVE",
"63 275 OFFCURVE",
"63 242 CURVE SMOOTH",
"63 200 OFFCURVE",
"108 160 OFFCURVE",
"160 160 CURVE SMOOTH",
"175 160 OFFCURVE",
"189 162 OFFCURVE",
"202 166 CURVE",
"359 -16 LINE"
);
},
{
closed = 1;
nodes = (
"218 393 OFFCURVE",
"173 431 OFFCURVE",
"173 489 CURVE SMOOTH",
"173 499 LINE SMOOTH",
"173 522 OFFCURVE",
"180 543 OFFCURVE",
"190 558 CURVE",
"327 558 LINE",
"332 532 OFFCURVE",
"334 504 OFFCURVE",
"334 475 CURVE SMOOTH",
"334 464 LINE SMOOTH",
"334 431 OFFCURVE",
"330 401 OFFCURVE",
"321 375 CURVE"
);
}
);
width = 753;
}
);
unicode = 11827;
category = Letter;
},
{
glyphname = Ssa.dogra;
lastChange = "2019-09-07 12:07:09 +0000";
layers = (
{
anchors = (
{
name = bottom1;
position = "{508, -50}";
},
{
name = bottom2;
position = "{332, -30}";
},
{
name = bottom3;
position = "{344, 56}";
},
{
name = top;
position = "{338, 660}";
},
{
name = top2;
position = "{282, 660}";
}
);
background = {
anchors = (
{
name = bottom1;
position = "{508, -50}";
},
{
name = bottom2;
position = "{332, -30}";
},
{
name = bottom3;
position = "{344, 56}";
},
{
name = top;
position = "{338, 660}";
},
{
name = top2;
position = "{282, 660}";
}
);
paths = (
{
closed = 1;
nodes = (
"547 -4 LINE",
"547 558 LINE",
"625 558 LINE",
"625 567 LINE",
"593 625 LINE",
"380 625 LINE",
"380 615 LINE",
"413 558 LINE",
"469 558 LINE",
"469 355 LINE",
"177 625 LINE",
"25 625 LINE",
"25 615 LINE",
"57 558 LINE",
"136 558 LINE",
"136 309 LINE",
"132 309 LINE SMOOTH",
"89 309 OFFCURVE",
"65 290 OFFCURVE",
"65 251 CURVE SMOOTH",
"65 197 OFFCURVE",
"120 143 OFFCURVE",
"165 143 CURVE SMOOTH",
"200 143 OFFCURVE",
"215 162 OFFCURVE",
"215 189 CURVE SMOOTH",
"215 241 LINE",
"469 241 LINE",
"469 30 LINE",
"538 -4 LINE"
);
},
{
closed = 1;
nodes = (
"214 523 LINE",
"450 308 LINE",
"214 308 LINE"
);
}
);
};
layerId = "284FCB4C-24BB-4F0E-B388-CD6C9D45C343";
paths = (
{
closed = 1;
nodes = (
"547 -4 LINE",
"547 558 LINE",
"625 558 LINE",
"625 567 LINE",
"593 625 LINE",
"380 625 LINE",
"380 615 LINE",
"413 558 LINE",
"469 558 LINE",
"469 355 LINE",
"177 625 LINE",
"25 625 LINE",
"25 615 LINE",
"57 558 LINE",
"136 558 LINE",
"136 309 LINE",
"132 309 LINE SMOOTH",
"89 309 OFFCURVE",
"65 290 OFFCURVE",
"65 251 CURVE SMOOTH",
"65 197 OFFCURVE",
"120 143 OFFCURVE",
"165 143 CURVE SMOOTH",
"200 143 OFFCURVE",
"215 162 OFFCURVE",
"215 189 CURVE SMOOTH",
"215 241 LINE",
"469 241 LINE",
"469 30 LINE",
"538 -4 LINE"
);
},
{
closed = 1;
nodes = (
"214 523 LINE",
"450 308 LINE",
"214 308 LINE"
);
}
);
width = 650;
}
);
unicode = 11828;
category = Letter;
},
{
glyphname = Sa.dogra;
lastChange = "2019-09-07 12:07:09 +0000";
layers = (
{
anchors = (
{
name = bottom1;
position = "{350, -50}";
},
{
name = bottom2;
position = "{304, -70}";
},
{
name = bottom3;
position = "{223, 46}";
},
{
name = top;
position = "{311, 660}";
},
{
name = top2;
position = "{282, 660}";
}
);
background = {
anchors = (
{
name = bottom1;
position = "{350, -50}";
},
{
name = bottom2;
position = "{304, -70}";
},
{
name = bottom3;
position = "{223, 46}";
},
{
name = top;
position = "{311, 660}";
},
{
name = top2;
position = "{282, 660}";
}
);
paths = (
{
closed = 1;
nodes = (
"426 -10 LINE",
"418 7 OFFCURVE",
"413 22 OFFCURVE",
"413 45 CURVE SMOOTH",
"413 77 OFFCURVE",
"420 105 OFFCURVE",
"454 163 CURVE SMOOTH",
"478 204 LINE SMOOTH",
"512 263 OFFCURVE",
"532 295 OFFCURVE",
"532 338 CURVE SMOOTH",
"532 413 OFFCURVE",
"441 506 OFFCURVE",
"353 506 CURVE SMOOTH",
"295 506 OFFCURVE",
"254 483 OFFCURVE",
"200 409 CURVE",
"187 466 OFFCURVE",
"161 521 OFFCURVE",
"126 558 CURVE",
"576 558 LINE",
"576 567 LINE",
"544 625 LINE",
"9 625 LINE",
"9 616 LINE",
"42 559 LINE",
"111 519 OFFCURVE",
"152 448 OFFCURVE",
"152 366 CURVE SMOOTH",
"152 355 OFFCURVE",
"152 345 OFFCURVE",
"151 335 CURVE",
"91 240 LINE SMOOTH",
"82 225 OFFCURVE",
"79 218 OFFCURVE",
"79 206 CURVE SMOOTH",
"79 179 OFFCURVE",
"109 155 OFFCURVE",
"142 155 CURVE SMOOTH",
"185 155 OFFCURVE",
"210 205 OFFCURVE",
"214 279 CURVE",
"235 313 LINE SMOOTH",
"292 405 OFFCURVE",
"332 442 OFFCURVE",
"387 442 CURVE SMOOTH",
"431 442 OFFCURVE",
"453 410 OFFCURVE",
"453 370 CURVE SMOOTH",
"453 333 OFFCURVE",
"435 296 OFFCURVE",
"404 244 CURVE SMOOTH",
"379 202 LINE SMOOTH",
"346 146 OFFCURVE",
"332 122 OFFCURVE",
"332 84 CURVE SMOOTH",
"332 45 OFFCURVE",
"370 7 OFFCURVE",
"414 -21 CURVE"
);
}
);
};
layerId = "284FCB4C-24BB-4F0E-B388-CD6C9D45C343";
paths = (
{
closed = 1;
nodes = (
"426 -10 LINE",
"418 7 OFFCURVE",
"413 22 OFFCURVE",
"413 45 CURVE SMOOTH",
"413 77 OFFCURVE",
"420 105 OFFCURVE",
"454 163 CURVE SMOOTH",
"478 204 LINE SMOOTH",
"512 263 OFFCURVE",
"532 295 OFFCURVE",
"532 338 CURVE SMOOTH",
"532 413 OFFCURVE",
"441 506 OFFCURVE",
"353 506 CURVE SMOOTH",
"295 506 OFFCURVE",
"254 483 OFFCURVE",
"200 409 CURVE",
"187 466 OFFCURVE",
"161 521 OFFCURVE",
"126 558 CURVE",
"576 558 LINE",
"576 567 LINE",
"544 625 LINE",
"9 625 LINE",
"9 616 LINE",
"42 559 LINE",
"111 519 OFFCURVE",
"152 448 OFFCURVE",
"152 366 CURVE SMOOTH",
"152 355 OFFCURVE",
"152 345 OFFCURVE",
"151 335 CURVE",
"91 240 LINE SMOOTH",
"82 225 OFFCURVE",
"79 218 OFFCURVE",
"79 206 CURVE SMOOTH",
"79 179 OFFCURVE",
"109 155 OFFCURVE",
"142 155 CURVE SMOOTH",
"185 155 OFFCURVE",
"210 205 OFFCURVE",
"214 279 CURVE",
"235 313 LINE SMOOTH",
"292 405 OFFCURVE",
"332 442 OFFCURVE",
"387 442 CURVE SMOOTH",
"431 442 OFFCURVE",
"453 410 OFFCURVE",
"453 370 CURVE SMOOTH",
"453 333 OFFCURVE",
"435 296 OFFCURVE",
"404 244 CURVE SMOOTH",
"379 202 LINE SMOOTH",
"346 146 OFFCURVE",
"332 122 OFFCURVE",
"332 84 CURVE SMOOTH",
"332 45 OFFCURVE",
"370 7 OFFCURVE",
"414 -21 CURVE"
);
}
);
width = 601;
}
);
unicode = 11829;
category = Letter;
},
{
glyphname = Ha.dogra;
lastChange = "2019-09-07 12:07:09 +0000";
layers = (
{
anchors = (
{
name = bottom1;
position = "{287, -50}";
},
{
name = bottom2;
position = "{282, -50}";
},
{
name = bottom3;
position = "{252, 56}";
},
{
name = top;
position = "{275, 660}";
},
{
name = top2;
position = "{282, 660}";
}
);
background = {
anchors = (
{
name = bottom1;
position = "{287, -50}";
},
{
name = bottom2;
position = "{282, -50}";
},
{
name = bottom3;
position = "{252, 56}";
},
{
name = top;
position = "{275, 660}";
},
{
name = top2;
position = "{282, 660}";
}
);
paths = (
{
closed = 1;
nodes = (
"413 22 OFFCURVE",
"494 96 OFFCURVE",
"494 201 CURVE SMOOTH",
"494 276 OFFCURVE",
"441 339 OFFCURVE",
"367 371 CURVE",
"428 402 OFFCURVE",
"473 460 OFFCURVE",
"484 558 CURVE",
"530 558 LINE",
"530 567 LINE",
"498 625 LINE",
"25 625 LINE",
"25 616 LINE",
"57 558 LINE",
"400 558 LINE",
"377 433 OFFCURVE",
"307 405 OFFCURVE",
"150 405 CURVE SMOOTH",
"111 405 LINE",
"134 339 LINE",
"271 339 LINE SMOOTH",
"375 339 OFFCURVE",
"413 292 OFFCURVE",
"413 231 CURVE SMOOTH",
"413 203 OFFCURVE",
"408 178 OFFCURVE",
"397 158 CURVE",
"349 211 OFFCURVE",
"278 270 OFFCURVE",
"181 270 CURVE SMOOTH",
"99 270 OFFCURVE",
"45 233 OFFCURVE",
"45 168 CURVE SMOOTH",
"45 87 OFFCURVE",
"160 22 OFFCURVE",
"266 22 CURVE SMOOTH"
);
},
{
closed = 1;
nodes = (
"157 85 OFFCURVE",
"125 113 OFFCURVE",
"125 146 CURVE SMOOTH",
"125 180 OFFCURVE",
"154 205 OFFCURVE",
"212 205 CURVE SMOOTH",
"278 205 OFFCURVE",
"326 167 OFFCURVE",
"366 122 CURVE",
"335 98 OFFCURVE",
"289 85 OFFCURVE",
"226 85 CURVE SMOOTH"
);
}
);
};
layerId = "284FCB4C-24BB-4F0E-B388-CD6C9D45C343";
paths = (
{
closed = 1;
nodes = (
"413 22 OFFCURVE",
"494 96 OFFCURVE",
"494 201 CURVE SMOOTH",
"494 276 OFFCURVE",
"441 339 OFFCURVE",
"367 371 CURVE",
"428 402 OFFCURVE",
"473 460 OFFCURVE",
"484 558 CURVE",
"530 558 LINE",
"530 567 LINE",
"498 625 LINE",
"25 625 LINE",
"25 616 LINE",
"57 558 LINE",
"400 558 LINE",
"377 433 OFFCURVE",
"307 405 OFFCURVE",
"150 405 CURVE SMOOTH",
"111 405 LINE",
"134 339 LINE",
"271 339 LINE SMOOTH",
"375 339 OFFCURVE",
"413 292 OFFCURVE",
"413 231 CURVE SMOOTH",
"413 203 OFFCURVE",
"408 178 OFFCURVE",
"397 158 CURVE",
"349 211 OFFCURVE",
"278 270 OFFCURVE",
"181 270 CURVE SMOOTH",
"99 270 OFFCURVE",
"45 233 OFFCURVE",
"45 168 CURVE SMOOTH",
"45 87 OFFCURVE",
"160 22 OFFCURVE",
"266 22 CURVE SMOOTH"
);
},
{
closed = 1;
nodes = (
"157 85 OFFCURVE",
"125 113 OFFCURVE",
"125 146 CURVE SMOOTH",
"125 180 OFFCURVE",
"154 205 OFFCURVE",
"212 205 CURVE SMOOTH",
"278 205 OFFCURVE",
"326 167 OFFCURVE",
"366 122 CURVE",
"335 98 OFFCURVE",
"289 85 OFFCURVE",
"226 85 CURVE SMOOTH"
);
}
);
width = 555;
}
);
unicode = 1182A;
category = Letter;
},
{
glyphname = Rra.dogra;
lastChange = "2019-09-07 12:07:09 +0000";
layers = (
{
anchors = (
{
name = bottom1;
position = "{284, -179}";
},
{
name = bottom2;
position = "{284, -179}";
},
{
name = bottom3;
position = "{215, -95}";
},
{
name = top;
position = "{273, 660}";
},
{
name = top2;
position = "{282, 660}";
}
);
background = {
anchors = (
{
name = bottom1;
position = "{284, -179}";
},
{
name = bottom2;
position = "{284, -179}";
},
{
name = bottom3;
position = "{215, -95}";
},
{
name = top;
position = "{273, 660}";
},
{
name = top2;
position = "{282, 660}";
}
);
paths = (
{
closed = 1;
nodes = (
"258 -120 OFFCURVE",
"290 -110 OFFCURVE",
"313 -92 CURVE",
"279 -30 LINE",
"250 -46 OFFCURVE",
"225 -56 OFFCURVE",
"187 -56 CURVE SMOOTH",
"149 -56 OFFCURVE",
"127 -38 OFFCURVE",
"127 -8 CURVE SMOOTH",
"127 30 OFFCURVE",
"162 51 OFFCURVE",
"235 60 CURVE SMOOTH",
"293 67 LINE",
"311 70 LINE",
"447 -103 LINE",
"500 -57 LINE",
"368 85 LINE",
"426 107 OFFCURVE",
"465 147 OFFCURVE",
"465 207 CURVE SMOOTH",
"465 271 OFFCURVE",
"410 323 OFFCURVE",
"346 349 CURVE",
"417 388 OFFCURVE",
"453 454 OFFCURVE",
"463 558 CURVE",
"510 558 LINE",
"510 567 LINE",
"478 625 LINE",
"25 625 LINE",
"25 616 LINE",
"57 558 LINE",
"380 558 LINE",
"367 442 OFFCURVE",
"301 380 OFFCURVE",
"149 380 CURVE SMOOTH",
"106 380 LINE",
"129 313 LINE",
"255 313 LINE SMOOTH",
"352 313 OFFCURVE",
"384 278 OFFCURVE",
"384 231 CURVE SMOOTH",
"384 180 OFFCURVE",
"350 153 OFFCURVE",
"252 140 CURVE SMOOTH",
"191 132 LINE SMOOTH",
"97 120 OFFCURVE",
"50 84 OFFCURVE",
"50 24 CURVE SMOOTH",
"50 -53 OFFCURVE",
"141 -120 OFFCURVE",
"221 -120 CURVE SMOOTH"
);
}
);
};
layerId = "284FCB4C-24BB-4F0E-B388-CD6C9D45C343";
paths = (
{
closed = 1;
nodes = (
"258 -120 OFFCURVE",
"290 -110 OFFCURVE",
"313 -92 CURVE",
"279 -30 LINE",
"250 -46 OFFCURVE",
"225 -56 OFFCURVE",
"187 -56 CURVE SMOOTH",
"149 -56 OFFCURVE",
"127 -38 OFFCURVE",
"127 -8 CURVE SMOOTH",
"127 30 OFFCURVE",
"162 51 OFFCURVE",
"235 60 CURVE SMOOTH",
"293 67 LINE",
"311 70 LINE",
"447 -103 LINE",
"500 -57 LINE",
"368 85 LINE",
"426 107 OFFCURVE",
"465 147 OFFCURVE",
"465 207 CURVE SMOOTH",
"465 271 OFFCURVE",
"410 323 OFFCURVE",
"346 349 CURVE",
"417 388 OFFCURVE",
"453 454 OFFCURVE",
"463 558 CURVE",
"510 558 LINE",
"510 567 LINE",
"478 625 LINE",
"25 625 LINE",
"25 616 LINE",
"57 558 LINE",
"380 558 LINE",
"367 442 OFFCURVE",
"301 380 OFFCURVE",
"149 380 CURVE SMOOTH",
"106 380 LINE",
"129 313 LINE",
"255 313 LINE SMOOTH",
"352 313 OFFCURVE",
"384 278 OFFCURVE",
"384 231 CURVE SMOOTH",
"384 180 OFFCURVE",
"350 153 OFFCURVE",
"252 140 CURVE SMOOTH",
"191 132 LINE SMOOTH",
"97 120 OFFCURVE",
"50 84 OFFCURVE",
"50 24 CURVE SMOOTH",
"50 -53 OFFCURVE",
"141 -120 OFFCURVE",
"221 -120 CURVE SMOOTH"
);
}
);
width = 535;
}
);
unicode = 1182B;
category = Letter;
},
{
glyphname = matraAa.dogra;
lastChange = "2019-09-07 12:07:09 +0000";
layers = (
{
background = {
paths = (
{
closed = 1;
nodes = (
"137 362 LINE",
"252 666 LINE",
"184 700 LINE",
"99 475 LINE",
"-7 625 LINE",
"-127 625 LINE",
"-127 621 LINE",
"-91 561 LINE",
"-28 561 LINE",
"123 362 LINE"
);
}
);
};
layerId = "284FCB4C-24BB-4F0E-B388-CD6C9D45C343";
paths = (
{
closed = 1;
nodes = (
"137 362 LINE",
"252 666 LINE",
"184 700 LINE",
"99 475 LINE",
"-7 625 LINE",
"-127 625 LINE",
"-127 621 LINE",
"-91 561 LINE",
"-28 561 LINE",
"123 362 LINE"
);
}
);
width = 246;
}
);
unicode = 1182C;
category = Letter;
},
{
glyphname = matraI.dogra;
lastChange = "2019-09-07 12:07:09 +0000";
layers = (
{
background = {
paths = (
{
closed = 1;
nodes = (
"181 -4 LINE",
"181 558 LINE",
"415 558 LINE",
"414 567 LINE",
"382 625 LINE",
"181 625 LINE",
"181 652 LINE SMOOTH",
"181 731 OFFCURVE",
"234 768 OFFCURVE",
"300 768 CURVE SMOOTH",
"392 768 OFFCURVE",
"433 682 OFFCURVE",
"443 585 CURVE",
"493 594 LINE",
"478 711 OFFCURVE",
"419 834 OFFCURVE",
"278 834 CURVE SMOOTH",
"176 834 OFFCURVE",
"103 774 OFFCURVE",
"103 670 CURVE SMOOTH",
"103 625 LINE",
"15 625 LINE",
"15 616 LINE",
"47 558 LINE",
"103 558 LINE",
"103 30 LINE",
"172 -4 LINE"
);
}
);
};
layerId = "284FCB4C-24BB-4F0E-B388-CD6C9D45C343";
paths = (
{
closed = 1;
nodes = (
"181 -4 LINE",
"181 558 LINE",
"415 558 LINE",
"414 567 LINE",
"382 625 LINE",
"181 625 LINE",
"181 652 LINE SMOOTH",
"181 731 OFFCURVE",
"234 768 OFFCURVE",
"300 768 CURVE SMOOTH",
"392 768 OFFCURVE",
"433 682 OFFCURVE",
"443 585 CURVE",
"493 594 LINE",
"478 711 OFFCURVE",
"419 834 OFFCURVE",
"278 834 CURVE SMOOTH",
"176 834 OFFCURVE",
"103 774 OFFCURVE",
"103 670 CURVE SMOOTH",
"103 625 LINE",
"15 625 LINE",
"15 616 LINE",
"47 558 LINE",
"103 558 LINE",
"103 30 LINE",
"172 -4 LINE"
);
}
);
width = 284;
}
);
unicode = 1182D;
category = Letter;
},
{
glyphname = matraIi.dogra;
lastChange = "2019-09-07 12:07:09 +0000";
layers = (
{
background = {
paths = (
{
closed = 1;
nodes = (
"181 -4 LINE",
"181 558 LINE",
"259 558 LINE",
"259 567 LINE",
"227 625 LINE",
"181 625 LINE",
"181 634 LINE SMOOTH",
"181 736 OFFCURVE",
"84 847 OFFCURVE",
"-34 847 CURVE SMOOTH",
"-133 847 OFFCURVE",
"-197 792 OFFCURVE",
"-197 711 CURVE SMOOTH",
"-197 656 OFFCURVE",
"-166 621 OFFCURVE",
"-130 598 CURVE",
"-108 612 LINE",
"-116 632 OFFCURVE",
"-121 648 OFFCURVE",
"-121 675 CURVE SMOOTH",
"-121 734 OFFCURVE",
"-81 782 OFFCURVE",
"-4 782 CURVE SMOOTH",
"75 782 OFFCURVE",
"103 737 OFFCURVE",
"103 657 CURVE SMOOTH",
"103 625 LINE",
"-93 625 LINE",
"-93 616 LINE",
"-61 558 LINE",
"103 558 LINE",
"103 30 LINE",
"172 -4 LINE"
);
}
);
};
layerId = "284FCB4C-24BB-4F0E-B388-CD6C9D45C343";
paths = (
{
closed = 1;
nodes = (
"181 -4 LINE",
"181 558 LINE",
"259 558 LINE",
"259 567 LINE",
"227 625 LINE",
"181 625 LINE",
"181 634 LINE SMOOTH",
"181 736 OFFCURVE",
"84 847 OFFCURVE",
"-34 847 CURVE SMOOTH",
"-133 847 OFFCURVE",
"-197 792 OFFCURVE",
"-197 711 CURVE SMOOTH",
"-197 656 OFFCURVE",
"-166 621 OFFCURVE",
"-130 598 CURVE",
"-108 612 LINE",
"-116 632 OFFCURVE",
"-121 648 OFFCURVE",
"-121 675 CURVE SMOOTH",
"-121 734 OFFCURVE",
"-81 782 OFFCURVE",
"-4 782 CURVE SMOOTH",
"75 782 OFFCURVE",
"103 737 OFFCURVE",
"103 657 CURVE SMOOTH",
"103 625 LINE",
"-93 625 LINE",
"-93 616 LINE",
"-61 558 LINE",
"103 558 LINE",
"103 30 LINE",
"172 -4 LINE"
);
}
);
width = 284;
}
);
unicode = 1182E;
category = Letter;
},
{
glyphname = matraU.dogra;
lastChange = "2019-11-22 11:27:27 +0000";
layers = (
{
anchors = (
{
name = _bottom1;
position = "{-152, -50}";
}
);
background = {
anchors = (
{
name = _bottom1;
position = "{-152, -50}";
}
);
paths = (
{
closed = 1;
nodes = (
"-63 -298 OFFCURVE",
"-8 -247 OFFCURVE",
"-8 -184 CURVE SMOOTH",
"-8 -124 OFFCURVE",
"-82 -50 OFFCURVE",
"-148 -50 CURVE SMOOTH",
"-189 -50 OFFCURVE",
"-221 -64 OFFCURVE",
"-249 -91 CURVE",
"-202 -151 LINE",
"-180 -132 OFFCURVE",
"-153 -113 OFFCURVE",
"-122 -113 CURVE SMOOTH",
"-96 -113 OFFCURVE",
"-85 -129 OFFCURVE",
"-85 -153 CURVE SMOOTH",
"-85 -195 OFFCURVE",
"-123 -233 OFFCURVE",
"-185 -233 CURVE SMOOTH",
"-264 -233 OFFCURVE",
"-319 -209 OFFCURVE",
"-409 -95 CURVE",
"-436 -116 LINE",
"-345 -247 OFFCURVE",
"-251 -298 OFFCURVE",
"-160 -298 CURVE SMOOTH"
);
}
);
};
layerId = "284FCB4C-24BB-4F0E-B388-CD6C9D45C343";
paths = (
{
closed = 1;
nodes = (
"-63 -298 OFFCURVE",
"-8 -247 OFFCURVE",
"-8 -184 CURVE SMOOTH",
"-8 -124 OFFCURVE",
"-82 -50 OFFCURVE",
"-148 -50 CURVE SMOOTH",
"-189 -50 OFFCURVE",
"-221 -64 OFFCURVE",
"-249 -91 CURVE",
"-202 -151 LINE",
"-180 -132 OFFCURVE",
"-153 -113 OFFCURVE",
"-122 -113 CURVE SMOOTH",
"-96 -113 OFFCURVE",
"-85 -129 OFFCURVE",
"-85 -153 CURVE SMOOTH",
"-85 -195 OFFCURVE",
"-123 -233 OFFCURVE",
"-185 -233 CURVE SMOOTH",
"-264 -233 OFFCURVE",
"-319 -209 OFFCURVE",
"-409 -95 CURVE",
"-436 -116 LINE",
"-345 -247 OFFCURVE",
"-251 -298 OFFCURVE",
"-160 -298 CURVE SMOOTH"
);
}
);
width = 0;
}
);
unicode = 1182F;
category = Mark;
subCategory = Nonspacing;
},
{
glyphname = matraUu.dogra;
lastChange = "2019-09-07 12:07:09 +0000";
layers = (
{
anchors = (
{
name = _bottom1;
position = "{-142, -50}";
}
);
background = {
anchors = (
{
name = _bottom1;
position = "{-142, -50}";
}
);
paths = (
{
closed = 1;
nodes = (
"-114 -293 OFFCURVE",
"-83 -284 OFFCURVE",
"-56 -257 CURVE",
"-100 -199 LINE",
"-123 -221 OFFCURVE",
"-145 -231 OFFCURVE",
"-174 -231 CURVE SMOOTH",
"-200 -231 OFFCURVE",
"-223 -217 OFFCURVE",
"-223 -187 CURVE SMOOTH",
"-223 -148 OFFCURVE",
"-192 -116 OFFCURVE",
"-134 -116 CURVE SMOOTH",
"-60 -116 OFFCURVE",
"-5 -169 OFFCURVE",
"68 -290 CURVE",
"100 -270 LINE",
"14 -123 OFFCURVE",
"-68 -52 OFFCURVE",
"-164 -52 CURVE SMOOTH",
"-250 -52 OFFCURVE",
"-300 -95 OFFCURVE",
"-300 -160 CURVE SMOOTH",
"-300 -229 OFFCURVE",
"-213 -293 OFFCURVE",
"-150 -293 CURVE SMOOTH"
);
}
);
};
layerId = "284FCB4C-24BB-4F0E-B388-CD6C9D45C343";
paths = (
{
closed = 1;
nodes = (
"-114 -293 OFFCURVE",
"-83 -284 OFFCURVE",
"-56 -257 CURVE",
"-100 -199 LINE",
"-123 -221 OFFCURVE",
"-145 -231 OFFCURVE",
"-174 -231 CURVE SMOOTH",
"-200 -231 OFFCURVE",
"-223 -217 OFFCURVE",
"-223 -187 CURVE SMOOTH",
"-223 -148 OFFCURVE",
"-192 -116 OFFCURVE",
"-134 -116 CURVE SMOOTH",
"-60 -116 OFFCURVE",
"-5 -169 OFFCURVE",
"68 -290 CURVE",
"100 -270 LINE",
"14 -123 OFFCURVE",
"-68 -52 OFFCURVE",
"-164 -52 CURVE SMOOTH",
"-250 -52 OFFCURVE",
"-300 -95 OFFCURVE",
"-300 -160 CURVE SMOOTH",
"-300 -229 OFFCURVE",
"-213 -293 OFFCURVE",
"-150 -293 CURVE SMOOTH"
);
}
);
width = 0;
}
);
unicode = 11830;
category = Mark;
subCategory = Nonspacing;
},
{
glyphname = matraR.dogra;
lastChange = "2019-09-07 12:07:09 +0000";
layers = (
{
anchors = (
{
name = _bottom3;
position = "{-306, 56}";
}
);
background = {
anchors = (
{
name = _bottom3;
position = "{-306, 56}";
}
);
paths = (
{
closed = 1;
nodes = (
"-141 -205 OFFCURVE",
"-108 -192 OFFCURVE",
"-79 -164 CURVE",
"-118 -102 LINE",
"-147 -127 OFFCURVE",
"-179 -141 OFFCURVE",
"-213 -141 CURVE SMOOTH",
"-246 -141 OFFCURVE",
"-268 -126 OFFCURVE",
"-268 -90 CURVE SMOOTH",
"-268 72 LINE",
"-346 72 LINE",
"-346 -51 LINE SMOOTH",
"-346 -136 OFFCURVE",
"-261 -205 OFFCURVE",
"-188 -205 CURVE SMOOTH"
);
}
);
};
layerId = "284FCB4C-24BB-4F0E-B388-CD6C9D45C343";
paths = (
{
closed = 1;
nodes = (
"-141 -205 OFFCURVE",
"-108 -192 OFFCURVE",
"-79 -164 CURVE",
"-118 -102 LINE",
"-147 -127 OFFCURVE",
"-179 -141 OFFCURVE",
"-213 -141 CURVE SMOOTH",
"-246 -141 OFFCURVE",
"-268 -126 OFFCURVE",
"-268 -90 CURVE SMOOTH",
"-268 72 LINE",
"-346 72 LINE",
"-346 -51 LINE SMOOTH",
"-346 -136 OFFCURVE",
"-261 -205 OFFCURVE",
"-188 -205 CURVE SMOOTH"
);
}
);
width = 0;
}
);
unicode = 11831;
category = Mark;
subCategory = Nonspacing;
},
{
glyphname = matraRr.dogra;
lastChange = "2019-09-07 12:07:09 +0000";
layers = (
{
anchors = (
{
name = _bottom3;
position = "{-306, 56}";
}
);
background = {
anchors = (
{
name = _bottom3;
position = "{-306, 56}";
}
);
paths = (
{
closed = 1;
nodes = (
"-140 -276 OFFCURVE",
"-104 -262 OFFCURVE",
"-79 -241 CURVE",
"-112 -186 LINE",
"-142 -206 OFFCURVE",
"-174 -218 OFFCURVE",
"-212 -218 CURVE SMOOTH",
"-251 -218 OFFCURVE",
"-272 -202 OFFCURVE",
"-272 -176 CURVE SMOOTH",
"-272 -151 OFFCURVE",
"-254 -131 OFFCURVE",
"-226 -123 CURVE",
"-217 -125 OFFCURVE",
"-209 -126 OFFCURVE",
"-200 -126 CURVE SMOOTH",
"-155 -126 OFFCURVE",
"-123 -116 OFFCURVE",
"-100 -95 CURVE",
"-134 -40 LINE",
"-162 -58 OFFCURVE",
"-187 -68 OFFCURVE",
"-221 -68 CURVE SMOOTH",
"-253 -68 OFFCURVE",
"-268 -53 OFFCURVE",
"-268 -19 CURVE SMOOTH",
"-268 72 LINE",
"-346 72 LINE",
"-346 0 LINE SMOOTH",
"-346 -34 OFFCURVE",
"-327 -64 OFFCURVE",
"-300 -87 CURVE",
"-330 -104 OFFCURVE",
"-345 -126 OFFCURVE",
"-345 -155 CURVE SMOOTH",
"-345 -224 OFFCURVE",
"-258 -276 OFFCURVE",
"-185 -276 CURVE SMOOTH"
);
}
);
};
layerId = "284FCB4C-24BB-4F0E-B388-CD6C9D45C343";
paths = (
{
closed = 1;
nodes = (
"-140 -276 OFFCURVE",
"-104 -262 OFFCURVE",
"-79 -241 CURVE",
"-112 -186 LINE",
"-142 -206 OFFCURVE",
"-174 -218 OFFCURVE",
"-212 -218 CURVE SMOOTH",
"-251 -218 OFFCURVE",
"-272 -202 OFFCURVE",
"-272 -176 CURVE SMOOTH",
"-272 -151 OFFCURVE",
"-254 -131 OFFCURVE",
"-226 -123 CURVE",
"-217 -125 OFFCURVE",
"-209 -126 OFFCURVE",
"-200 -126 CURVE SMOOTH",
"-155 -126 OFFCURVE",
"-123 -116 OFFCURVE",
"-100 -95 CURVE",
"-134 -40 LINE",
"-162 -58 OFFCURVE",
"-187 -68 OFFCURVE",
"-221 -68 CURVE SMOOTH",
"-253 -68 OFFCURVE",
"-268 -53 OFFCURVE",
"-268 -19 CURVE SMOOTH",
"-268 72 LINE",
"-346 72 LINE",
"-346 0 LINE SMOOTH",
"-346 -34 OFFCURVE",
"-327 -64 OFFCURVE",
"-300 -87 CURVE",
"-330 -104 OFFCURVE",
"-345 -126 OFFCURVE",
"-345 -155 CURVE SMOOTH",
"-345 -224 OFFCURVE",
"-258 -276 OFFCURVE",
"-185 -276 CURVE SMOOTH"
);
}
);
width = 0;
}
);
unicode = 11832;
category = Mark;
subCategory = Nonspacing;
},
{
glyphname = matraE.dogra;
lastChange = "2019-09-07 12:07:09 +0000";
layers = (
{
anchors = (
{
name = _top;
position = "{-294, 660}";
}
);
background = {
anchors = (
{
name = _top;
position = "{-294, 660}";
}
);
paths = (
{
closed = 1;
nodes = (
"-101 728 LINE",
"-101 737 LINE",
"-133 792 LINE",
"-496 792 LINE",
"-496 783 LINE",
"-464 728 LINE"
);
}
);
};
layerId = "284FCB4C-24BB-4F0E-B388-CD6C9D45C343";
paths = (
{
closed = 1;
nodes = (
"-101 728 LINE",
"-101 737 LINE",
"-133 792 LINE",
"-496 792 LINE",
"-496 783 LINE",
"-464 728 LINE"
);
}
);
width = 0;
}
);
unicode = 11833;
category = Mark;
subCategory = Nonspacing;
},
{
glyphname = matraAi.dogra;
lastChange = "2019-09-07 12:07:09 +0000";
layers = (
{
anchors = (
{
name = _top;
position = "{-294, 660}";
}
);
background = {
anchors = (
{
name = _top;
position = "{-294, 660}";
}
);
paths = (
{
closed = 1;
nodes = (
"-105 856 LINE",
"-105 865 LINE",
"-137 920 LINE",
"-500 920 LINE",
"-500 911 LINE",
"-468 856 LINE"
);
},
{
closed = 1;
nodes = (
"-101 718 LINE",
"-101 727 LINE",
"-133 782 LINE",
"-496 782 LINE",
"-496 773 LINE",
"-464 718 LINE"
);
}
);
};
layerId = "284FCB4C-24BB-4F0E-B388-CD6C9D45C343";
paths = (
{
closed = 1;
nodes = (
"-105 856 LINE",
"-105 865 LINE",
"-137 920 LINE",
"-500 920 LINE",
"-500 911 LINE",
"-468 856 LINE"
);
},
{
closed = 1;
nodes = (
"-101 718 LINE",
"-101 727 LINE",
"-133 782 LINE",
"-496 782 LINE",
"-496 773 LINE",
"-464 718 LINE"
);
}
);
width = 0;
}
);
unicode = 11834;
category = Mark;
subCategory = Nonspacing;
userData = {
com.typemytype.robofont.guides = (
{
isGlobal = 0;
magnetic = 5;
x = 0;
y = 1079;
}
);
};
},
{
glyphname = matraO.dogra;
lastChange = "2019-09-07 12:07:09 +0000";
layers = (
{
anchors = (
{
name = _top;
position = "{-294, 660}";
}
);
background = {
anchors = (
{
name = _top;
position = "{-294, 660}";
}
);
paths = (
{
closed = 1;
nodes = (
"-280 846 LINE",
"-181 705 LINE",
"-142 736 LINE",
"-274 917 LINE SMOOTH",
"-280 925 OFFCURVE",
"-287 929 OFFCURVE",
"-296 929 CURVE SMOOTH",
"-298 929 LINE SMOOTH",
"-307 929 OFFCURVE",
"-315 925 OFFCURVE",
"-321 917 CURVE",
"-455 756 LINE",
"-396 703 LINE"
);
}
);
};
layerId = "284FCB4C-24BB-4F0E-B388-CD6C9D45C343";
paths = (
{
closed = 1;
nodes = (
"-280 846 LINE",
"-181 705 LINE",
"-142 736 LINE",
"-274 917 LINE SMOOTH",
"-280 925 OFFCURVE",
"-287 929 OFFCURVE",
"-296 929 CURVE SMOOTH",
"-298 929 LINE SMOOTH",
"-307 929 OFFCURVE",
"-315 925 OFFCURVE",
"-321 917 CURVE",
"-455 756 LINE",
"-396 703 LINE"
);
}
);
width = 0;
}
);
unicode = 11835;
category = Mark;
subCategory = Nonspacing;
},
{
glyphname = matraAu.dogra;
lastChange = "2019-09-07 12:07:09 +0000";
layers = (
{
anchors = (
{
name = _top;
position = "{-294, 660}";
}
);
background = {
anchors = (
{
name = _top;
position = "{-294, 660}";
}
);
paths = (
{
closed = 1;
nodes = (
"-380 835 LINE",
"-303 714 LINE",
"-287 714 LINE",
"-208 836 LINE",
"-138 704 LINE",
"-96 726 LINE",
"-197 914 LINE SMOOTH",
"-202 923 OFFCURVE",
"-208 927 OFFCURVE",
"-217 927 CURVE SMOOTH",
"-219 927 LINE SMOOTH",
"-229 927 OFFCURVE",
"-235 922 OFFCURVE",
"-240 914 CURVE SMOOTH",
"-310 806 LINE",
"-376 912 LINE SMOOTH",
"-382 922 OFFCURVE",
"-388 927 OFFCURVE",
"-398 927 CURVE SMOOTH",
"-400 927 LINE SMOOTH",
"-409 927 OFFCURVE",
"-416 922 OFFCURVE",
"-422 913 CURVE SMOOTH",
"-529 750 LINE",
"-467 703 LINE"
);
}
);
};
layerId = "284FCB4C-24BB-4F0E-B388-CD6C9D45C343";
paths = (
{
closed = 1;
nodes = (
"-380 835 LINE",
"-303 714 LINE",
"-287 714 LINE",
"-208 836 LINE",
"-138 704 LINE",
"-96 726 LINE",
"-197 914 LINE SMOOTH",
"-202 923 OFFCURVE",
"-208 927 OFFCURVE",
"-217 927 CURVE SMOOTH",
"-219 927 LINE SMOOTH",
"-229 927 OFFCURVE",
"-235 922 OFFCURVE",
"-240 914 CURVE SMOOTH",
"-310 806 LINE",
"-376 912 LINE SMOOTH",
"-382 922 OFFCURVE",
"-388 927 OFFCURVE",
"-398 927 CURVE SMOOTH",
"-400 927 LINE SMOOTH",
"-409 927 OFFCURVE",
"-416 922 OFFCURVE",
"-422 913 CURVE SMOOTH",
"-529 750 LINE",
"-467 703 LINE"
);
}
);
width = 0;
}
);
unicode = 11836;
category = Mark;
subCategory = Nonspacing;
},
{
glyphname = Anusvara.dogra;
lastChange = "2019-09-07 12:07:09 +0000";
layers = (
{
anchors = (
{
name = _top;
position = "{-294, 660}";
}
);
background = {
anchors = (
{
name = _top;
position = "{-294, 660}";
}
);
paths = (
{
closed = 1;
nodes = (
"-257 738 OFFCURVE",
"-234 765 OFFCURVE",
"-234 801 CURVE SMOOTH",
"-234 838 OFFCURVE",
"-257 863 OFFCURVE",
"-294 863 CURVE SMOOTH",
"-331 863 OFFCURVE",
"-355 838 OFFCURVE",
"-355 801 CURVE SMOOTH",
"-355 765 OFFCURVE",
"-331 738 OFFCURVE",
"-294 738 CURVE SMOOTH"
);
}
);
};
layerId = "284FCB4C-24BB-4F0E-B388-CD6C9D45C343";
paths = (
{
closed = 1;
nodes = (
"-257 738 OFFCURVE",
"-234 765 OFFCURVE",
"-234 801 CURVE SMOOTH",
"-234 838 OFFCURVE",
"-257 863 OFFCURVE",
"-294 863 CURVE SMOOTH",
"-331 863 OFFCURVE",
"-355 838 OFFCURVE",
"-355 801 CURVE SMOOTH",
"-355 765 OFFCURVE",
"-331 738 OFFCURVE",
"-294 738 CURVE SMOOTH"
);
}
);
width = 0;
}
);
unicode = 11837;
category = Mark;
subCategory = Nonspacing;
},
{
glyphname = Visarga.dogra;
lastChange = "2019-09-07 12:07:09 +0000";
layers = (
{
background = {
paths = (
{
closed = 1;
nodes = (
"125 363 OFFCURVE",
"147 389 OFFCURVE",
"147 424 CURVE SMOOTH",
"147 459 OFFCURVE",
"125 484 OFFCURVE",
"89 484 CURVE SMOOTH",
"53 484 OFFCURVE",
"30 459 OFFCURVE",
"30 424 CURVE SMOOTH",
"30 389 OFFCURVE",
"53 363 OFFCURVE",
"89 363 CURVE SMOOTH"
);
},
{
closed = 1;
nodes = (
"125 106 OFFCURVE",
"147 132 OFFCURVE",
"147 166 CURVE SMOOTH",
"147 202 OFFCURVE",
"125 227 OFFCURVE",
"89 227 CURVE SMOOTH",
"53 227 OFFCURVE",
"30 202 OFFCURVE",
"30 166 CURVE SMOOTH",
"30 132 OFFCURVE",
"53 106 OFFCURVE",
"89 106 CURVE SMOOTH"
);
}
);
};
layerId = "284FCB4C-24BB-4F0E-B388-CD6C9D45C343";
paths = (
{
closed = 1;
nodes = (
"125 363 OFFCURVE",
"147 389 OFFCURVE",
"147 424 CURVE SMOOTH",
"147 459 OFFCURVE",
"125 484 OFFCURVE",
"89 484 CURVE SMOOTH",
"53 484 OFFCURVE",
"30 459 OFFCURVE",
"30 424 CURVE SMOOTH",
"30 389 OFFCURVE",
"53 363 OFFCURVE",
"89 363 CURVE SMOOTH"
);
},
{
closed = 1;
nodes = (
"125 106 OFFCURVE",
"147 132 OFFCURVE",
"147 166 CURVE SMOOTH",
"147 202 OFFCURVE",
"125 227 OFFCURVE",
"89 227 CURVE SMOOTH",
"53 227 OFFCURVE",
"30 202 OFFCURVE",
"30 166 CURVE SMOOTH",
"30 132 OFFCURVE",
"53 106 OFFCURVE",
"89 106 CURVE SMOOTH"
);
}
);
width = 177;
}
);
unicode = 11838;
category = Letter;
},
{
glyphname = Virama.dogra;
lastChange = "2019-09-07 12:07:09 +0000";
layers = (
{
anchors = (
{
name = _bottom1;
position = "{-152, -50}";
}
);
background = {
anchors = (
{
name = _bottom1;
position = "{-152, -50}";
}
);
paths = (
{
closed = 1;
nodes = (
"59 -273 LINE",
"-43 -83 OFFCURVE",
"-134 -54 OFFCURVE",
"-203 -54 CURVE SMOOTH",
"-224 -54 OFFCURVE",
"-246 -57 OFFCURVE",
"-265 -64 CURVE",
"-237 -136 LINE",
"-219 -131 OFFCURVE",
"-196 -127 OFFCURVE",
"-179 -127 CURVE SMOOTH",
"-116 -127 OFFCURVE",
"-65 -147 OFFCURVE",
"25 -293 CURVE"
);
}
);
};
layerId = "284FCB4C-24BB-4F0E-B388-CD6C9D45C343";
paths = (
{
closed = 1;
nodes = (
"59 -273 LINE",
"-43 -83 OFFCURVE",
"-134 -54 OFFCURVE",
"-203 -54 CURVE SMOOTH",
"-224 -54 OFFCURVE",
"-246 -57 OFFCURVE",
"-265 -64 CURVE",
"-237 -136 LINE",
"-219 -131 OFFCURVE",
"-196 -127 OFFCURVE",
"-179 -127 CURVE SMOOTH",
"-116 -127 OFFCURVE",
"-65 -147 OFFCURVE",
"25 -293 CURVE"
);
}
);
width = 0;
}
);
unicode = 11839;
category = Mark;
subCategory = Nonspacing;
},
{
glyphname = Nukta.dogra;
lastChange = "2019-11-19 16:09:18 +0000";
layers = (
{
anchors = (
{
name = _bottom2;
position = "{-303, -30}";
}
);
background = {
anchors = (
{
name = _bottom2;
position = "{-303, -30}";
}
);
paths = (
{
closed = 1;
nodes = (
"-276 -165 OFFCURVE",
"-254 -140 OFFCURVE",
"-254 -105 CURVE SMOOTH",
"-254 -70 OFFCURVE",
"-276 -45 OFFCURVE",
"-311 -45 CURVE SMOOTH",
"-347 -45 OFFCURVE",
"-370 -70 OFFCURVE",
"-370 -105 CURVE SMOOTH",
"-370 -140 OFFCURVE",
"-347 -165 OFFCURVE",
"-311 -165 CURVE SMOOTH"
);
}
);
};
layerId = "284FCB4C-24BB-4F0E-B388-CD6C9D45C343";
paths = (
{
closed = 1;
nodes = (
"-276 -165 OFFCURVE",
"-254 -140 OFFCURVE",
"-254 -105 CURVE SMOOTH",
"-254 -70 OFFCURVE",
"-276 -45 OFFCURVE",
"-311 -45 CURVE SMOOTH",
"-347 -45 OFFCURVE",
"-370 -70 OFFCURVE",
"-370 -105 CURVE SMOOTH",
"-370 -140 OFFCURVE",
"-347 -165 OFFCURVE",
"-311 -165 CURVE SMOOTH"
);
}
);
width = 0;
}
);
unicode = 1183A;
category = Mark;
subCategory = Nonspacing;
},
{
glyphname = AbbreviationSign.dogra;
lastChange = "2019-09-07 12:07:09 +0000";
layers = (
{
background = {
paths = (
{
closed = 1;
nodes = (
"298 164 OFFCURVE",
"352 215 OFFCURVE",
"352 297 CURVE SMOOTH",
"352 374 OFFCURVE",
"269 440 OFFCURVE",
"190 440 CURVE SMOOTH",
"108 440 OFFCURVE",
"56 388 OFFCURVE",
"56 312 CURVE SMOOTH",
"56 224 OFFCURVE",
"144 164 OFFCURVE",
"221 164 CURVE SMOOTH"
);
},
{
closed = 1;
nodes = (
"161 218 OFFCURVE",
"135 241 OFFCURVE",
"135 290 CURVE SMOOTH",
"135 340 OFFCURVE",
"167 386 OFFCURVE",
"216 386 CURVE SMOOTH",
"253 386 OFFCURVE",
"274 360 OFFCURVE",
"274 320 CURVE SMOOTH",
"274 263 OFFCURVE",
"241 218 OFFCURVE",
"198 218 CURVE SMOOTH"
);
}
);
};
layerId = "284FCB4C-24BB-4F0E-B388-CD6C9D45C343";
paths = (
{
closed = 1;
nodes = (
"298 164 OFFCURVE",
"352 215 OFFCURVE",
"352 297 CURVE SMOOTH",
"352 374 OFFCURVE",
"269 440 OFFCURVE",
"190 440 CURVE SMOOTH",
"108 440 OFFCURVE",
"56 388 OFFCURVE",
"56 312 CURVE SMOOTH",
"56 224 OFFCURVE",
"144 164 OFFCURVE",
"221 164 CURVE SMOOTH"
);
},
{
closed = 1;
nodes = (
"161 218 OFFCURVE",
"135 241 OFFCURVE",
"135 290 CURVE SMOOTH",
"135 340 OFFCURVE",
"167 386 OFFCURVE",
"216 386 CURVE SMOOTH",
"253 386 OFFCURVE",
"274 360 OFFCURVE",
"274 320 CURVE SMOOTH",
"274 263 OFFCURVE",
"241 218 OFFCURVE",
"198 218 CURVE SMOOTH"
);
}
);
width = 408;
}
);
unicode = 1183B;
category = Punctuation;
},
{
glyphname = JaNya.dogra;
lastChange = "2019-11-20 09:04:12 +0000";
layers = (
{
anchors = (
{
name = bottom1;
position = "{534, -50}";
},
{
name = bottom2;
position = "{407, -30}";
},
{
name = bottom3;
position = "{534, 54}";
},
{
name = top;
position = "{393, 660}";
},
{
name = top2;
position = "{282, 660}";
}
);
background = {
anchors = (
{
name = bottom1;
position = "{534, -50}";
},
{
name = bottom2;
position = "{407, -30}";
},
{
name = bottom3;
position = "{534, 54}";
},
{
name = top;
position = "{393, 660}";
},
{
name = top2;
position = "{282, 660}";
}
);
paths = (
{
closed = 1;
nodes = (
"345 24 OFFCURVE",
"387 45 OFFCURVE",
"410 82 CURVE",
"445 50 OFFCURVE",
"492 24 OFFCURVE",
"548 24 CURVE SMOOTH",
"650 24 OFFCURVE",
"718 88 OFFCURVE",
"718 194 CURVE SMOOTH",
"718 299 OFFCURVE",
"612 405 OFFCURVE",
"485 407 CURVE SMOOTH",
"430 408 LINE",
"430 558 LINE",
"749 558 LINE",
"749 567 LINE",
"717 625 LINE",
"25 625 LINE",
"25 616 LINE",
"57 558 LINE",
"352 558 LINE",
"352 409 LINE",
"270 409 LINE SMOOTH",
"145 409 OFFCURVE",
"63 355 OFFCURVE",
"63 246 CURVE SMOOTH",
"63 125 OFFCURVE",
"184 24 OFFCURVE",
"284 24 CURVE SMOOTH"
);
},
{
closed = 1;
nodes = (
"194 88 OFFCURVE",
"143 129 OFFCURVE",
"143 206 CURVE SMOOTH",
"143 290 OFFCURVE",
"193 342 OFFCURVE",
"300 342 CURVE SMOOTH",
"352 342 LINE",
"352 190 LINE SMOOTH",
"352 130 OFFCURVE",
"320 88 OFFCURVE",
"255 88 CURVE SMOOTH"
);
},
{
closed = 1;
nodes = (
"479 88 OFFCURVE",
"450 102 OFFCURVE",
"426 126 CURVE",
"429 138 OFFCURVE",
"430 151 OFFCURVE",
"430 164 CURVE SMOOTH",
"430 341 LINE",
"516 341 LINE SMOOTH",
"599 341 OFFCURVE",
"637 299 OFFCURVE",
"637 228 CURVE SMOOTH",
"637 134 OFFCURVE",
"588 88 OFFCURVE",
"513 88 CURVE SMOOTH"
);
}
);
};
layerId = "284FCB4C-24BB-4F0E-B388-CD6C9D45C343";
paths = (
{
closed = 1;
nodes = (
"345 24 OFFCURVE",
"387 45 OFFCURVE",
"410 82 CURVE",
"445 50 OFFCURVE",
"492 24 OFFCURVE",
"548 24 CURVE SMOOTH",
"650 24 OFFCURVE",
"718 88 OFFCURVE",
"718 194 CURVE SMOOTH",
"718 299 OFFCURVE",
"612 405 OFFCURVE",
"485 407 CURVE SMOOTH",
"430 408 LINE",
"430 558 LINE",
"749 558 LINE",
"749 567 LINE",
"717 625 LINE",
"25 625 LINE",
"25 616 LINE",
"57 558 LINE",
"352 558 LINE",
"352 409 LINE",
"270 409 LINE SMOOTH",
"145 409 OFFCURVE",
"63 355 OFFCURVE",
"63 246 CURVE SMOOTH",
"63 125 OFFCURVE",
"184 24 OFFCURVE",
"284 24 CURVE SMOOTH"
);
},
{
closed = 1;
nodes = (
"194 88 OFFCURVE",
"143 129 OFFCURVE",
"143 206 CURVE SMOOTH",
"143 290 OFFCURVE",
"193 342 OFFCURVE",
"300 342 CURVE SMOOTH",
"352 342 LINE",
"352 190 LINE SMOOTH",
"352 130 OFFCURVE",
"320 88 OFFCURVE",
"255 88 CURVE SMOOTH"
);
},
{
closed = 1;
nodes = (
"479 88 OFFCURVE",
"450 102 OFFCURVE",
"426 126 CURVE",
"429 138 OFFCURVE",
"430 151 OFFCURVE",
"430 164 CURVE SMOOTH",
"430 341 LINE",
"516 341 LINE SMOOTH",
"599 341 OFFCURVE",
"637 299 OFFCURVE",
"637 228 CURVE SMOOTH",
"637 134 OFFCURVE",
"588 88 OFFCURVE",
"513 88 CURVE SMOOTH"
);
}
);
width = 774;
}
);
category = Letter;
subCategory = Other;
},
{
glyphname = KaSsa.dogra;
lastChange = "2019-11-20 09:04:23 +0000";
layers = (
{
anchors = (
{
name = bottom1;
position = "{286, -50}";
},
{
name = bottom2;
position = "{287, -30}";
},
{
name = bottom3;
position = "{238, 56}";
},
{
name = top;
position = "{283, 660}";
},
{
name = top2;
position = "{282, 660}";
}
);
background = {
anchors = (
{
name = bottom1;
position = "{286, -50}";
},
{
name = bottom2;
position = "{287, -30}";
},
{
name = bottom3;
position = "{238, 56}";
},
{
name = top;
position = "{283, 660}";
},
{
name = top2;
position = "{282, 660}";
}
);
paths = (
{
closed = 1;
nodes = (
"552 -27 LINE",
"527 17 OFFCURVE",
"502 54 OFFCURVE",
"472 91 CURVE",
"495 117 OFFCURVE",
"507 148 OFFCURVE",
"507 182 CURVE SMOOTH",
"507 259 OFFCURVE",
"448 324 OFFCURVE",
"298 352 CURVE SMOOTH",
"245 362 LINE SMOOTH",
"173 376 OFFCURVE",
"141 403 OFFCURVE",
"141 456 CURVE SMOOTH",
"141 466 OFFCURVE",
"142 475 OFFCURVE",
"145 484 CURVE",
"198 433 OFFCURVE",
"277 399 OFFCURVE",
"353 399 CURVE SMOOTH",
"436 399 OFFCURVE",
"491 434 OFFCURVE",
"491 494 CURVE SMOOTH",
"491 560 OFFCURVE",
"386 638 OFFCURVE",
"271 638 CURVE SMOOTH",
"143 638 OFFCURVE",
"62 570 OFFCURVE",
"62 479 CURVE SMOOTH",
"62 390 OFFCURVE",
"129 331 OFFCURVE",
"243 310 CURVE SMOOTH",
"288 302 LINE SMOOTH",
"396 282 OFFCURVE",
"427 252 OFFCURVE",
"427 205 CURVE SMOOTH",
"427 188 OFFCURVE",
"424 171 OFFCURVE",
"416 156 CURVE",
"370 202 OFFCURVE",
"286 261 OFFCURVE",
"179 261 CURVE SMOOTH",
"94 261 OFFCURVE",
"45 223 OFFCURVE",
"45 163 CURVE SMOOTH",
"45 87 OFFCURVE",
"164 20 OFFCURVE",
"268 20 CURVE SMOOTH",
"339 20 OFFCURVE",
"395 35 OFFCURVE",
"436 61 CURVE",
"460 26 OFFCURVE",
"480 -12 OFFCURVE",
"504 -55 CURVE"
);
},
{
closed = 1;
nodes = (
"161 83 OFFCURVE",
"125 103 OFFCURVE",
"125 139 CURVE SMOOTH",
"125 172 OFFCURVE",
"156 195 OFFCURVE",
"211 195 CURVE SMOOTH",
"287 195 OFFCURVE",
"339 164 OFFCURVE",
"387 122 CURVE",
"356 98 OFFCURVE",
"305 83 OFFCURVE",
"228 83 CURVE SMOOTH"
);
},
{
closed = 1;
nodes = (
"251 462 OFFCURVE",
"202 485 OFFCURVE",
"167 520 CURVE",
"197 554 OFFCURVE",
"252 574 OFFCURVE",
"313 574 CURVE SMOOTH",
"379 574 OFFCURVE",
"411 550 OFFCURVE",
"411 518 CURVE SMOOTH",
"411 481 OFFCURVE",
"373 462 OFFCURVE",
"311 462 CURVE SMOOTH"
);
}
);
};
layerId = "284FCB4C-24BB-4F0E-B388-CD6C9D45C343";
paths = (
{
closed = 1;
nodes = (
"552 -27 LINE",
"527 17 OFFCURVE",
"502 54 OFFCURVE",
"472 91 CURVE",
"495 117 OFFCURVE",
"507 148 OFFCURVE",
"507 182 CURVE SMOOTH",
"507 259 OFFCURVE",
"448 324 OFFCURVE",
"298 352 CURVE SMOOTH",
"245 362 LINE SMOOTH",
"173 376 OFFCURVE",
"141 403 OFFCURVE",
"141 456 CURVE SMOOTH",
"141 466 OFFCURVE",
"142 475 OFFCURVE",
"145 484 CURVE",
"198 433 OFFCURVE",
"277 399 OFFCURVE",
"353 399 CURVE SMOOTH",
"436 399 OFFCURVE",
"491 434 OFFCURVE",
"491 494 CURVE SMOOTH",
"491 560 OFFCURVE",
"386 638 OFFCURVE",
"271 638 CURVE SMOOTH",
"143 638 OFFCURVE",
"62 570 OFFCURVE",
"62 479 CURVE SMOOTH",
"62 390 OFFCURVE",
"129 331 OFFCURVE",
"243 310 CURVE SMOOTH",
"288 302 LINE SMOOTH",
"396 282 OFFCURVE",
"427 252 OFFCURVE",
"427 205 CURVE SMOOTH",
"427 188 OFFCURVE",
"424 171 OFFCURVE",
"416 156 CURVE",
"370 202 OFFCURVE",
"286 261 OFFCURVE",
"179 261 CURVE SMOOTH",
"94 261 OFFCURVE",
"45 223 OFFCURVE",
"45 163 CURVE SMOOTH",
"45 87 OFFCURVE",
"164 20 OFFCURVE",
"268 20 CURVE SMOOTH",
"339 20 OFFCURVE",
"395 35 OFFCURVE",
"436 61 CURVE",
"460 26 OFFCURVE",
"480 -12 OFFCURVE",
"504 -55 CURVE"
);
},
{
closed = 1;
nodes = (
"161 83 OFFCURVE",
"125 103 OFFCURVE",
"125 139 CURVE SMOOTH",
"125 172 OFFCURVE",
"156 195 OFFCURVE",
"211 195 CURVE SMOOTH",
"287 195 OFFCURVE",
"339 164 OFFCURVE",
"387 122 CURVE",
"356 98 OFFCURVE",
"305 83 OFFCURVE",
"228 83 CURVE SMOOTH"
);
},
{
closed = 1;
nodes = (
"251 462 OFFCURVE",
"202 485 OFFCURVE",
"167 520 CURVE",
"197 554 OFFCURVE",
"252 574 OFFCURVE",
"313 574 CURVE SMOOTH",
"379 574 OFFCURVE",
"411 550 OFFCURVE",
"411 518 CURVE SMOOTH",
"411 481 OFFCURVE",
"373 462 OFFCURVE",
"311 462 CURVE SMOOTH"
);
}
);
width = 563;
}
);
category = Letter;
subCategory = Other;
},
{
glyphname = TaRa.dogra;
lastChange = "2019-11-20 10:18:26 +0000";
layers = (
{
anchors = (
{
name = bottom1;
position = "{283, -165}";
},
{
name = bottom2;
position = "{271, -165}";
},
{
name = bottom3;
position = "{183, -43}";
},
{
name = top;
position = "{279, 660}";
},
{
name = top2;
position = "{282, 660}";
}
);
background = {
anchors = (
{
name = _bottom3;
position = "{183, -43}";
},
{
name = bottom1;
position = "{283, -165}";
},
{
name = bottom2;
position = "{271, -165}";
},
{
name = top;
position = "{279, 660}";
},
{
name = top2;
position = "{282, 660}";
}
);
paths = (
{
closed = 1;
nodes = (
"386 -99 LINE",
"266 25 LINE",
"397 35 OFFCURVE",
"477 95 OFFCURVE",
"477 191 CURVE SMOOTH",
"477 265 OFFCURVE",
"415 320 OFFCURVE",
"360 344 CURVE",
"426 380 OFFCURVE",
"464 445 OFFCURVE",
"475 558 CURVE",
"521 558 LINE",
"521 567 LINE",
"489 625 LINE",
"25 625 LINE",
"25 616 LINE",
"57 558 LINE",
"391 558 LINE",
"376 418 OFFCURVE",
"302 380 OFFCURVE",
"158 380 CURVE SMOOTH",
"118 380 LINE",
"141 313 LINE",
"268 313 LINE SMOOTH",
"352 313 OFFCURVE",
"396 276 OFFCURVE",
"396 222 CURVE SMOOTH",
"396 146 OFFCURVE",
"336 94 OFFCURVE",
"212 94 CURVE SMOOTH",
"210 94 LINE",
"163 154 OFFCURVE",
"132 178 OFFCURVE",
"95 178 CURVE SMOOTH",
"58 178 OFFCURVE",
"35 156 OFFCURVE",
"35 122 CURVE SMOOTH",
"35 71 OFFCURVE",
"90 32 OFFCURVE",
"194 25 CURVE",
"333 -145 LINE"
);
}
);
};
layerId = "284FCB4C-24BB-4F0E-B388-CD6C9D45C343";
paths = (
{
closed = 1;
nodes = (
"386 -99 LINE",
"266 25 LINE",
"397 35 OFFCURVE",
"477 95 OFFCURVE",
"477 191 CURVE SMOOTH",
"477 265 OFFCURVE",
"415 320 OFFCURVE",
"360 344 CURVE",
"426 380 OFFCURVE",
"464 445 OFFCURVE",
"475 558 CURVE",
"521 558 LINE",
"521 567 LINE",
"489 625 LINE",
"25 625 LINE",
"25 616 LINE",
"57 558 LINE",
"391 558 LINE",
"376 418 OFFCURVE",
"302 380 OFFCURVE",
"158 380 CURVE SMOOTH",
"118 380 LINE",
"141 313 LINE",
"268 313 LINE SMOOTH",
"352 313 OFFCURVE",
"396 276 OFFCURVE",
"396 222 CURVE SMOOTH",
"396 146 OFFCURVE",
"336 94 OFFCURVE",
"212 94 CURVE SMOOTH",
"210 94 LINE",
"163 154 OFFCURVE",
"132 178 OFFCURVE",
"95 178 CURVE SMOOTH",
"58 178 OFFCURVE",
"35 156 OFFCURVE",
"35 122 CURVE SMOOTH",
"35 71 OFFCURVE",
"90 32 OFFCURVE",
"194 25 CURVE",
"333 -145 LINE"
);
}
);
width = 546;
}
);
},
{
glyphname = ShaRa.dogra;
lastChange = "2019-11-20 09:04:46 +0000";
layers = (
{
anchors = (
{
name = bottom1;
position = "{674, -50}";
},
{
name = bottom2;
position = "{443, -30}";
},
{
name = bottom3;
position = "{604, 56}";
},
{
name = top;
position = "{446, 660}";
},
{
name = top2;
position = "{282, 660}";
}
);
background = {
anchors = (
{
name = bottom1;
position = "{674, -50}";
},
{
name = bottom2;
position = "{443, -30}";
},
{
name = bottom3;
position = "{604, 56}";
},
{
name = top;
position = "{446, 660}";
},
{
name = top2;
position = "{282, 660}";
}
);
paths = (
{
closed = 1;
nodes = (
"405 27 LINE",
"252 188 LINE",
"374 248 OFFCURVE",
"414 331 OFFCURVE",
"414 458 CURVE SMOOTH",
"414 469 LINE SMOOTH",
"414 501 OFFCURVE",
"411 532 OFFCURVE",
"406 558 CURVE",
"655 558 LINE",
"655 448 LINE SMOOTH",
"655 426 OFFCURVE",
"653 408 OFFCURVE",
"651 393 CURVE",
"566 351 LINE SMOOTH",
"533 335 OFFCURVE",
"516 322 OFFCURVE",
"516 297 CURVE SMOOTH",
"516 272 OFFCURVE",
"529 250 OFFCURVE",
"555 215 CURVE SMOOTH",
"716 -5 LINE",
"764 33 LINE",
"612 223 LINE",
"694 277 OFFCURVE",
"733 316 OFFCURVE",
"733 436 CURVE SMOOTH",
"733 558 LINE",
"797 558 LINE",
"797 567 LINE",
"765 625 LINE",
"25 625 LINE",
"25 616 LINE",
"56 558 LINE",
"103 558 LINE",
"96 542 OFFCURVE",
"93 524 OFFCURVE",
"93 504 CURVE SMOOTH",
"93 405 OFFCURVE",
"178 355 OFFCURVE",
"300 332 CURVE",
"278 298 OFFCURVE",
"245 271 OFFCURVE",
"197 252 CURVE",
"164 284 OFFCURVE",
"142 296 OFFCURVE",
"117 296 CURVE SMOOTH",
"85 296 OFFCURVE",
"64 275 OFFCURVE",
"64 242 CURVE SMOOTH",
"64 200 OFFCURVE",
"107 161 OFFCURVE",
"160 161 CURVE SMOOTH",
"175 161 OFFCURVE",
"188 163 OFFCURVE",
"201 167 CURVE",
"359 -16 LINE"
);
},
{
closed = 1;
nodes = (
"218 393 OFFCURVE",
"173 431 OFFCURVE",
"173 489 CURVE SMOOTH",
"173 499 LINE SMOOTH",
"173 522 OFFCURVE",
"180 543 OFFCURVE",
"190 558 CURVE",
"327 558 LINE",
"332 532 OFFCURVE",
"334 504 OFFCURVE",
"334 475 CURVE SMOOTH",
"334 464 LINE SMOOTH",
"334 431 OFFCURVE",
"330 401 OFFCURVE",
"321 375 CURVE"
);
}
);
};
layerId = "284FCB4C-24BB-4F0E-B388-CD6C9D45C343";
paths = (
{
closed = 1;
nodes = (
"405 27 LINE",
"252 188 LINE",
"374 248 OFFCURVE",
"414 331 OFFCURVE",
"414 458 CURVE SMOOTH",
"414 469 LINE SMOOTH",
"414 501 OFFCURVE",
"411 532 OFFCURVE",
"406 558 CURVE",
"655 558 LINE",
"655 448 LINE SMOOTH",
"655 426 OFFCURVE",
"653 408 OFFCURVE",
"651 393 CURVE",
"566 351 LINE SMOOTH",
"533 335 OFFCURVE",
"516 322 OFFCURVE",
"516 297 CURVE SMOOTH",
"516 272 OFFCURVE",
"529 250 OFFCURVE",
"555 215 CURVE SMOOTH",
"716 -5 LINE",
"764 33 LINE",
"612 223 LINE",
"694 277 OFFCURVE",
"733 316 OFFCURVE",
"733 436 CURVE SMOOTH",
"733 558 LINE",
"797 558 LINE",
"797 567 LINE",
"765 625 LINE",
"25 625 LINE",
"25 616 LINE",
"56 558 LINE",
"103 558 LINE",
"96 542 OFFCURVE",
"93 524 OFFCURVE",
"93 504 CURVE SMOOTH",
"93 405 OFFCURVE",
"178 355 OFFCURVE",
"300 332 CURVE",
"278 298 OFFCURVE",
"245 271 OFFCURVE",
"197 252 CURVE",
"164 284 OFFCURVE",
"142 296 OFFCURVE",
"117 296 CURVE SMOOTH",
"85 296 OFFCURVE",
"64 275 OFFCURVE",
"64 242 CURVE SMOOTH",
"64 200 OFFCURVE",
"107 161 OFFCURVE",
"160 161 CURVE SMOOTH",
"175 161 OFFCURVE",
"188 163 OFFCURVE",
"201 167 CURVE",
"359 -16 LINE"
);
},
{
closed = 1;
nodes = (
"218 393 OFFCURVE",
"173 431 OFFCURVE",
"173 489 CURVE SMOOTH",
"173 499 LINE SMOOTH",
"173 522 OFFCURVE",
"180 543 OFFCURVE",
"190 558 CURVE",
"327 558 LINE",
"332 532 OFFCURVE",
"334 504 OFFCURVE",
"334 475 CURVE SMOOTH",
"334 464 LINE SMOOTH",
"334 431 OFFCURVE",
"330 401 OFFCURVE",
"321 375 CURVE"
);
}
);
width = 822;
}
);
category = Letter;
subCategory = Other;
},
{
glyphname = SaTta.dogra;
lastChange = "2019-11-20 09:04:58 +0000";
layers = (
{
anchors = (
{
name = bottom1;
position = "{418, -140}";
},
{
name = bottom2;
position = "{305, -125}";
},
{
name = bottom3;
position = "{405, -63}";
},
{
name = top;
position = "{311, 660}";
},
{
name = top2;
position = "{282, 660}";
}
);
background = {
anchors = (
{
name = bottom1;
position = "{418, -140}";
},
{
name = bottom2;
position = "{305, -125}";
},
{
name = bottom3;
position = "{405, -63}";
},
{
name = top;
position = "{311, 660}";
},
{
name = top2;
position = "{282, 660}";
}
);
paths = (
{
closed = 1;
nodes = (
"510 -87 OFFCURVE",
"555 -59 OFFCURVE",
"586 -18 CURVE",
"538 41 LINE",
"498 -1 OFFCURVE",
"459 -23 OFFCURVE",
"405 -23 CURVE SMOOTH",
"354 -23 OFFCURVE",
"326 -1 OFFCURVE",
"326 42 CURVE SMOOTH",
"326 81 OFFCURVE",
"346 103 OFFCURVE",
"416 166 CURVE SMOOTH",
"447 194 LINE SMOOTH",
"509 250 OFFCURVE",
"536 280 OFFCURVE",
"536 337 CURVE SMOOTH",
"536 414 OFFCURVE",
"448 506 OFFCURVE",
"358 506 CURVE SMOOTH",
"298 506 OFFCURVE",
"255 482 OFFCURVE",
"200 407 CURVE",
"187 464 OFFCURVE",
"161 520 OFFCURVE",
"126 558 CURVE",
"576 558 LINE",
"576 567 LINE",
"544 625 LINE",
"9 625 LINE",
"9 616 LINE",
"42 559 LINE",
"111 519 OFFCURVE",
"152 448 OFFCURVE",
"152 366 CURVE SMOOTH",
"152 354 OFFCURVE",
"151 343 OFFCURVE",
"150 332 CURVE",
"91 240 LINE SMOOTH",
"82 225 OFFCURVE",
"79 218 OFFCURVE",
"79 206 CURVE SMOOTH",
"79 179 OFFCURVE",
"109 155 OFFCURVE",
"142 155 CURVE SMOOTH",
"184 155 OFFCURVE",
"209 204 OFFCURVE",
"214 277 CURVE",
"237 313 LINE SMOOTH",
"295 405 OFFCURVE",
"337 442 OFFCURVE",
"394 442 CURVE SMOOTH",
"437 442 OFFCURVE",
"458 412 OFFCURVE",
"458 372 CURVE SMOOTH",
"458 327 OFFCURVE",
"441 297 OFFCURVE",
"390 253 CURVE SMOOTH",
"353 221 LINE SMOOTH",
"284 161 OFFCURVE",
"248 131 OFFCURVE",
"248 71 CURVE SMOOTH",
"248 -12 OFFCURVE",
"344 -87 OFFCURVE",
"437 -87 CURVE SMOOTH"
);
}
);
};
layerId = "284FCB4C-24BB-4F0E-B388-CD6C9D45C343";
paths = (
{
closed = 1;
nodes = (
"510 -87 OFFCURVE",
"555 -59 OFFCURVE",
"586 -18 CURVE",
"538 41 LINE",
"498 -1 OFFCURVE",
"459 -23 OFFCURVE",
"405 -23 CURVE SMOOTH",
"354 -23 OFFCURVE",
"326 -1 OFFCURVE",
"326 42 CURVE SMOOTH",
"326 81 OFFCURVE",
"346 103 OFFCURVE",
"416 166 CURVE SMOOTH",
"447 194 LINE SMOOTH",
"509 250 OFFCURVE",
"536 280 OFFCURVE",
"536 337 CURVE SMOOTH",
"536 414 OFFCURVE",
"448 506 OFFCURVE",
"358 506 CURVE SMOOTH",
"298 506 OFFCURVE",
"255 482 OFFCURVE",
"200 407 CURVE",
"187 464 OFFCURVE",
"161 520 OFFCURVE",
"126 558 CURVE",
"576 558 LINE",
"576 567 LINE",
"544 625 LINE",
"9 625 LINE",
"9 616 LINE",
"42 559 LINE",
"111 519 OFFCURVE",
"152 448 OFFCURVE",
"152 366 CURVE SMOOTH",
"152 354 OFFCURVE",
"151 343 OFFCURVE",
"150 332 CURVE",
"91 240 LINE SMOOTH",
"82 225 OFFCURVE",
"79 218 OFFCURVE",
"79 206 CURVE SMOOTH",
"79 179 OFFCURVE",
"109 155 OFFCURVE",
"142 155 CURVE SMOOTH",
"184 155 OFFCURVE",
"209 204 OFFCURVE",
"214 277 CURVE",
"237 313 LINE SMOOTH",
"295 405 OFFCURVE",
"337 442 OFFCURVE",
"394 442 CURVE SMOOTH",
"437 442 OFFCURVE",
"458 412 OFFCURVE",
"458 372 CURVE SMOOTH",
"458 327 OFFCURVE",
"441 297 OFFCURVE",
"390 253 CURVE SMOOTH",
"353 221 LINE SMOOTH",
"284 161 OFFCURVE",
"248 131 OFFCURVE",
"248 71 CURVE SMOOTH",
"248 -12 OFFCURVE",
"344 -87 OFFCURVE",
"437 -87 CURVE SMOOTH"
);
}
);
width = 601;
}
);
category = Letter;
subCategory = Other;
},
{
glyphname = vowelOAnusvara.dogra;
lastChange = "2019-11-20 09:05:33 +0000";
layers = (
{
background = {
paths = (
{
closed = 1;
nodes = (
"470 24 OFFCURVE",
"546 92 OFFCURVE",
"546 184 CURVE SMOOTH",
"546 258 OFFCURVE",
"499 321 OFFCURVE",
"432 352 CURVE",
"493 385 OFFCURVE",
"532 443 OFFCURVE",
"545 558 CURVE",
"607 558 LINE",
"607 567 LINE",
"575 625 LINE",
"25 625 LINE",
"25 616 LINE",
"57 558 LINE",
"463 558 LINE",
"449 444 OFFCURVE",
"399 385 OFFCURVE",
"273 385 CURVE SMOOTH",
"253 385 LINE",
"276 318 LINE",
"355 318 LINE SMOOTH",
"434 318 OFFCURVE",
"465 274 OFFCURVE",
"465 213 CURVE SMOOTH",
"465 138 OFFCURVE",
"412 94 OFFCURVE",
"331 94 CURVE SMOOTH",
"216 94 OFFCURVE",
"140 175 OFFCURVE",
"103 385 CURVE",
"53 377 LINE",
"94 117 OFFCURVE",
"204 24 OFFCURVE",
"352 24 CURVE SMOOTH"
);
},
{
closed = 1;
nodes = (
"362 702 OFFCURVE",
"384 727 OFFCURVE",
"384 761 CURVE SMOOTH",
"384 796 OFFCURVE",
"362 821 OFFCURVE",
"327 821 CURVE SMOOTH",
"292 821 OFFCURVE",
"269 796 OFFCURVE",
"269 761 CURVE SMOOTH",
"269 727 OFFCURVE",
"292 702 OFFCURVE",
"327 702 CURVE SMOOTH"
);
},
{
closed = 1;
nodes = (
"336 980 LINE",
"431 856 LINE",
"468 887 LINE",
"344 1046 LINE SMOOTH",
"336 1056 OFFCURVE",
"331 1059 OFFCURVE",
"321 1059 CURVE SMOOTH",
"319 1059 LINE SMOOTH",
"309 1059 OFFCURVE",
"301 1055 OFFCURVE",
"293 1046 CURVE SMOOTH",
"167 908 LINE",
"224 854 LINE"
);
}
);
};
layerId = "284FCB4C-24BB-4F0E-B388-CD6C9D45C343";
paths = (
{
closed = 1;
nodes = (
"470 24 OFFCURVE",
"546 92 OFFCURVE",
"546 184 CURVE SMOOTH",
"546 258 OFFCURVE",
"499 321 OFFCURVE",
"432 352 CURVE",
"493 385 OFFCURVE",
"532 443 OFFCURVE",
"545 558 CURVE",
"607 558 LINE",
"607 567 LINE",
"575 625 LINE",
"25 625 LINE",
"25 616 LINE",
"57 558 LINE",
"463 558 LINE",
"449 444 OFFCURVE",
"399 385 OFFCURVE",
"273 385 CURVE SMOOTH",
"253 385 LINE",
"276 318 LINE",
"355 318 LINE SMOOTH",
"434 318 OFFCURVE",
"465 274 OFFCURVE",
"465 213 CURVE SMOOTH",
"465 138 OFFCURVE",
"412 94 OFFCURVE",
"331 94 CURVE SMOOTH",
"216 94 OFFCURVE",
"140 175 OFFCURVE",
"103 385 CURVE",
"53 377 LINE",
"94 117 OFFCURVE",
"204 24 OFFCURVE",
"352 24 CURVE SMOOTH"
);
},
{
closed = 1;
nodes = (
"362 702 OFFCURVE",
"384 727 OFFCURVE",
"384 761 CURVE SMOOTH",
"384 796 OFFCURVE",
"362 821 OFFCURVE",
"327 821 CURVE SMOOTH",
"292 821 OFFCURVE",
"269 796 OFFCURVE",
"269 761 CURVE SMOOTH",
"269 727 OFFCURVE",
"292 702 OFFCURVE",
"327 702 CURVE SMOOTH"
);
},
{
closed = 1;
nodes = (
"336 980 LINE",
"431 856 LINE",
"468 887 LINE",
"344 1046 LINE SMOOTH",
"336 1056 OFFCURVE",
"331 1059 OFFCURVE",
"321 1059 CURVE SMOOTH",
"319 1059 LINE SMOOTH",
"309 1059 OFFCURVE",
"301 1055 OFFCURVE",
"293 1046 CURVE SMOOTH",
"167 908 LINE",
"224 854 LINE"
);
}
);
width = 600;
}
);
category = Letter;
subCategory = Other;
},
{
glyphname = vowelAuAnusvara.dogra;
lastChange = "2019-11-20 09:05:33 +0000";
layers = (
{
background = {
paths = (
{
closed = 1;
nodes = (
"470 24 OFFCURVE",
"546 92 OFFCURVE",
"546 184 CURVE SMOOTH",
"546 258 OFFCURVE",
"499 321 OFFCURVE",
"432 352 CURVE",
"493 385 OFFCURVE",
"532 443 OFFCURVE",
"545 558 CURVE",
"607 558 LINE",
"607 567 LINE",
"575 625 LINE",
"25 625 LINE",
"25 616 LINE",
"57 558 LINE",
"463 558 LINE",
"449 444 OFFCURVE",
"399 385 OFFCURVE",
"273 385 CURVE SMOOTH",
"253 385 LINE",
"276 318 LINE",
"355 318 LINE SMOOTH",
"434 318 OFFCURVE",
"465 274 OFFCURVE",
"465 213 CURVE SMOOTH",
"465 138 OFFCURVE",
"412 94 OFFCURVE",
"331 94 CURVE SMOOTH",
"216 94 OFFCURVE",
"140 175 OFFCURVE",
"103 385 CURVE",
"53 377 LINE",
"94 117 OFFCURVE",
"204 24 OFFCURVE",
"352 24 CURVE SMOOTH"
);
},
{
closed = 1;
nodes = (
"350 702 OFFCURVE",
"372 727 OFFCURVE",
"372 761 CURVE SMOOTH",
"372 796 OFFCURVE",
"350 821 OFFCURVE",
"315 821 CURVE SMOOTH",
"280 821 OFFCURVE",
"257 796 OFFCURVE",
"257 761 CURVE SMOOTH",
"257 727 OFFCURVE",
"280 702 OFFCURVE",
"315 702 CURVE SMOOTH"
);
},
{
closed = 1;
nodes = (
"238 982 LINE",
"314 878 LINE",
"326 878 LINE",
"406 982 LINE",
"478 867 LINE",
"516 892 LINE",
"415 1052 LINE SMOOTH",
"410 1060 OFFCURVE",
"404 1064 OFFCURVE",
"396 1064 CURVE SMOOTH",
"395 1064 LINE SMOOTH",
"386 1064 OFFCURVE",
"380 1060 OFFCURVE",
"374 1052 CURVE SMOOTH",
"305 962 LINE",
"240 1052 LINE SMOOTH",
"234 1060 OFFCURVE",
"229 1064 OFFCURVE",
"220 1064 CURVE SMOOTH",
"219 1064 LINE SMOOTH",
"211 1064 OFFCURVE",
"205 1060 OFFCURVE",
"199 1052 CURVE SMOOTH",
"93 915 LINE",
"150 867 LINE"
);
}
);
};
layerId = "284FCB4C-24BB-4F0E-B388-CD6C9D45C343";
paths = (
{
closed = 1;
nodes = (
"470 24 OFFCURVE",
"546 92 OFFCURVE",
"546 184 CURVE SMOOTH",
"546 258 OFFCURVE",
"499 321 OFFCURVE",
"432 352 CURVE",
"493 385 OFFCURVE",
"532 443 OFFCURVE",
"545 558 CURVE",
"607 558 LINE",
"607 567 LINE",
"575 625 LINE",
"25 625 LINE",
"25 616 LINE",
"57 558 LINE",
"463 558 LINE",
"449 444 OFFCURVE",
"399 385 OFFCURVE",
"273 385 CURVE SMOOTH",
"253 385 LINE",
"276 318 LINE",
"355 318 LINE SMOOTH",
"434 318 OFFCURVE",
"465 274 OFFCURVE",
"465 213 CURVE SMOOTH",
"465 138 OFFCURVE",
"412 94 OFFCURVE",
"331 94 CURVE SMOOTH",
"216 94 OFFCURVE",
"140 175 OFFCURVE",
"103 385 CURVE",
"53 377 LINE",
"94 117 OFFCURVE",
"204 24 OFFCURVE",
"352 24 CURVE SMOOTH"
);
},
{
closed = 1;
nodes = (
"350 702 OFFCURVE",
"372 727 OFFCURVE",
"372 761 CURVE SMOOTH",
"372 796 OFFCURVE",
"350 821 OFFCURVE",
"315 821 CURVE SMOOTH",
"280 821 OFFCURVE",
"257 796 OFFCURVE",
"257 761 CURVE SMOOTH",
"257 727 OFFCURVE",
"280 702 OFFCURVE",
"315 702 CURVE SMOOTH"
);
},
{
closed = 1;
nodes = (
"238 982 LINE",
"314 878 LINE",
"326 878 LINE",
"406 982 LINE",
"478 867 LINE",
"516 892 LINE",
"415 1052 LINE SMOOTH",
"410 1060 OFFCURVE",
"404 1064 OFFCURVE",
"396 1064 CURVE SMOOTH",
"395 1064 LINE SMOOTH",
"386 1064 OFFCURVE",
"380 1060 OFFCURVE",
"374 1052 CURVE SMOOTH",
"305 962 LINE",
"240 1052 LINE SMOOTH",
"234 1060 OFFCURVE",
"229 1064 OFFCURVE",
"220 1064 CURVE SMOOTH",
"219 1064 LINE SMOOTH",
"211 1064 OFFCURVE",
"205 1060 OFFCURVE",
"199 1052 CURVE SMOOTH",
"93 915 LINE",
"150 867 LINE"
);
}
);
width = 600;
}
);
category = Letter;
subCategory = Other;
},
{
glyphname = NnaMatraAa.dogra;
lastChange = "2019-11-20 09:05:33 +0000";
layers = (
{
anchors = (
{
name = top;
position = "{579, 660}";
}
);
background = {
anchors = (
{
name = top;
position = "{579, 660}";
}
);
paths = (
{
closed = 1;
nodes = (
"176 416 OFFCURVE",
"212 494 OFFCURVE",
"265 494 CURVE SMOOTH",
"304 494 OFFCURVE",
"326 457 OFFCURVE",
"366 358 CURVE SMOOTH",
"389 302 LINE",
"408 302 LINE",
"436 362 LINE SMOOTH",
"476 445 OFFCURVE",
"509 494 OFFCURVE",
"552 494 CURVE SMOOTH",
"591 494 OFFCURVE",
"615 463 OFFCURVE",
"660 358 CURVE SMOOTH",
"684 302 LINE",
"703 302 LINE",
"754 423 OFFCURVE",
"796 494 OFFCURVE",
"847 494 CURVE SMOOTH",
"887 494 OFFCURVE",
"907 454 OFFCURVE",
"946 374 CURVE SMOOTH",
"971 323 LINE",
"990 323 LINE",
"1117 666 LINE",
"1049 700 LINE",
"957 459 LINE",
"916 537 OFFCURVE",
"878 576 OFFCURVE",
"825 576 CURVE SMOOTH",
"769 576 OFFCURVE",
"717 527 OFFCURVE",
"676 438 CURVE",
"635 526 OFFCURVE",
"595 576 OFFCURVE",
"533 576 CURVE SMOOTH",
"483 576 OFFCURVE",
"432 540 OFFCURVE",
"384 440 CURVE",
"339 535 OFFCURVE",
"304 576 OFFCURVE",
"241 576 CURVE SMOOTH",
"168 576 OFFCURVE",
"113 499 OFFCURVE",
"53 345 CURVE",
"126 299 LINE"
);
},
{
closed = 1;
nodes = (
"845 150 LINE",
"845 159 LINE",
"813 217 LINE",
"50 217 LINE",
"50 208 LINE",
"82 150 LINE"
);
}
);
};
layerId = "284FCB4C-24BB-4F0E-B388-CD6C9D45C343";
paths = (
{
closed = 1;
nodes = (
"176 416 OFFCURVE",
"212 494 OFFCURVE",
"265 494 CURVE SMOOTH",
"304 494 OFFCURVE",
"326 457 OFFCURVE",
"366 358 CURVE SMOOTH",
"389 302 LINE",
"408 302 LINE",
"436 362 LINE SMOOTH",
"476 445 OFFCURVE",
"509 494 OFFCURVE",
"552 494 CURVE SMOOTH",
"591 494 OFFCURVE",
"615 463 OFFCURVE",
"660 358 CURVE SMOOTH",
"684 302 LINE",
"703 302 LINE",
"754 423 OFFCURVE",
"796 494 OFFCURVE",
"847 494 CURVE SMOOTH",
"887 494 OFFCURVE",
"907 454 OFFCURVE",
"946 374 CURVE SMOOTH",
"971 323 LINE",
"990 323 LINE",
"1117 666 LINE",
"1049 700 LINE",
"957 459 LINE",
"916 537 OFFCURVE",
"878 576 OFFCURVE",
"825 576 CURVE SMOOTH",
"769 576 OFFCURVE",
"717 527 OFFCURVE",
"676 438 CURVE",
"635 526 OFFCURVE",
"595 576 OFFCURVE",
"533 576 CURVE SMOOTH",
"483 576 OFFCURVE",
"432 540 OFFCURVE",
"384 440 CURVE",
"339 535 OFFCURVE",
"304 576 OFFCURVE",
"241 576 CURVE SMOOTH",
"168 576 OFFCURVE",
"113 499 OFFCURVE",
"53 345 CURVE",
"126 299 LINE"
);
},
{
closed = 1;
nodes = (
"845 150 LINE",
"845 159 LINE",
"813 217 LINE",
"50 217 LINE",
"50 208 LINE",
"82 150 LINE"
);
}
);
width = 1117;
}
);
category = Letter;
subCategory = Other;
},
{
glyphname = VaMatraR.dogra;
lastChange = "2019-11-20 09:05:33 +0000";
layers = (
{
anchors = (
{
name = top;
position = "{284, 660}";
}
);
background = {
anchors = (
{
name = top;
position = "{284, 660}";
}
);
paths = (
{
closed = 1;
nodes = (
"446 -35 OFFCURVE",
"496 -10 OFFCURVE",
"528 23 CURVE",
"483 83 LINE",
"457 59 OFFCURVE",
"407 29 OFFCURVE",
"358 29 CURVE SMOOTH",
"322 29 OFFCURVE",
"287 50 OFFCURVE",
"287 91 CURVE SMOOTH",
"287 133 OFFCURVE",
"310 163 OFFCURVE",
"364 190 CURVE SMOOTH",
"381 198 LINE",
"434 224 LINE",
"401 291 LINE",
"354 268 OFFCURVE",
"292 236 OFFCURVE",
"242 236 CURVE SMOOTH",
"189 236 OFFCURVE",
"151 260 OFFCURVE",
"151 304 CURVE SMOOTH",
"151 345 OFFCURVE",
"169 387 OFFCURVE",
"268 403 CURVE SMOOTH",
"341 415 LINE SMOOTH",
"393 424 OFFCURVE",
"409 442 OFFCURVE",
"409 491 CURVE SMOOTH",
"409 558 LINE",
"563 558 LINE",
"563 567 LINE",
"531 625 LINE",
"25 625 LINE",
"25 616 LINE",
"57 558 LINE",
"331 558 LINE",
"331 511 LINE SMOOTH",
"331 491 OFFCURVE",
"327 486 OFFCURVE",
"306 482 CURVE SMOOTH",
"210 465 LINE SMOOTH",
"97 445 OFFCURVE",
"71 388 OFFCURVE",
"71 332 CURVE SMOOTH",
"71 261 OFFCURVE",
"145 197 OFFCURVE",
"226 177 CURVE",
"215 161 OFFCURVE",
"210 143 OFFCURVE",
"210 120 CURVE SMOOTH",
"210 38 OFFCURVE",
"308 -35 OFFCURVE",
"386 -35 CURVE SMOOTH"
);
}
);
};
layerId = "284FCB4C-24BB-4F0E-B388-CD6C9D45C343";
paths = (
{
closed = 1;
nodes = (
"446 -35 OFFCURVE",
"496 -10 OFFCURVE",
"528 23 CURVE",
"483 83 LINE",
"457 59 OFFCURVE",
"407 29 OFFCURVE",
"358 29 CURVE SMOOTH",
"322 29 OFFCURVE",
"287 50 OFFCURVE",
"287 91 CURVE SMOOTH",
"287 133 OFFCURVE",
"310 163 OFFCURVE",
"364 190 CURVE SMOOTH",
"381 198 LINE",
"434 224 LINE",
"401 291 LINE",
"354 268 OFFCURVE",
"292 236 OFFCURVE",
"242 236 CURVE SMOOTH",
"189 236 OFFCURVE",
"151 260 OFFCURVE",
"151 304 CURVE SMOOTH",
"151 345 OFFCURVE",
"169 387 OFFCURVE",
"268 403 CURVE SMOOTH",
"341 415 LINE SMOOTH",
"393 424 OFFCURVE",
"409 442 OFFCURVE",
"409 491 CURVE SMOOTH",
"409 558 LINE",
"563 558 LINE",
"563 567 LINE",
"531 625 LINE",
"25 625 LINE",
"25 616 LINE",
"57 558 LINE",
"331 558 LINE",
"331 511 LINE SMOOTH",
"331 491 OFFCURVE",
"327 486 OFFCURVE",
"306 482 CURVE SMOOTH",
"210 465 LINE SMOOTH",
"97 445 OFFCURVE",
"71 388 OFFCURVE",
"71 332 CURVE SMOOTH",
"71 261 OFFCURVE",
"145 197 OFFCURVE",
"226 177 CURVE",
"215 161 OFFCURVE",
"210 143 OFFCURVE",
"210 120 CURVE SMOOTH",
"210 38 OFFCURVE",
"308 -35 OFFCURVE",
"386 -35 CURVE SMOOTH"
);
}
);
width = 588;
}
);
category = Letter;
subCategory = Other;
},
{
glyphname = matraAa.alt.dogra;
lastChange = "2019-11-20 09:05:33 +0000";
layers = (
{
background = {
paths = (
{
closed = 1;
nodes = (
"137 362 LINE",
"252 666 LINE",
"184 700 LINE",
"99 475 LINE",
"-7 625 LINE",
"-241 625 LINE",
"-241 617 LINE",
"-164 568 LINE",
"-34 568 LINE",
"123 362 LINE"
);
}
);
};
layerId = "284FCB4C-24BB-4F0E-B388-CD6C9D45C343";
paths = (
{
closed = 1;
nodes = (
"137 362 LINE",
"252 666 LINE",
"184 700 LINE",
"99 475 LINE",
"-7 625 LINE",
"-241 625 LINE",
"-241 617 LINE",
"-164 568 LINE",
"-34 568 LINE",
"123 362 LINE"
);
}
);
width = 253;
}
);
category = Letter;
subCategory = Other;
},
{
glyphname = matraR.alt.dogra;
lastChange = "2019-09-07 12:07:09 +0000";
layers = (
{
anchors = (
{
name = _bottom3;
position = "{-306, 56}";
}
);
background = {
anchors = (
{
name = _bottom3;
position = "{-306, 56}";
}
);
paths = (
{
closed = 1;
nodes = (
"-105 -233 OFFCURVE",
"-67 -218 OFFCURVE",
"-35 -185 CURVE",
"-80 -125 LINE",
"-106 -149 OFFCURVE",
"-144 -169 OFFCURVE",
"-185 -169 CURVE SMOOTH",
"-221 -169 OFFCURVE",
"-246 -151 OFFCURVE",
"-246 -117 CURVE SMOOTH",
"-246 -80 OFFCURVE",
"-224 -57 OFFCURVE",
"-176 -40 CURVE SMOOTH",
"-103 -14 LINE",
"-103 0 LINE",
"-159 42 LINE",
"-218 22 LINE SMOOTH",
"-290 -2 OFFCURVE",
"-323 -36 OFFCURVE",
"-323 -88 CURVE SMOOTH",
"-323 -165 OFFCURVE",
"-225 -233 OFFCURVE",
"-157 -233 CURVE SMOOTH"
);
}
);
};
layerId = "284FCB4C-24BB-4F0E-B388-CD6C9D45C343";
paths = (
{
closed = 1;
nodes = (
"-105 -233 OFFCURVE",
"-67 -218 OFFCURVE",
"-35 -185 CURVE",
"-80 -125 LINE",
"-106 -149 OFFCURVE",
"-144 -169 OFFCURVE",
"-185 -169 CURVE SMOOTH",
"-221 -169 OFFCURVE",
"-246 -151 OFFCURVE",
"-246 -117 CURVE SMOOTH",
"-246 -80 OFFCURVE",
"-224 -57 OFFCURVE",
"-176 -40 CURVE SMOOTH",
"-103 -14 LINE",
"-103 0 LINE",
"-159 42 LINE",
"-218 22 LINE SMOOTH",
"-290 -2 OFFCURVE",
"-323 -36 OFFCURVE",
"-323 -88 CURVE SMOOTH",
"-323 -165 OFFCURVE",
"-225 -233 OFFCURVE",
"-157 -233 CURVE SMOOTH"
);
}
);
width = 0;
}
);
category = Mark;
subCategory = Nonspacing;
},
{
glyphname = matraRr.alt.dogra;
lastChange = "2019-09-07 12:07:09 +0000";
layers = (
{
anchors = (
{
name = _bottom3;
position = "{-306, 56}";
}
);
background = {
anchors = (
{
name = _bottom3;
position = "{-306, 56}";
}
);
paths = (
{
closed = 1;
nodes = (
"-90 -327 OFFCURVE",
"-51 -313 OFFCURVE",
"-24 -289 CURVE",
"-58 -233 LINE",
"-88 -254 OFFCURVE",
"-124 -269 OFFCURVE",
"-166 -269 CURVE SMOOTH",
"-205 -269 OFFCURVE",
"-229 -253 OFFCURVE",
"-229 -227 CURVE SMOOTH",
"-229 -208 OFFCURVE",
"-218 -192 OFFCURVE",
"-190 -183 CURVE",
"-178 -185 OFFCURVE",
"-166 -186 OFFCURVE",
"-155 -186 CURVE SMOOTH",
"-115 -186 OFFCURVE",
"-77 -175 OFFCURVE",
"-49 -151 CURVE",
"-82 -96 LINE",
"-113 -117 OFFCURVE",
"-148 -128 OFFCURVE",
"-187 -128 CURVE SMOOTH",
"-222 -128 OFFCURVE",
"-242 -113 OFFCURVE",
"-242 -89 CURVE SMOOTH",
"-242 -66 OFFCURVE",
"-219 -53 OFFCURVE",
"-169 -36 CURVE SMOOTH",
"-103 -14 LINE",
"-103 0 LINE",
"-157 41 LINE",
"-211 24 LINE SMOOTH",
"-286 0 OFFCURVE",
"-315 -17 OFFCURVE",
"-315 -70 CURVE SMOOTH",
"-315 -102 OFFCURVE",
"-296 -129 OFFCURVE",
"-269 -149 CURVE",
"-292 -164 OFFCURVE",
"-302 -183 OFFCURVE",
"-302 -206 CURVE SMOOTH",
"-302 -276 OFFCURVE",
"-214 -327 OFFCURVE",
"-133 -327 CURVE SMOOTH"
);
}
);
};
layerId = "284FCB4C-24BB-4F0E-B388-CD6C9D45C343";
paths = (
{
closed = 1;
nodes = (
"-90 -327 OFFCURVE",
"-51 -313 OFFCURVE",
"-24 -289 CURVE",
"-58 -233 LINE",
"-88 -254 OFFCURVE",
"-124 -269 OFFCURVE",
"-166 -269 CURVE SMOOTH",
"-205 -269 OFFCURVE",
"-229 -253 OFFCURVE",
"-229 -227 CURVE SMOOTH",
"-229 -208 OFFCURVE",
"-218 -192 OFFCURVE",
"-190 -183 CURVE",
"-178 -185 OFFCURVE",
"-166 -186 OFFCURVE",
"-155 -186 CURVE SMOOTH",
"-115 -186 OFFCURVE",
"-77 -175 OFFCURVE",
"-49 -151 CURVE",
"-82 -96 LINE",
"-113 -117 OFFCURVE",
"-148 -128 OFFCURVE",
"-187 -128 CURVE SMOOTH",
"-222 -128 OFFCURVE",
"-242 -113 OFFCURVE",
"-242 -89 CURVE SMOOTH",
"-242 -66 OFFCURVE",
"-219 -53 OFFCURVE",
"-169 -36 CURVE SMOOTH",
"-103 -14 LINE",
"-103 0 LINE",
"-157 41 LINE",
"-211 24 LINE SMOOTH",
"-286 0 OFFCURVE",
"-315 -17 OFFCURVE",
"-315 -70 CURVE SMOOTH",
"-315 -102 OFFCURVE",
"-296 -129 OFFCURVE",
"-269 -149 CURVE",
"-292 -164 OFFCURVE",
"-302 -183 OFFCURVE",
"-302 -206 CURVE SMOOTH",
"-302 -276 OFFCURVE",
"-214 -327 OFFCURVE",
"-133 -327 CURVE SMOOTH"
);
}
);
width = 0;
}
);
category = Mark;
subCategory = Nonspacing;
},
{
glyphname = matraI.alt.dogra;
lastChange = "2019-11-20 09:17:57 +0000";
layers = (
{
background = {
paths = (
{
closed = 1;
nodes = (
"181 -4 LINE",
"181 658 LINE SMOOTH",
"181 733 OFFCURVE",
"224 769 OFFCURVE",
"280 769 CURVE SMOOTH",
"338 769 OFFCURVE",
"377 730 OFFCURVE",
"405 658 CURVE",
"441 673 LINE",
"416 758 OFFCURVE",
"366 836 OFFCURVE",
"260 836 CURVE SMOOTH",
"170 836 OFFCURVE",
"103 779 OFFCURVE",
"103 677 CURVE SMOOTH",
"103 30 LINE",
"172 -4 LINE"
);
}
);
};
layerId = "284FCB4C-24BB-4F0E-B388-CD6C9D45C343";
paths = (
{
closed = 1;
nodes = (
"181 -4 LINE",
"181 658 LINE SMOOTH",
"181 733 OFFCURVE",
"224 769 OFFCURVE",
"280 769 CURVE SMOOTH",
"338 769 OFFCURVE",
"377 730 OFFCURVE",
"405 658 CURVE",
"441 673 LINE",
"416 758 OFFCURVE",
"366 836 OFFCURVE",
"260 836 CURVE SMOOTH",
"170 836 OFFCURVE",
"103 779 OFFCURVE",
"103 677 CURVE SMOOTH",
"103 30 LINE",
"172 -4 LINE"
);
}
);
width = 284;
}
);
category = Letter;
subCategory = Other;
},
{
glyphname = matraIi.alt.dogra;
lastChange = "2019-11-20 09:17:57 +0000";
layers = (
{
background = {
paths = (
{
closed = 1;
nodes = (
"181 -4 LINE",
"181 658 LINE SMOOTH",
"181 746 OFFCURVE",
"94 844 OFFCURVE",
"-13 844 CURVE SMOOTH",
"-94 844 OFFCURVE",
"-142 793 OFFCURVE",
"-142 732 CURVE SMOOTH",
"-142 661 OFFCURVE",
"-90 612 OFFCURVE",
"-10 583 CURVE",
"5 614 LINE",
"-41 635 OFFCURVE",
"-62 662 OFFCURVE",
"-62 701 CURVE SMOOTH",
"-62 743 OFFCURVE",
"-33 780 OFFCURVE",
"22 780 CURVE SMOOTH",
"73 780 OFFCURVE",
"103 749 OFFCURVE",
"103 687 CURVE SMOOTH",
"103 30 LINE",
"172 -4 LINE"
);
}
);
};
layerId = "284FCB4C-24BB-4F0E-B388-CD6C9D45C343";
paths = (
{
closed = 1;
nodes = (
"181 -4 LINE",
"181 658 LINE SMOOTH",
"181 746 OFFCURVE",
"94 844 OFFCURVE",
"-13 844 CURVE SMOOTH",
"-94 844 OFFCURVE",
"-142 793 OFFCURVE",
"-142 732 CURVE SMOOTH",
"-142 661 OFFCURVE",
"-90 612 OFFCURVE",
"-10 583 CURVE",
"5 614 LINE",
"-41 635 OFFCURVE",
"-62 662 OFFCURVE",
"-62 701 CURVE SMOOTH",
"-62 743 OFFCURVE",
"-33 780 OFFCURVE",
"22 780 CURVE SMOOTH",
"73 780 OFFCURVE",
"103 749 OFFCURVE",
"103 687 CURVE SMOOTH",
"103 30 LINE",
"172 -4 LINE"
);
}
);
width = 284;
}
);
category = Letter;
subCategory = Other;
},
{
glyphname = Anusvara.alt.dogra;
lastChange = "2019-09-07 12:07:09 +0000";
layers = (
{
anchors = (
{
name = _top2;
position = "{-294, 660}";
}
);
background = {
anchors = (
{
name = _top2;
position = "{-294, 660}";
}
);
paths = (
{
closed = 1;
nodes = (
"-259 737 OFFCURVE",
"-237 762 OFFCURVE",
"-237 796 CURVE SMOOTH",
"-237 831 OFFCURVE",
"-259 856 OFFCURVE",
"-294 856 CURVE SMOOTH",
"-329 856 OFFCURVE",
"-352 831 OFFCURVE",
"-352 796 CURVE SMOOTH",
"-352 762 OFFCURVE",
"-329 737 OFFCURVE",
"-294 737 CURVE SMOOTH"
);
}
);
};
layerId = "284FCB4C-24BB-4F0E-B388-CD6C9D45C343";
paths = (
{
closed = 1;
nodes = (
"-259 737 OFFCURVE",
"-237 762 OFFCURVE",
"-237 796 CURVE SMOOTH",
"-237 831 OFFCURVE",
"-259 856 OFFCURVE",
"-294 856 CURVE SMOOTH",
"-329 856 OFFCURVE",
"-352 831 OFFCURVE",
"-352 796 CURVE SMOOTH",
"-352 762 OFFCURVE",
"-329 737 OFFCURVE",
"-294 737 CURVE SMOOTH"
);
}
);
width = 0;
}
);
category = Mark;
subCategory = Nonspacing;
},
{
glyphname = matraIiAnusvara.dogra;
lastChange = "2019-11-20 09:17:28 +0000";
layers = (
{
background = {
paths = (
{
closed = 1;
nodes = (
"181 -4 LINE",
"181 558 LINE",
"259 558 LINE",
"259 567 LINE",
"227 625 LINE",
"181 625 LINE",
"181 634 LINE SMOOTH",
"181 736 OFFCURVE",
"84 847 OFFCURVE",
"-34 847 CURVE SMOOTH",
"-133 847 OFFCURVE",
"-197 792 OFFCURVE",
"-197 711 CURVE SMOOTH",
"-197 656 OFFCURVE",
"-166 621 OFFCURVE",
"-130 598 CURVE",
"-108 612 LINE",
"-116 632 OFFCURVE",
"-121 648 OFFCURVE",
"-121 675 CURVE SMOOTH",
"-121 734 OFFCURVE",
"-81 782 OFFCURVE",
"-4 782 CURVE SMOOTH",
"75 782 OFFCURVE",
"103 737 OFFCURVE",
"103 657 CURVE SMOOTH",
"103 625 LINE",
"-93 625 LINE",
"-93 616 LINE",
"-61 558 LINE",
"103 558 LINE",
"103 30 LINE",
"172 -4 LINE"
);
},
{
closed = 1;
nodes = (
"-276 737 OFFCURVE",
"-254 762 OFFCURVE",
"-254 796 CURVE SMOOTH",
"-254 831 OFFCURVE",
"-276 856 OFFCURVE",
"-311 856 CURVE SMOOTH",
"-346 856 OFFCURVE",
"-369 831 OFFCURVE",
"-369 796 CURVE SMOOTH",
"-369 762 OFFCURVE",
"-346 737 OFFCURVE",
"-311 737 CURVE SMOOTH"
);
}
);
};
layerId = "284FCB4C-24BB-4F0E-B388-CD6C9D45C343";
paths = (
{
closed = 1;
nodes = (
"181 -4 LINE",
"181 558 LINE",
"259 558 LINE",
"259 567 LINE",
"227 625 LINE",
"181 625 LINE",
"181 634 LINE SMOOTH",
"181 736 OFFCURVE",
"84 847 OFFCURVE",
"-34 847 CURVE SMOOTH",
"-133 847 OFFCURVE",
"-197 792 OFFCURVE",
"-197 711 CURVE SMOOTH",
"-197 656 OFFCURVE",
"-166 621 OFFCURVE",
"-130 598 CURVE",
"-108 612 LINE",
"-116 632 OFFCURVE",
"-121 648 OFFCURVE",
"-121 675 CURVE SMOOTH",
"-121 734 OFFCURVE",
"-81 782 OFFCURVE",
"-4 782 CURVE SMOOTH",
"75 782 OFFCURVE",
"103 737 OFFCURVE",
"103 657 CURVE SMOOTH",
"103 625 LINE",
"-93 625 LINE",
"-93 616 LINE",
"-61 558 LINE",
"103 558 LINE",
"103 30 LINE",
"172 -4 LINE"
);
},
{
closed = 1;
nodes = (
"-276 737 OFFCURVE",
"-254 762 OFFCURVE",
"-254 796 CURVE SMOOTH",
"-254 831 OFFCURVE",
"-276 856 OFFCURVE",
"-311 856 CURVE SMOOTH",
"-346 856 OFFCURVE",
"-369 831 OFFCURVE",
"-369 796 CURVE SMOOTH",
"-369 762 OFFCURVE",
"-346 737 OFFCURVE",
"-311 737 CURVE SMOOTH"
);
}
);
width = 284;
}
);
category = Letter;
subCategory = Other;
},
{
glyphname = matraIiAnusvara.alt.dogra;
lastChange = "2019-11-20 09:17:34 +0000";
layers = (
{
background = {
paths = (
{
closed = 1;
nodes = (
"181 -4 LINE",
"181 658 LINE SMOOTH",
"181 746 OFFCURVE",
"94 844 OFFCURVE",
"-13 844 CURVE SMOOTH",
"-94 844 OFFCURVE",
"-142 793 OFFCURVE",
"-142 732 CURVE SMOOTH",
"-142 661 OFFCURVE",
"-90 612 OFFCURVE",
"-10 583 CURVE",
"5 614 LINE",
"-41 635 OFFCURVE",
"-62 662 OFFCURVE",
"-62 701 CURVE SMOOTH",
"-62 743 OFFCURVE",
"-33 780 OFFCURVE",
"22 780 CURVE SMOOTH",
"73 780 OFFCURVE",
"103 749 OFFCURVE",
"103 687 CURVE SMOOTH",
"103 30 LINE",
"172 -4 LINE"
);
},
{
closed = 1;
nodes = (
"-256 737 OFFCURVE",
"-234 762 OFFCURVE",
"-234 796 CURVE SMOOTH",
"-234 831 OFFCURVE",
"-256 856 OFFCURVE",
"-291 856 CURVE SMOOTH",
"-326 856 OFFCURVE",
"-349 831 OFFCURVE",
"-349 796 CURVE SMOOTH",
"-349 762 OFFCURVE",
"-326 737 OFFCURVE",
"-291 737 CURVE SMOOTH"
);
}
);
};
layerId = "284FCB4C-24BB-4F0E-B388-CD6C9D45C343";
paths = (
{
closed = 1;
nodes = (
"181 -4 LINE",
"181 658 LINE SMOOTH",
"181 746 OFFCURVE",
"94 844 OFFCURVE",
"-13 844 CURVE SMOOTH",
"-94 844 OFFCURVE",
"-142 793 OFFCURVE",
"-142 732 CURVE SMOOTH",
"-142 661 OFFCURVE",
"-90 612 OFFCURVE",
"-10 583 CURVE",
"5 614 LINE",
"-41 635 OFFCURVE",
"-62 662 OFFCURVE",
"-62 701 CURVE SMOOTH",
"-62 743 OFFCURVE",
"-33 780 OFFCURVE",
"22 780 CURVE SMOOTH",
"73 780 OFFCURVE",
"103 749 OFFCURVE",
"103 687 CURVE SMOOTH",
"103 30 LINE",
"172 -4 LINE"
);
},
{
closed = 1;
nodes = (
"-256 737 OFFCURVE",
"-234 762 OFFCURVE",
"-234 796 CURVE SMOOTH",
"-234 831 OFFCURVE",
"-256 856 OFFCURVE",
"-291 856 CURVE SMOOTH",
"-326 856 OFFCURVE",
"-349 831 OFFCURVE",
"-349 796 CURVE SMOOTH",
"-349 762 OFFCURVE",
"-326 737 OFFCURVE",
"-291 737 CURVE SMOOTH"
);
}
);
width = 284;
}
);
category = Letter;
subCategory = Other;
},
{
glyphname = matraOAnusvara.dogra;
lastChange = "2019-09-14 07:24:46 +0000";
layers = (
{
anchors = (
{
name = _top;
position = "{-294, 660}";
}
);
background = {
anchors = (
{
name = _top;
position = "{-294, 660}";
}
);
paths = (
{
closed = 1;
nodes = (
"-286 980 LINE",
"-191 856 LINE",
"-154 887 LINE",
"-278 1046 LINE SMOOTH",
"-286 1056 OFFCURVE",
"-291 1059 OFFCURVE",
"-301 1059 CURVE SMOOTH",
"-303 1059 LINE SMOOTH",
"-313 1059 OFFCURVE",
"-321 1055 OFFCURVE",
"-329 1046 CURVE SMOOTH",
"-455 908 LINE",
"-398 854 LINE"
);
},
{
closed = 1;
nodes = (
"-260 702 OFFCURVE",
"-238 727 OFFCURVE",
"-238 761 CURVE SMOOTH",
"-238 796 OFFCURVE",
"-260 821 OFFCURVE",
"-295 821 CURVE SMOOTH",
"-330 821 OFFCURVE",
"-353 796 OFFCURVE",
"-353 761 CURVE SMOOTH",
"-353 727 OFFCURVE",
"-330 702 OFFCURVE",
"-295 702 CURVE SMOOTH"
);
}
);
};
layerId = "284FCB4C-24BB-4F0E-B388-CD6C9D45C343";
paths = (
{
closed = 1;
nodes = (
"-286 980 LINE",
"-191 856 LINE",
"-154 887 LINE",
"-278 1046 LINE SMOOTH",
"-286 1056 OFFCURVE",
"-291 1059 OFFCURVE",
"-301 1059 CURVE SMOOTH",
"-303 1059 LINE SMOOTH",
"-313 1059 OFFCURVE",
"-321 1055 OFFCURVE",
"-329 1046 CURVE SMOOTH",
"-455 908 LINE",
"-398 854 LINE"
);
},
{
closed = 1;
nodes = (
"-260 702 OFFCURVE",
"-238 727 OFFCURVE",
"-238 761 CURVE SMOOTH",
"-238 796 OFFCURVE",
"-260 821 OFFCURVE",
"-295 821 CURVE SMOOTH",
"-330 821 OFFCURVE",
"-353 796 OFFCURVE",
"-353 761 CURVE SMOOTH",
"-353 727 OFFCURVE",
"-330 702 OFFCURVE",
"-295 702 CURVE SMOOTH"
);
}
);
width = 0;
}
);
category = Mark;
subCategory = Nonspacing;
},
{
glyphname = matraAuAnusvara.dogra;
lastChange = "2019-09-14 07:24:57 +0000";
layers = (
{
anchors = (
{
name = _top;
position = "{-294, 660}";
}
);
background = {
anchors = (
{
name = _top;
position = "{-294, 660}";
}
);
paths = (
{
closed = 1;
nodes = (
"-371 982 LINE",
"-295 878 LINE",
"-283 878 LINE",
"-203 982 LINE",
"-131 867 LINE",
"-93 892 LINE",
"-194 1052 LINE SMOOTH",
"-199 1060 OFFCURVE",
"-205 1064 OFFCURVE",
"-213 1064 CURVE SMOOTH",
"-214 1064 LINE SMOOTH",
"-223 1064 OFFCURVE",
"-229 1060 OFFCURVE",
"-235 1052 CURVE SMOOTH",
"-304 962 LINE",
"-369 1052 LINE SMOOTH",
"-375 1060 OFFCURVE",
"-380 1064 OFFCURVE",
"-389 1064 CURVE SMOOTH",
"-390 1064 LINE SMOOTH",
"-398 1064 OFFCURVE",
"-404 1060 OFFCURVE",
"-410 1052 CURVE SMOOTH",
"-516 915 LINE",
"-459 867 LINE"
);
},
{
closed = 1;
nodes = (
"-259 702 OFFCURVE",
"-237 727 OFFCURVE",
"-237 761 CURVE SMOOTH",
"-237 796 OFFCURVE",
"-259 821 OFFCURVE",
"-294 821 CURVE SMOOTH",
"-329 821 OFFCURVE",
"-352 796 OFFCURVE",
"-352 761 CURVE SMOOTH",
"-352 727 OFFCURVE",
"-329 702 OFFCURVE",
"-294 702 CURVE SMOOTH"
);
}
);
};
layerId = "284FCB4C-24BB-4F0E-B388-CD6C9D45C343";
paths = (
{
closed = 1;
nodes = (
"-371 982 LINE",
"-295 878 LINE",
"-283 878 LINE",
"-203 982 LINE",
"-131 867 LINE",
"-93 892 LINE",
"-194 1052 LINE SMOOTH",
"-199 1060 OFFCURVE",
"-205 1064 OFFCURVE",
"-213 1064 CURVE SMOOTH",
"-214 1064 LINE SMOOTH",
"-223 1064 OFFCURVE",
"-229 1060 OFFCURVE",
"-235 1052 CURVE SMOOTH",
"-304 962 LINE",
"-369 1052 LINE SMOOTH",
"-375 1060 OFFCURVE",
"-380 1064 OFFCURVE",
"-389 1064 CURVE SMOOTH",
"-390 1064 LINE SMOOTH",
"-398 1064 OFFCURVE",
"-404 1060 OFFCURVE",
"-410 1052 CURVE SMOOTH",
"-516 915 LINE",
"-459 867 LINE"
);
},
{
closed = 1;
nodes = (
"-259 702 OFFCURVE",
"-237 727 OFFCURVE",
"-237 761 CURVE SMOOTH",
"-237 796 OFFCURVE",
"-259 821 OFFCURVE",
"-294 821 CURVE SMOOTH",
"-329 821 OFFCURVE",
"-352 796 OFFCURVE",
"-352 761 CURVE SMOOTH",
"-352 727 OFFCURVE",
"-329 702 OFFCURVE",
"-294 702 CURVE SMOOTH"
);
}
);
width = 0;
}
);
category = Mark;
subCategory = Nonspacing;
},
{
glyphname = matraEAnusvara.dogra;
lastChange = "2019-09-14 07:25:59 +0000";
layers = (
{
anchors = (
{
name = _top;
position = "{-294, 660}";
}
);
background = {
anchors = (
{
name = _top;
position = "{-294, 660}";
}
);
paths = (
{
closed = 1;
nodes = (
"-101 728 LINE",
"-101 737 LINE",
"-133 792 LINE",
"-496 792 LINE",
"-496 783 LINE",
"-464 728 LINE"
);
},
{
closed = 1;
nodes = (
"-262 859 OFFCURVE",
"-240 884 OFFCURVE",
"-240 918 CURVE SMOOTH",
"-240 953 OFFCURVE",
"-262 978 OFFCURVE",
"-297 978 CURVE SMOOTH",
"-332 978 OFFCURVE",
"-355 953 OFFCURVE",
"-355 918 CURVE SMOOTH",
"-355 884 OFFCURVE",
"-332 859 OFFCURVE",
"-297 859 CURVE SMOOTH"
);
}
);
};
layerId = "284FCB4C-24BB-4F0E-B388-CD6C9D45C343";
paths = (
{
closed = 1;
nodes = (
"-101 728 LINE",
"-101 737 LINE",
"-133 792 LINE",
"-496 792 LINE",
"-496 783 LINE",
"-464 728 LINE"
);
},
{
closed = 1;
nodes = (
"-262 859 OFFCURVE",
"-240 884 OFFCURVE",
"-240 918 CURVE SMOOTH",
"-240 953 OFFCURVE",
"-262 978 OFFCURVE",
"-297 978 CURVE SMOOTH",
"-332 978 OFFCURVE",
"-355 953 OFFCURVE",
"-355 918 CURVE SMOOTH",
"-355 884 OFFCURVE",
"-332 859 OFFCURVE",
"-297 859 CURVE SMOOTH"
);
}
);
width = 0;
}
);
category = Mark;
subCategory = Nonspacing;
},
{
glyphname = matraAiAnusvara.dogra;
lastChange = "2019-09-14 07:25:15 +0000";
layers = (
{
anchors = (
{
name = _top;
position = "{-294, 660}";
}
);
background = {
anchors = (
{
name = _top;
position = "{-294, 660}";
}
);
paths = (
{
closed = 1;
nodes = (
"-105 856 LINE",
"-105 865 LINE",
"-137 920 LINE",
"-500 920 LINE",
"-500 911 LINE",
"-468 856 LINE"
);
},
{
closed = 1;
nodes = (
"-101 718 LINE",
"-101 727 LINE",
"-133 782 LINE",
"-496 782 LINE",
"-496 773 LINE",
"-464 718 LINE"
);
},
{
closed = 1;
nodes = (
"-260 990 OFFCURVE",
"-238 1015 OFFCURVE",
"-238 1049 CURVE SMOOTH",
"-238 1084 OFFCURVE",
"-260 1109 OFFCURVE",
"-295 1109 CURVE SMOOTH",
"-330 1109 OFFCURVE",
"-353 1084 OFFCURVE",
"-353 1049 CURVE SMOOTH",
"-353 1015 OFFCURVE",
"-330 990 OFFCURVE",
"-295 990 CURVE SMOOTH"
);
}
);
};
layerId = "284FCB4C-24BB-4F0E-B388-CD6C9D45C343";
paths = (
{
closed = 1;
nodes = (
"-105 856 LINE",
"-105 865 LINE",
"-137 920 LINE",
"-500 920 LINE",
"-500 911 LINE",
"-468 856 LINE"
);
},
{
closed = 1;
nodes = (
"-101 718 LINE",
"-101 727 LINE",
"-133 782 LINE",
"-496 782 LINE",
"-496 773 LINE",
"-464 718 LINE"
);
},
{
closed = 1;
nodes = (
"-260 990 OFFCURVE",
"-238 1015 OFFCURVE",
"-238 1049 CURVE SMOOTH",
"-238 1084 OFFCURVE",
"-260 1109 OFFCURVE",
"-295 1109 CURVE SMOOTH",
"-330 1109 OFFCURVE",
"-353 1084 OFFCURVE",
"-353 1049 CURVE SMOOTH",
"-353 1015 OFFCURVE",
"-330 990 OFFCURVE",
"-295 990 CURVE SMOOTH"
);
}
);
width = 0;
}
);
category = Mark;
subCategory = Nonspacing;
userData = {
com.typemytype.robofont.guides = (
{
isGlobal = 0;
magnetic = 5;
x = 0;
y = 1079;
}
);
};
},
{
glyphname = vowelUu.alt.dogra;
lastChange = "2019-11-20 09:06:43 +0000";
layers = (
{
anchors = (
{
name = top;
position = "{334, 660}";
}
);
background = {
anchors = (
{
name = top;
position = "{334, 660}";
}
);
paths = (
{
closed = 1;
nodes = (
"573 -165 OFFCURVE",
"680 -65 OFFCURVE",
"680 84 CURVE SMOOTH",
"680 203 OFFCURVE",
"597 310 OFFCURVE",
"433 352 CURVE",
"493 385 OFFCURVE",
"532 443 OFFCURVE",
"545 558 CURVE",
"676 558 LINE",
"676 567 LINE",
"644 625 LINE",
"25 625 LINE",
"25 616 LINE",
"57 558 LINE",
"463 558 LINE",
"449 444 OFFCURVE",
"399 385 OFFCURVE",
"273 385 CURVE SMOOTH",
"253 385 LINE",
"276 318 LINE",
"355 318 LINE SMOOTH",
"434 318 OFFCURVE",
"465 274 OFFCURVE",
"465 213 CURVE SMOOTH",
"465 138 OFFCURVE",
"412 94 OFFCURVE",
"331 94 CURVE SMOOTH",
"216 94 OFFCURVE",
"140 175 OFFCURVE",
"103 385 CURVE",
"53 377 LINE",
"94 117 OFFCURVE",
"204 24 OFFCURVE",
"352 24 CURVE SMOOTH",
"470 24 OFFCURVE",
"546 92 OFFCURVE",
"546 184 CURVE SMOOTH",
"546 219 OFFCURVE",
"535 251 OFFCURVE",
"517 279 CURVE",
"574 242 OFFCURVE",
"601 182 OFFCURVE",
"601 121 CURVE SMOOTH",
"601 -17 OFFCURVE",
"512 -97 OFFCURVE",
"355 -97 CURVE SMOOTH",
"249 -97 OFFCURVE",
"146 -43 OFFCURVE",
"72 50 CURVE",
"42 25 LINE",
"119 -96 OFFCURVE",
"251 -165 OFFCURVE",
"387 -165 CURVE SMOOTH"
);
}
);
};
layerId = "284FCB4C-24BB-4F0E-B388-CD6C9D45C343";
paths = (
{
closed = 1;
nodes = (
"573 -165 OFFCURVE",
"680 -65 OFFCURVE",
"680 84 CURVE SMOOTH",
"680 203 OFFCURVE",
"597 310 OFFCURVE",
"433 352 CURVE",
"493 385 OFFCURVE",
"532 443 OFFCURVE",
"545 558 CURVE",
"676 558 LINE",
"676 567 LINE",
"644 625 LINE",
"25 625 LINE",
"25 616 LINE",
"57 558 LINE",
"463 558 LINE",
"449 444 OFFCURVE",
"399 385 OFFCURVE",
"273 385 CURVE SMOOTH",
"253 385 LINE",
"276 318 LINE",
"355 318 LINE SMOOTH",
"434 318 OFFCURVE",
"465 274 OFFCURVE",
"465 213 CURVE SMOOTH",
"465 138 OFFCURVE",
"412 94 OFFCURVE",
"331 94 CURVE SMOOTH",
"216 94 OFFCURVE",
"140 175 OFFCURVE",
"103 385 CURVE",
"53 377 LINE",
"94 117 OFFCURVE",
"204 24 OFFCURVE",
"352 24 CURVE SMOOTH",
"470 24 OFFCURVE",
"546 92 OFFCURVE",
"546 184 CURVE SMOOTH",
"546 219 OFFCURVE",
"535 251 OFFCURVE",
"517 279 CURVE",
"574 242 OFFCURVE",
"601 182 OFFCURVE",
"601 121 CURVE SMOOTH",
"601 -17 OFFCURVE",
"512 -97 OFFCURVE",
"355 -97 CURVE SMOOTH",
"249 -97 OFFCURVE",
"146 -43 OFFCURVE",
"72 50 CURVE",
"42 25 LINE",
"119 -96 OFFCURVE",
"251 -165 OFFCURVE",
"387 -165 CURVE SMOOTH"
);
}
);
width = 701;
}
);
category = Letter;
subCategory = Other;
},
{
glyphname = Dha.alt.dogra;
lastChange = "2019-11-20 09:06:43 +0000";
layers = (
{
anchors = (
{
name = bottom1;
position = "{489, -50}";
},
{
name = bottom2;
position = "{293, -30}";
},
{
name = bottom3;
position = "{325, 56}";
},
{
name = top;
position = "{322, 660}";
},
{
name = top2;
position = "{282, 660}";
}
);
background = {
anchors = (
{
name = bottom1;
position = "{489, -50}";
},
{
name = bottom2;
position = "{293, -30}";
},
{
name = bottom3;
position = "{325, 56}";
},
{
name = top;
position = "{322, 660}";
},
{
name = top2;
position = "{282, 660}";
}
);
paths = (
{
closed = 1;
nodes = (
"528 -4 LINE",
"528 558 LINE",
"620 558 LINE",
"620 567 LINE",
"588 625 LINE",
"450 625 LINE",
"450 259 LINE",
"415 228 OFFCURVE",
"359 201 OFFCURVE",
"289 201 CURVE SMOOTH",
"200 201 OFFCURVE",
"151 236 OFFCURVE",
"122 285 CURVE",
"170 319 LINE SMOOTH",
"234 364 OFFCURVE",
"254 384 OFFCURVE",
"254 427 CURVE SMOOTH",
"254 465 OFFCURVE",
"236 511 OFFCURVE",
"211 558 CURVE",
"304 558 LINE",
"304 567 LINE",
"272 625 LINE",
"25 625 LINE",
"25 616 LINE",
"57 558 LINE",
"147 558 LINE",
"167 515 OFFCURVE",
"179 481 OFFCURVE",
"179 450 CURVE SMOOTH",
"179 425 OFFCURVE",
"162 411 OFFCURVE",
"125 386 CURVE SMOOTH",
"71 349 LINE SMOOTH",
"58 340 OFFCURVE",
"54 328 OFFCURVE",
"54 317 CURVE SMOOTH",
"54 305 OFFCURVE",
"58 293 OFFCURVE",
"67 275 CURVE SMOOTH",
"106 200 OFFCURVE",
"194 135 OFFCURVE",
"309 135 CURVE SMOOTH",
"366 135 OFFCURVE",
"412 145 OFFCURVE",
"450 162 CURVE",
"450 30 LINE",
"519 -4 LINE"
);
}
);
};
layerId = "284FCB4C-24BB-4F0E-B388-CD6C9D45C343";
paths = (
{
closed = 1;
nodes = (
"528 -4 LINE",
"528 558 LINE",
"620 558 LINE",
"620 567 LINE",
"588 625 LINE",
"450 625 LINE",
"450 259 LINE",
"415 228 OFFCURVE",
"359 201 OFFCURVE",
"289 201 CURVE SMOOTH",
"200 201 OFFCURVE",
"151 236 OFFCURVE",
"122 285 CURVE",
"170 319 LINE SMOOTH",
"234 364 OFFCURVE",
"254 384 OFFCURVE",
"254 427 CURVE SMOOTH",
"254 465 OFFCURVE",
"236 511 OFFCURVE",
"211 558 CURVE",
"304 558 LINE",
"304 567 LINE",
"272 625 LINE",
"25 625 LINE",
"25 616 LINE",
"57 558 LINE",
"147 558 LINE",
"167 515 OFFCURVE",
"179 481 OFFCURVE",
"179 450 CURVE SMOOTH",
"179 425 OFFCURVE",
"162 411 OFFCURVE",
"125 386 CURVE SMOOTH",
"71 349 LINE SMOOTH",
"58 340 OFFCURVE",
"54 328 OFFCURVE",
"54 317 CURVE SMOOTH",
"54 305 OFFCURVE",
"58 293 OFFCURVE",
"67 275 CURVE SMOOTH",
"106 200 OFFCURVE",
"194 135 OFFCURVE",
"309 135 CURVE SMOOTH",
"366 135 OFFCURVE",
"412 145 OFFCURVE",
"450 162 CURVE",
"450 30 LINE",
"519 -4 LINE"
);
}
);
width = 631;
}
);
category = Letter;
subCategory = Other;
},
{
glyphname = Ttha.alt.dogra;
lastChange = "2019-11-20 09:06:43 +0000";
layers = (
{
anchors = (
{
name = bottom1;
position = "{292, 3}";
},
{
name = bottom2;
position = "{290, 50}";
},
{
name = bottom3;
position = "{278, 154}";
},
{
name = top;
position = "{293, 660}";
},
{
name = top2;
position = "{271, 660}";
}
);
background = {
anchors = (
{
name = bottom1;
position = "{292, 3}";
},
{
name = bottom2;
position = "{290, 50}";
},
{
name = bottom3;
position = "{278, 154}";
},
{
name = top;
position = "{293, 660}";
},
{
name = top2;
position = "{271, 660}";
}
);
paths = (
{
closed = 1;
nodes = (
"426 119 OFFCURVE",
"507 201 OFFCURVE",
"507 329 CURVE SMOOTH",
"507 437 OFFCURVE",
"402 550 OFFCURVE",
"266 550 CURVE SMOOTH",
"136 550 OFFCURVE",
"57 465 OFFCURVE",
"57 351 CURVE SMOOTH",
"57 216 OFFCURVE",
"177 119 OFFCURVE",
"301 119 CURVE SMOOTH"
);
},
{
closed = 1;
nodes = (
"196 177 OFFCURVE",
"137 223 OFFCURVE",
"137 328 CURVE SMOOTH",
"137 421 OFFCURVE",
"195 492 OFFCURVE",
"294 492 CURVE SMOOTH",
"373 492 OFFCURVE",
"427 440 OFFCURVE",
"427 352 CURVE SMOOTH",
"427 246 OFFCURVE",
"361 177 OFFCURVE",
"274 177 CURVE SMOOTH"
);
}
);
};
layerId = "284FCB4C-24BB-4F0E-B388-CD6C9D45C343";
paths = (
{
closed = 1;
nodes = (
"426 119 OFFCURVE",
"507 201 OFFCURVE",
"507 329 CURVE SMOOTH",
"507 437 OFFCURVE",
"402 550 OFFCURVE",
"266 550 CURVE SMOOTH",
"136 550 OFFCURVE",
"57 465 OFFCURVE",
"57 351 CURVE SMOOTH",
"57 216 OFFCURVE",
"177 119 OFFCURVE",
"301 119 CURVE SMOOTH"
);
},
{
closed = 1;
nodes = (
"196 177 OFFCURVE",
"137 223 OFFCURVE",
"137 328 CURVE SMOOTH",
"137 421 OFFCURVE",
"195 492 OFFCURVE",
"294 492 CURVE SMOOTH",
"373 492 OFFCURVE",
"427 440 OFFCURVE",
"427 352 CURVE SMOOTH",
"427 246 OFFCURVE",
"361 177 OFFCURVE",
"274 177 CURVE SMOOTH"
);
}
);
width = 560;
}
);
category = Letter;
subCategory = Other;
},
{
glyphname = Rra.alt.dogra;
lastChange = "2019-11-20 09:06:43 +0000";
layers = (
{
anchors = (
{
name = bottom1;
position = "{382, -157}";
},
{
name = bottom2;
position = "{280, -183}";
},
{
name = bottom3;
position = "{297, -115}";
},
{
name = top;
position = "{279, 660}";
},
{
name = top2;
position = "{282, 660}";
}
);
background = {
anchors = (
{
name = bottom1;
position = "{382, -157}";
},
{
name = bottom2;
position = "{280, -183}";
},
{
name = bottom3;
position = "{297, -115}";
},
{
name = top;
position = "{279, 660}";
},
{
name = top2;
position = "{282, 660}";
}
);
paths = (
{
closed = 1;
nodes = (
"335 -99 LINE",
"239 24 LINE",
"285 25 OFFCURVE",
"325 32 OFFCURVE",
"358 43 CURVE",
"496 -125 LINE",
"549 -79 LINE",
"408 67 LINE",
"452 96 OFFCURVE",
"477 138 OFFCURVE",
"477 191 CURVE SMOOTH",
"477 265 OFFCURVE",
"415 320 OFFCURVE",
"360 344 CURVE",
"426 380 OFFCURVE",
"464 445 OFFCURVE",
"475 558 CURVE",
"554 558 LINE",
"554 567 LINE",
"522 625 LINE",
"25 625 LINE",
"25 616 LINE",
"57 558 LINE",
"391 558 LINE",
"376 418 OFFCURVE",
"302 380 OFFCURVE",
"158 380 CURVE SMOOTH",
"118 380 LINE",
"141 313 LINE",
"268 313 LINE SMOOTH",
"352 313 OFFCURVE",
"396 276 OFFCURVE",
"396 222 CURVE SMOOTH",
"396 146 OFFCURVE",
"336 94 OFFCURVE",
"212 94 CURVE SMOOTH",
"210 94 LINE",
"163 154 OFFCURVE",
"132 178 OFFCURVE",
"95 178 CURVE SMOOTH",
"58 178 OFFCURVE",
"35 156 OFFCURVE",
"35 122 CURVE SMOOTH",
"35 75 OFFCURVE",
"82 38 OFFCURVE",
"171 27 CURVE",
"279 -141 LINE"
);
}
);
};
layerId = "284FCB4C-24BB-4F0E-B388-CD6C9D45C343";
paths = (
{
closed = 1;
nodes = (
"335 -99 LINE",
"239 24 LINE",
"285 25 OFFCURVE",
"325 32 OFFCURVE",
"358 43 CURVE",
"496 -125 LINE",
"549 -79 LINE",
"408 67 LINE",
"452 96 OFFCURVE",
"477 138 OFFCURVE",
"477 191 CURVE SMOOTH",
"477 265 OFFCURVE",
"415 320 OFFCURVE",
"360 344 CURVE",
"426 380 OFFCURVE",
"464 445 OFFCURVE",
"475 558 CURVE",
"554 558 LINE",
"554 567 LINE",
"522 625 LINE",
"25 625 LINE",
"25 616 LINE",
"57 558 LINE",
"391 558 LINE",
"376 418 OFFCURVE",
"302 380 OFFCURVE",
"158 380 CURVE SMOOTH",
"118 380 LINE",
"141 313 LINE",
"268 313 LINE SMOOTH",
"352 313 OFFCURVE",
"396 276 OFFCURVE",
"396 222 CURVE SMOOTH",
"396 146 OFFCURVE",
"336 94 OFFCURVE",
"212 94 CURVE SMOOTH",
"210 94 LINE",
"163 154 OFFCURVE",
"132 178 OFFCURVE",
"95 178 CURVE SMOOTH",
"58 178 OFFCURVE",
"35 156 OFFCURVE",
"35 122 CURVE SMOOTH",
"35 75 OFFCURVE",
"82 38 OFFCURVE",
"171 27 CURVE",
"279 -141 LINE"
);
}
);
width = 579;
}
);
category = Letter;
subCategory = Other;
},
{
glyphname = vowelAa.old.dogra;
lastChange = "2019-11-20 09:06:43 +0000";
layers = (
{
anchors = (
{
name = top;
position = "{395, 660}";
}
);
background = {
anchors = (
{
name = top;
position = "{395, 660}";
}
);
paths = (
{
closed = 1;
nodes = (
"615 -10 LINE",
"606 7 OFFCURVE",
"600 29 OFFCURVE",
"600 50 CURVE SMOOTH",
"600 86 OFFCURVE",
"611 116 OFFCURVE",
"633 167 CURVE SMOOTH",
"659 228 LINE SMOOTH",
"674 263 OFFCURVE",
"691 304 OFFCURVE",
"691 335 CURVE SMOOTH",
"691 412 OFFCURVE",
"606 499 OFFCURVE",
"520 499 CURVE SMOOTH",
"435 499 OFFCURVE",
"368 441 OFFCURVE",
"338 268 CURVE",
"302 286 OFFCURVE",
"264 301 OFFCURVE",
"224 313 CURVE",
"229 354 OFFCURVE",
"232 400 OFFCURVE",
"232 494 CURVE SMOOTH",
"232 558 LINE",
"745 558 LINE",
"745 567 LINE",
"713 625 LINE",
"25 625 LINE",
"25 615 LINE",
"57 558 LINE",
"154 558 LINE",
"154 499 LINE SMOOTH",
"154 417 OFFCURVE",
"152 370 OFFCURVE",
"145 330 CURVE",
"127 331 LINE",
"84 331 OFFCURVE",
"60 308 OFFCURVE",
"60 267 CURVE SMOOTH",
"60 211 OFFCURVE",
"102 161 OFFCURVE",
"148 161 CURVE SMOOTH",
"183 161 OFFCURVE",
"203 182 OFFCURVE",
"216 251 CURVE",
"269 239 OFFCURVE",
"325 220 OFFCURVE",
"406 185 CURVE",
"438 373 OFFCURVE",
"485 434 OFFCURVE",
"553 434 CURVE SMOOTH",
"589 434 OFFCURVE",
"611 410 OFFCURVE",
"611 372 CURVE SMOOTH",
"611 338 OFFCURVE",
"599 305 OFFCURVE",
"581 262 CURVE SMOOTH",
"555 201 LINE SMOOTH",
"536 157 OFFCURVE",
"520 118 OFFCURVE",
"520 86 CURVE SMOOTH",
"520 41 OFFCURVE",
"558 9 OFFCURVE",
"602 -20 CURVE"
);
}
);
};
layerId = "284FCB4C-24BB-4F0E-B388-CD6C9D45C343";
paths = (
{
closed = 1;
nodes = (
"615 -10 LINE",
"606 7 OFFCURVE",
"600 29 OFFCURVE",
"600 50 CURVE SMOOTH",
"600 86 OFFCURVE",
"611 116 OFFCURVE",
"633 167 CURVE SMOOTH",
"659 228 LINE SMOOTH",
"674 263 OFFCURVE",
"691 304 OFFCURVE",
"691 335 CURVE SMOOTH",
"691 412 OFFCURVE",
"606 499 OFFCURVE",
"520 499 CURVE SMOOTH",
"435 499 OFFCURVE",
"368 441 OFFCURVE",
"338 268 CURVE",
"302 286 OFFCURVE",
"264 301 OFFCURVE",
"224 313 CURVE",
"229 354 OFFCURVE",
"232 400 OFFCURVE",
"232 494 CURVE SMOOTH",
"232 558 LINE",
"745 558 LINE",
"745 567 LINE",
"713 625 LINE",
"25 625 LINE",
"25 615 LINE",
"57 558 LINE",
"154 558 LINE",
"154 499 LINE SMOOTH",
"154 417 OFFCURVE",
"152 370 OFFCURVE",
"145 330 CURVE",
"127 331 LINE",
"84 331 OFFCURVE",
"60 308 OFFCURVE",
"60 267 CURVE SMOOTH",
"60 211 OFFCURVE",
"102 161 OFFCURVE",
"148 161 CURVE SMOOTH",
"183 161 OFFCURVE",
"203 182 OFFCURVE",
"216 251 CURVE",
"269 239 OFFCURVE",
"325 220 OFFCURVE",
"406 185 CURVE",
"438 373 OFFCURVE",
"485 434 OFFCURVE",
"553 434 CURVE SMOOTH",
"589 434 OFFCURVE",
"611 410 OFFCURVE",
"611 372 CURVE SMOOTH",
"611 338 OFFCURVE",
"599 305 OFFCURVE",
"581 262 CURVE SMOOTH",
"555 201 LINE SMOOTH",
"536 157 OFFCURVE",
"520 118 OFFCURVE",
"520 86 CURVE SMOOTH",
"520 41 OFFCURVE",
"558 9 OFFCURVE",
"602 -20 CURVE"
);
}
);
width = 770;
}
);
category = Letter;
subCategory = Other;
},
